<?xml version="1.0" encoding="UTF-8"?>
<svg id="Layer_1" data-name="Layer 1" xmlns="http://www.w3.org/2000/svg" viewBox="0 0 1220 1258.29">
  <defs>
    <style>
      .cls-1 {
        fill: #fff;
      }

      .cls-2 {
        fill: #803435;
      }

      .cls-3 {
        fill: #b6302e;
      }

      .cls-4 {
        fill: #ae8578;
      }

      .cls-5 {
        fill: #be9e7d;
      }

      .cls-6 {
        fill: #c4e7f6;
      }

      .cls-7 {
        fill: #dc3b28;
      }

      .cls-8 {
        fill: #231f20;
      }

      .cls-9 {
        fill: #26130f;
      }

      .cls-10 {
        stroke: #231f20;
      }

      .cls-10, .cls-11 {
        fill: none;
        stroke-miterlimit: 10;
        stroke-width: 2px;
      }

      .cls-11 {
        stroke: #be1e2d;
      }
    </style>
  </defs>
  <circle class="cls-6" cx="610" cy="648.08" r="610"/>
  <g>
    <path class="cls-5" d="M482.29,491.05s-10.98,94.17-52.31,173.4c0,0-10.33,289.35,210.13,311.74,0,0,153.8-112.7,88.96-298.34l-246.77-186.8Z"/>
    <path class="cls-7" d="M1069.97,1047.83l-18.42-44.13s-37.14-107.26-119.27-209.62c0,0-91.66-63.09-173.1-82.75l-107.64,89.16-22.8,112.12-56.14-113.53s-107.32-42.34-158.58-152.94c0,0-193.5,45-282.02,139.3,0,0-55.74,55.99-75.57,116.76,0,0,59.17,159.47,238.67,268.13,0,0,167.8,116.27,408.17,81.46,0,0,216.31-25.45,366.71-203.95Z"/>
    <path class="cls-3" d="M449.96,619.35s-26.07-6.14-35.94,26.78c-6.34,21.14-17.62,25.37-17.62,25.37,0,0-4.93,86.69,68.37,147.3,0,0,54.27-38.76,107.83-19.73,0,0-169.86-105.02-122.64-179.72Z"/>
    <path class="cls-3" d="M729.06,677.85s17.62,39.47-77.53,122.64c0,0,69.78-7.05,97.26,23.26,0,0,23.26-57.79,26.78-117.7,0,0-21.85-31.01-46.52-28.19Z"/>
    <path class="cls-5" d="M900.8,177.14s35.78,68.85,4.31,218.87c0,0-11.15,35.55-9.86,55.72,1.29,20.17-3.01,52.87-13.22,72.88-10.21,20.01-83.51,153.45-83.51,153.45,0,0-23.25,38.42-94.9,29.63-71.65-8.79-128.88-43.06-150.6-76.66-21.72-33.6-79.65-91.07-79.84-138.27,0,0-43.76,4.01-54.26-49.41,0,0-35.65-85.59,13.31-100.12,48.96-14.52,67.19,52.99,67.19,52.99,0,0-29.84-195.56,85.52-254.73,0,0,144.68-91.16,315.86,35.65Z"/>
    <path class="cls-8" d="M736,326.01s-59.72-19.97-113.45,.26c0,0,27.46-39.88,115.68-18.14,0,0,14.29,11.91-2.23,17.88Z"/>
    <path class="cls-8" d="M911.09,370.84c-36.57-24.13-61.14-21.24-61.14-21.24-12.03-12.81,6.1-16.95,6.1-16.95,27.58,6.41,47.19,15.48,61.12,24.93,0,0-4.08,14.58-6.08,13.26Z"/>
    <path class="cls-10" d="M793.63,409.48l26.28,94.86s5,26.92-22.79,22.56l-27.79-4.36"/>
    <path class="cls-8" d="M675.19,640.58l-42,51.4s69.27,31.95,125.99,19.35l9.39-48.49s-60.71,8.87-93.38-22.26Z"/>
    <path class="cls-10" d="M424.99,376.84s22.27-22.66,36.33,7.65c14.06,30.31,13.37,39.37,13.37,39.37,0,0-19.33-47.56-36.88-15.87"/>
    <path class="cls-8" d="M415.24,349.38s39.48-25.91,60.09,13.3c20.61,39.21,13.76,54.68,13.76,54.68l23.85,3.14s-14.09-209.19,77.02-276.21c0,0,157.38,129.45,332.31,48.25,0,0,13.77-124.99-175.4-181.91,0,0-125.96-36.13-173.83,24.83,0,0-96.01-17.27-136.91,93.99-40.9,111.26-20.89,219.92-20.89,219.92Z"/>
    <path class="cls-9" d="M707.98,706.48s-63.52-3.18-111.01-34.47c0,0-29.78-14.08-64.3-67.13,0,0,30.07,75.27,105.43,95.8,0,0,33.23,12.82,69.88,5.8,0,0-2.76,7.22,0,0Z"/>
    <g>
      <path class="cls-1" d="M654.26,361.9s.25-1.65,1.68-2.83c4.76-3.91,15.43-10.93,30.1-8.63,16.42,2.58,23.04,19.44,25.26,25.43,.38,1.03,.2,1.86,.2,1.86,0,0-.09,.92-.74,1.48-3.1,2.63-13.18,9.75-28.77,7.54-9.28-1.31-21.49-8.34-27.56-22.17-.42-.96-.29-2.08-.17-2.68Z"/>
      <circle class="cls-9" cx="687.68" cy="370.14" r="17.19"/>
      <circle class="cls-1" cx="677.51" cy="365" r="4.72"/>
      <path class="cls-10" d="M712.3,376.06s-13.81-42.35-56.98-17.22"/>
    </g>
    <g>
      <path class="cls-1" d="M841.47,405.55s0-1.57,1.16-2.87c3.87-4.31,12.78-12.37,26.76-12.33,15.64,.05,24.21,14.78,27.13,20.03,.5,.91,.45,1.7,.45,1.7,0,0,.05,.87-.48,1.48-2.51,2.89-10.86,10.95-25.67,11.12-8.82,.1-21.18-4.68-28.8-16.67-.53-.83-.57-1.9-.54-2.47Z"/>
      <circle class="cls-9" cx="873.74" cy="408.4" r="16.11"/>
      <circle class="cls-1" cx="863.01" cy="405.35" r="4.51"/>
      <path class="cls-10" d="M896.77,410.92s-17.7-39.63-54.64-7.61"/>
    </g>
    <path class="cls-10" d="M794.51,311.3s8.52,20.9-8.18,30.57"/>
    <path class="cls-10" d="M817.09,316.83s-14.3,15.74-5.54,32.15"/>
    <path class="cls-4" d="M661.78,568.86s39.04-36.18,90.2-17.08c0,0,46.83-4.88,61.09,39.7,0,0-12.6,26.16-73.04,15.91-60.44-10.25-78.24-38.53-78.24-38.53Z"/>
    <path class="cls-2" d="M673.12,568.48s76.21-36.93,132.78,20.23c0,0-40.45-1.17-63.02,5.28,0,0-22.28-15.24-69.76-25.5Z"/>
    <path class="cls-11" d="M952.08,1152.66c4.71-81.41,6.29-119.33,3.23-162.2"/>
    <path class="cls-1" d="M706.23,559.31s45.29-13.68,86.34,18.4l-86.34-18.4Z"/>
  </g>
</svg>