<?xml version="1.0" encoding="UTF-8"?>
<svg id="Layer_1" data-name="Layer 1" xmlns="http://www.w3.org/2000/svg" viewBox="0 0 1220 1259.55">
  <defs>
    <style>
      .cls-1, .cls-2, .cls-3, .cls-4, .cls-5, .cls-6 {
        stroke-miterlimit: 10;
      }

      .cls-1, .cls-3, .cls-4, .cls-5 {
        fill: none;
      }

      .cls-1, .cls-3, .cls-6 {
        stroke: #231f20;
      }

      .cls-1, .cls-6 {
        stroke-width: 1.5px;
      }

      .cls-7, .cls-2 {
        fill: #01a04c;
      }

      .cls-8 {
        fill: #fff;
      }

      .cls-9 {
        fill: #803435;
      }

      .cls-10 {
        fill: #ae8578;
      }

      .cls-11 {
        fill: #be9e7d;
      }

      .cls-12 {
        fill: #c4e7f6;
      }

      .cls-13 {
        fill: #231f20;
      }

      .cls-14 {
        fill: #26130f;
      }

      .cls-2, .cls-3, .cls-4 {
        stroke-width: 2px;
      }

      .cls-2, .cls-4 {
        stroke: #006838;
      }

      .cls-5 {
        stroke: #603913;
      }

      .cls-6 {
        fill: #bcbec0;
      }
    </style>
  </defs>
  <circle class="cls-12" cx="610" cy="649.55" r="610"/>
  <g>
    <path class="cls-11" d="M799.99,319.72s-18.32,58.04,11.27,114.76c0,0,7.4,207.14-150.43,223.17,0,0-111.33-91.23-50.83-225.68l189.99-112.26Z"/>
    <path class="cls-7" d="M811.27,434.48s82.39,15.34,175.94,89.92c91.89,73.27,36.08,326.97,31.57,346.71-.13,.56-.63,.88-1.21,.86-2.19-.09-9.01,2.85-27.74,29.08,0,0-5.23,115.71-.16,226.3,0,0-90.62,82.3-252.03,118.82-68.58,15.52-161.06,19.88-259.41-.96,0,0-32.1-301.18-34.22-419.94,0,0-76.19-7.21-97.4-55.99l49.33-153.63s-4.23-95.85,205.79-153.63c0,0-39.83,38.85,34.39,55.81,0,0,130.63,29.04,175.16-83.35Z"/>
    <path class="cls-11" d="M526.84,95.29s-32.19,38.73-11.8,128c0,0,11.1,21.85,10.12,48.33,0,0-7.8,48.41,13.39,83.79,21.19,35.38,50.82,70.79,50.82,70.79,0,0,23.32,18.25,50.74,9.63,0,0,44.38,9.35,78.88-19.12,34.49-28.47,89.8-111.15,89.8-111.15,0,0,35.43,5.17,41.52-31.43,6.08-36.6,18.37-65.52-5.99-83.64-24.36-18.12-44.4,42.33-44.4,42.33,0,0-16.7-15.89-15.72-42.38,0,0,4.65-53.46-33.56-110.86,0,0-101.52-30.09-223.78,15.7Z"/>
    <path class="cls-13" d="M640.39,196.41s45.93-20.49,90.04-7.6c0,0-24.7-30.82-93.12-6.91,0,0-10.47,10.75,3.08,14.51Z"/>
    <path class="cls-13" d="M513.04,208.05c32.71-9.1,50.14-.88,50.14-.88,11.92-6.64-.46-14.21-.46-14.21-21.86-1.98-38.48,0-51,3.66,0,0-.47,11.94,1.32,11.44Z"/>
    <path class="cls-14" d="M643.22,438.24s53.02,1.58,72.68-19.4c0,0,23.91-16.03,49.63-53.05,0,0-28.99,64.17-76.38,75.62,0,0-22.13,6.71-45.93-3.18,0,0,1.53,5.07,0,0Z"/>
    <path class="cls-3" d="M580.08,276.61s-16.61,51.57,30.13,39.14"/>
    <path class="cls-3" d="M846.05,227.73s-24.52-29.43-31.61,34.07c0,0,13.73-31.71,24.81-12.47"/>
    <g>
      <path class="cls-8" d="M692.28,219.28s-.09-1.16-1.03-2.05c-3.12-2.96-10.18-8.38-20.5-7.51-11.55,.97-17,12.36-18.85,16.42-.32,.7-.23,1.28-.23,1.28,0,0,.01,.65,.44,1.07,2.02,1.98,8.68,7.44,19.63,6.69,6.52-.45,15.37-4.72,20.28-14.04,.34-.65,.3-1.43,.25-1.85Z"/>
      <circle class="cls-14" cx="668.62" cy="223.34" r="11.99"/>
      <circle class="cls-8" cx="675.95" cy="220.27" r="3.29"/>
      <path class="cls-1" d="M651.19,226.22s11.73-28.76,40.5-9.12"/>
    </g>
    <g>
      <path class="cls-8" d="M564.31,239.72s.08-1.09-.66-2.06c-2.48-3.2-8.27-9.25-17.99-9.91-10.88-.75-17.58,9.07-19.87,12.57-.4,.6-.4,1.16-.4,1.16,0,0-.08,.6,.26,1.05,1.6,2.13,7,8.16,17.3,9.02,6.13,.51,14.97-2.19,20.87-10.15,.41-.55,.49-1.29,.5-1.69Z"/>
      <circle class="cls-14" cx="541.72" cy="240.08" r="11.24"/>
      <circle class="cls-8" cx="549.34" cy="238.49" r="3.15"/>
      <path class="cls-1" d="M525.57,240.68s14.3-26.68,38.38-2.55"/>
    </g>
    <path class="cls-13" d="M799.9,232.82s-55.28-18.4-70.49-133.99c0,0-39.28,44.87-82.81,51.29,0,0,1.74,8.73,12.1-33.53,0,0-19.5,28.8-64.85,47.63,0,0,6.75-.09,7.81-36.78,0,0-2.56,16.2-35.37,37.93,0,0,.97-.95-2.89-32.61,0,0-6.6,17.18-28.22,39.76,0,0,2.56-16.95-4.21-36.06,0,0-12.8,8.31-20.81,50.17,0,0-17.94-12.12-4.63-84.66,0,0-5.06,.12-9.16,3.94,0,0-4.1-24.68,30.86-56.67,0,0,105.25-86.69,210.7-30.01,0,0,115.49,6.72,106.39,171.27,0,0-30.34-9.69-44.4,42.33Z"/>
    <circle class="cls-6" cx="820.26" cy="290.19" r="7.78"/>
    <path class="cls-10" d="M568.58,357.55s7.21-29.73,40.54-25.67c0,0,19.37-18.47,72.52,9.91,0,0-25.67,29.28-56.3,33.78-30.63,4.5-56.75-18.02-56.75-18.02Z"/>
    <path class="cls-9" d="M573.53,357.55s20.27-19.37,39.64-19.82c19.37-.45,61.26,4.5,61.26,4.5,0,0-40.09,16.67-53.15,22.97-13.06,6.31-47.74-7.66-47.74-7.66Z"/>
    <path class="cls-8" d="M584.79,350.35s38.29-5.86,60.36-11.26c0,0-13.51-4.05-31.98-1.35-18.47,2.7-28.38,12.61-28.38,12.61Z"/>
    <path class="cls-8" d="M346.6,769.29s-54.16,161.77-50.93,265.77c3.23,103.94,95.55,109.75,95.55,109.75,0,0,121.66,20.9,387.15-12.28l-14.35-148.89-312.11-24.11-7.91-134.24s-76.43-4.89-97.4-55.99Z"/>
    <path class="cls-11" d="M777.35,1119.46s25.98,0,33.98,5c8,5,51.97,8,64.96,4l64.3,12.38s14.73-7.01,4.21-15.43-56.1-17.53-56.1-17.53l82.75,4.21s25.25-6.31,11.22-23.14c0,0,29.45-6.31,4.91-22.44-24.55-16.13-53.3-19.64-53.3-19.64l17.53-10.52s30.16,18.94,42.08,9.82c11.92-9.12-28.05-28.05-28.05-28.05l-52.6-7.01-135.89,108.37Z"/>
    <path class="cls-8" d="M1014.38,872.8s-88.49,6.34-174.25-107.57l-40.96,113.92-143.36-276.48-103.68,30.72s39.64,406.91,181.71,472.19c142.08,65.28,215.08-83.31,215.08-83.31,0,0,51.37-88.03,65.45-149.47Z"/>
    <path class="cls-11" d="M563.37,631.31l-3.88-14.75-59.79-58.24s-8.54-19.41,3.88-31.84c0,0-7.77-30.28,9.32-34.17,0,0-3.88-20.97,34.94-23.3l4.66-41.93s19.55-27.37,53.58-9.32c0,0,4.66,15.53-17.86,18.64l3.11,23.3,14.75,12.42s-6.21-52.8,14.75-62.9c0,0,10.09-13.2,22.52-13.2s3.88,36.5,3.88,36.5l-4.66,14.75s1.55,39.6,9.32,51.25c7.77,11.65-3.88,70.66-3.88,70.66l-11.65,30.28,1.55,9.32-74.54,22.52Z"/>
    <path class="cls-5" d="M577.24,411.46s18.16-6.41,28.84,6.32-17.86,18.64-17.86,18.64"/>
    <path class="cls-5" d="M654.86,528.06l.62-18.06c-9.97-18.06-12.92-62.71-12.92-62.71,19.47-48.39,.78-51.25,.78-51.25-38.92,3.75-37.49,46.18-37.49,46.18,0,0,.18,18.06-7.15,23.6"/>
    <path class="cls-5" d="M598.95,465.64s17.44,5.61,23.67,26.16"/>
    <path class="cls-2" d="M444,825.28s-10.35-100.42-8.6-147.61"/>
    <path class="cls-2" d="M840.13,765.22s12.47-63.34,44.9-126.04"/>
    <path class="cls-4" d="M631.04,972.73s58.33,132.89,146.31,146.73"/>
    <path class="cls-5" d="M982.67,1088.93s-31.75-16.84-62.02-15.58"/>
  </g>
</svg>