<?xml version="1.0" encoding="UTF-8"?>
<svg id="Layer_1" data-name="Layer 1" xmlns="http://www.w3.org/2000/svg" viewBox="0 0 1220.13 1259.98">
  <defs>
    <style>
      .cls-1, .cls-2 {
        stroke-width: 1.5px;
      }

      .cls-1, .cls-2, .cls-3, .cls-4, .cls-5 {
        fill: none;
        stroke-miterlimit: 10;
      }

      .cls-1, .cls-5 {
        stroke: #231f20;
      }

      .cls-2 {
        stroke: #603913;
      }

      .cls-3 {
        stroke: #fbb040;
      }

      .cls-3, .cls-4 {
        stroke-width: 3px;
      }

      .cls-4 {
        stroke: #dc3b28;
      }

      .cls-6 {
        fill: #fff;
      }

      .cls-7 {
        fill: #be9e7d;
      }

      .cls-8 {
        fill: #bf6b6b;
      }

      .cls-9 {
        fill: #c4e7f6;
      }

      .cls-10 {
        fill: #dc3b28;
      }

      .cls-11 {
        fill: #3e3e3e;
      }

      .cls-12 {
        fill: #517569;
      }

      .cls-13 {
        fill: #26130f;
      }

      .cls-5 {
        stroke-width: 2px;
      }
    </style>
  </defs>
  <circle class="cls-9" cx="610.13" cy="649.98" r="610"/>
  <g>
    <path class="cls-7" d="M521.91,673.51s-.7,146.05,9.96,196.2c0,0-159-17.37-295.54-5.05,0,0-16.97-52.46-91.31-42.09,0,0-44.56-29.22-59.45-9.43-14.89,19.79,62.91,40.25,62.91,40.25,0,0-153.16,61.5-148.39,77.08,4.77,15.57,25.3,1.18,25.3,1.18,0,0,43.1,7.24,58.33-.51,0,0,55.94,31.97,126.49-3.14,0,0,261.49,78.34,353.97,86.07,0,0,119.23,21.84,129.02-106.11l-11.28-206.22"/>
    <path class="cls-7" d="M771.5,259.58s27.29,67.84,92.33,65c0,0,13.18,254.54-154.31,298.29,0,0-133.5-5.2-94.38-185.57,0,0,10.81-12.92,8.07-34.4"/>
    <path class="cls-7" d="M746.36,206.42s-41.19-155.93-184.34-136.11c0,0-100.23,22.43-62.59,162.64,0,0,10.53,21.5,9.38,34.4,0,0-.97,32.74,20.63,58.58,32.32,38.68,61.32,65.12,61.32,65.12,0,0,18.25,17.85,53.37,10.53,0,0,24.45-6.14,51.34-33.16,0,0,71.25-53.51,56.92-99.16,0,0,39.71,15.4,43.01-43.08,0,0-3.37-79.21-49.01-19.76Z"/>
    <path class="cls-13" d="M604.66,181.95s47.55-19.28,71.32-5.14c0,0-18.81-24.16-73.5-6.4,0,0-9.2,8.25,2.18,11.54Z"/>
    <path class="cls-13" d="M489.54,206.1c.08-2.79,23.11-12.27,46.09-16.04,0,0,11.96,3.11,3.36,11.26,0,0-43.65,1.31-44.94,16.09,0,0-4.7-4.43-4.51-11.31Z"/>
    <path class="cls-5" d="M567.69,265.05s-12.89,33.45,21.9,29.12"/>
    <path class="cls-5" d="M787.17,211.68s-19.74-29.83-32.83,28.39c0,0,16-28.03,24.31-9.03"/>
    <path class="cls-13" d="M623.21,402.91s13.08,7.51,47.61-14.22c0,0,30.31-18.46,52.23-46.17,0,0-25.43,45.55-70.21,61.75,0,0-11.45,6.46-30.27,4.22,0,0,2.59-.9,.64-5.57Z"/>
    <g>
      <path class="cls-6" d="M663.45,204.49s-.19-1.05-1.13-1.77c-3.11-2.39-10.04-6.66-19.33-4.9-10.41,1.97-14.29,12.83-15.58,16.69-.22,.66-.09,1.19-.09,1.19,0,0,.07,.59,.5,.93,2.03,1.61,8.58,5.95,18.47,4.23,5.88-1.02,13.52-5.73,17.11-14.66,.25-.62,.14-1.33,.06-1.71Z"/>
      <circle class="cls-13" cx="642.33" cy="210.4" r="10.95"/>
      <circle class="cls-6" cx="648.71" cy="206.92" r="3"/>
      <path class="cls-1" d="M626.77,214.65s7.96-27.24,35.94-12.09"/>
    </g>
    <g>
      <path class="cls-6" d="M543.85,236.26s-.03-1-.8-1.81c-2.55-2.67-8.38-7.63-17.28-7.32-9.96,.34-15.12,9.89-16.88,13.29-.3,.59-.25,1.09-.25,1.09,0,0-.02,.56,.33,.93,1.65,1.79,7.13,6.76,16.57,6.58,5.62-.11,13.39-3.4,18.01-11.18,.32-.54,.32-1.22,.3-1.58Z"/>
      <circle class="cls-13" cx="523.36" cy="238.71" r="10.27"/>
      <circle class="cls-6" cx="530.13" cy="236.55" r="2.88"/>
      <path class="cls-1" d="M508.74,240.77s10.49-25.58,34.64-5.92"/>
    </g>
    <path class="cls-6" d="M1016.88,1104.43c-19.15,16.62-104.58,33.53-157.31,30.24,0,0-111.75-3.79-185.8-43.99,0,0-8.22-154.24-50.64-254.2,0,0-45.31-36.62-64.69-114.56l-44.38-55.76-4.7-114.08s-4.23-47.31,71.09-98.23c0,0,15.14-9.82,35.93-17.57,0,0,4.04,35.49,20.27,66.82,0,0,103.58,55.64,199.67-35.05,0,0,24.79-30.37,21.44-127.69,0,0,37.27,7.19,103.32,14.08,109.41,11.42,122.23,164.6,122.23,164.6,0,0-28.69,34.74-12.32,79.51l104.4,281.21s-43.34,124.7-158.52,224.67Z"/>
    <path class="cls-4" d="M878.94,340.9s7.98,75.46-20.29,137.49c0,0-74.97,95.15-236.36,47.85,0,0-22.85-38.62-21.07-82.18"/>
    <path class="cls-4" d="M625.66,837.86s183.65,40.01,346.66-102.67c0,0,23.49-28.82,38.87-54.95"/>
    <g>
      <circle class="cls-10" cx="705.09" cy="641.46" r="12.87"/>
      <circle class="cls-10" cx="720.39" cy="661.58" r="12.87"/>
      <circle class="cls-10" cx="724.39" cy="685.27" r="12.87"/>
      <circle class="cls-10" cx="700.15" cy="669.33" r="12.87"/>
      <circle class="cls-10" cx="746.19" cy="665.8" r="12.87"/>
      <circle class="cls-10" cx="732.57" cy="642.19" r="12.87"/>
    </g>
    <g>
      <circle class="cls-10" cx="625.73" cy="641.86" r="12.87"/>
      <circle class="cls-10" cx="641.03" cy="661.98" r="12.87"/>
      <circle class="cls-10" cx="645.02" cy="685.68" r="12.87"/>
      <circle class="cls-10" cx="620.78" cy="669.73" r="12.87"/>
      <circle class="cls-10" cx="666.83" cy="666.2" r="12.87"/>
      <circle class="cls-10" cx="653.2" cy="642.59" r="12.87"/>
    </g>
    <g>
      <circle class="cls-10" cx="782.3" cy="623.81" r="12.87"/>
      <circle class="cls-10" cx="797.6" cy="643.93" r="12.87"/>
      <circle class="cls-10" cx="801.59" cy="667.62" r="12.87"/>
      <circle class="cls-10" cx="777.35" cy="651.68" r="12.87"/>
      <circle class="cls-10" cx="823.4" cy="648.15" r="12.87"/>
      <circle class="cls-10" cx="809.77" cy="624.54" r="12.87"/>
    </g>
    <g>
      <circle class="cls-10" cx="852.18" cy="583.47" r="12.87"/>
      <circle class="cls-10" cx="867.48" cy="603.59" r="12.87"/>
      <circle class="cls-10" cx="871.47" cy="627.28" r="12.87"/>
      <circle class="cls-10" cx="847.23" cy="611.34" r="12.87"/>
      <circle class="cls-10" cx="893.28" cy="607.81" r="12.87"/>
      <circle class="cls-10" cx="879.65" cy="584.2" r="12.87"/>
    </g>
    <g>
      <circle class="cls-10" cx="881.7" cy="534.18" r="9.62"/>
      <circle class="cls-10" cx="896.39" cy="546.08" r="9.62"/>
      <circle class="cls-10" cx="903.49" cy="562.58" r="9.62"/>
      <circle class="cls-10" cx="883.05" cy="555.3" r="9.62"/>
      <circle class="cls-10" cx="915.88" cy="544.57" r="9.62"/>
      <circle class="cls-10" cx="901.79" cy="529.83" r="9.62"/>
    </g>
    <g>
      <circle class="cls-10" cx="568.09" cy="618.45" r="9.62"/>
      <circle class="cls-10" cx="582.77" cy="630.35" r="9.62"/>
      <circle class="cls-10" cx="589.88" cy="646.85" r="9.62"/>
      <circle class="cls-10" cx="569.44" cy="639.57" r="9.62"/>
      <circle class="cls-10" cx="602.26" cy="628.83" r="9.62"/>
      <circle class="cls-10" cx="588.18" cy="614.1" r="9.62"/>
    </g>
    <g>
      <circle class="cls-12" cx="848.28" cy="536.01" r="6.92"/>
      <circle class="cls-12" cx="850.48" cy="549.41" r="6.92"/>
      <circle class="cls-12" cx="846.41" cy="561.67" r="6.92"/>
      <circle class="cls-12" cx="838.91" cy="547.99" r="6.92"/>
      <circle class="cls-12" cx="861.66" cy="557.92" r="6.92"/>
      <circle class="cls-12" cx="861.14" cy="543.27" r="6.92"/>
    </g>
    <g>
      <circle class="cls-12" cx="813.19" cy="574.97" r="6.92"/>
      <circle class="cls-12" cx="815.39" cy="588.37" r="6.92"/>
      <circle class="cls-12" cx="811.32" cy="600.63" r="6.92"/>
      <circle class="cls-12" cx="803.83" cy="586.95" r="6.92"/>
      <circle class="cls-12" cx="826.58" cy="596.88" r="6.92"/>
      <circle class="cls-12" cx="826.06" cy="582.23" r="6.92"/>
    </g>
    <g>
      <circle class="cls-12" cx="850.6" cy="656.88" r="6.92"/>
      <circle class="cls-12" cx="852.8" cy="670.29" r="6.92"/>
      <circle class="cls-12" cx="848.73" cy="682.54" r="6.92"/>
      <circle class="cls-12" cx="841.23" cy="668.87" r="6.92"/>
      <circle class="cls-12" cx="863.98" cy="678.79" r="6.92"/>
      <circle class="cls-12" cx="863.46" cy="664.15" r="6.92"/>
    </g>
    <g>
      <circle class="cls-12" cx="768.63" cy="685.98" r="6.92"/>
      <circle class="cls-12" cx="770.83" cy="699.38" r="6.92"/>
      <circle class="cls-12" cx="766.75" cy="711.64" r="6.92"/>
      <circle class="cls-12" cx="759.26" cy="697.96" r="6.92"/>
      <circle class="cls-12" cx="782.01" cy="707.89" r="6.92"/>
      <circle class="cls-12" cx="781.49" cy="693.24" r="6.92"/>
    </g>
    <g>
      <circle class="cls-12" cx="685.92" cy="699.04" r="6.92"/>
      <circle class="cls-12" cx="688.11" cy="712.44" r="6.92"/>
      <circle class="cls-12" cx="684.04" cy="724.7" r="6.92"/>
      <circle class="cls-12" cx="676.55" cy="711.02" r="6.92"/>
      <circle class="cls-12" cx="699.3" cy="720.95" r="6.92"/>
      <circle class="cls-12" cx="698.78" cy="706.3" r="6.92"/>
    </g>
    <g>
      <circle class="cls-12" cx="589.69" cy="684.68" r="6.92"/>
      <circle class="cls-12" cx="591.88" cy="698.09" r="6.92"/>
      <circle class="cls-12" cx="587.81" cy="710.34" r="6.92"/>
      <circle class="cls-12" cx="580.32" cy="696.67" r="6.92"/>
      <circle class="cls-12" cx="603.07" cy="706.59" r="6.92"/>
      <circle class="cls-12" cx="602.55" cy="691.95" r="6.92"/>
    </g>
    <g>
      <circle class="cls-12" cx="928.36" cy="603.06" r="6.92"/>
      <circle class="cls-12" cx="930.56" cy="616.47" r="6.92"/>
      <circle class="cls-12" cx="926.48" cy="628.72" r="6.92"/>
      <circle class="cls-12" cx="918.99" cy="615.05" r="6.92"/>
      <circle class="cls-12" cx="941.74" cy="624.97" r="6.92"/>
      <circle class="cls-12" cx="941.22" cy="610.33" r="6.92"/>
    </g>
    <g>
      <circle class="cls-12" cx="751.75" cy="599.47" r="6.92"/>
      <circle class="cls-12" cx="749.12" cy="612.8" r="6.92"/>
      <circle class="cls-12" cx="741.01" cy="622.86" r="6.92"/>
      <circle class="cls-12" cx="738.78" cy="607.42" r="6.92"/>
      <circle class="cls-12" cx="756.62" cy="624.68" r="6.92"/>
      <circle class="cls-12" cx="761.26" cy="610.78" r="6.92"/>
    </g>
    <g>
      <circle class="cls-12" cx="672.03" cy="607.61" r="6.92"/>
      <circle class="cls-12" cx="677.96" cy="619.83" r="6.92"/>
      <circle class="cls-12" cx="677.56" cy="632.74" r="6.92"/>
      <circle class="cls-12" cx="666.47" cy="621.77" r="6.92"/>
      <circle class="cls-12" cx="691.11" cy="624.79" r="6.92"/>
      <circle class="cls-12" cx="686.43" cy="610.9" r="6.92"/>
    </g>
    <g>
      <circle class="cls-12" cx="619.87" cy="594.46" r="6.92"/>
      <circle class="cls-12" cx="623.28" cy="607.61" r="6.92"/>
      <circle class="cls-12" cx="620.34" cy="620.19" r="6.92"/>
      <circle class="cls-12" cx="611.63" cy="607.25" r="6.92"/>
      <circle class="cls-12" cx="635.2" cy="615.06" r="6.92"/>
      <circle class="cls-12" cx="633.34" cy="600.53" r="6.92"/>
    </g>
    <path class="cls-13" d="M537.83,96.11s125.97,145.34,254.76,118.32c0,0-2.16,58.52-42.97,55.04,0,0,21.9,72.91,75.9,84.53,0,0,28.9,18.05,65.66-20.95,42.71-45.3,39.8-103.88-8.94-157.04,0,0-75.07-44.98-131.72-124.38,0,0-111.73-107.59-221.51-12.18,0,0-78.59,4.16-93.07,74.77-8.38,40.84,21.7,122.73,36.68,177.12,0,0,13.59,142.74,148.32,136.41,0,0,6.18-8.49,4.91-24.75,0,0-26.24,1.23-46.64-23.59-20.41-24.83-29.42-28.73-49.77-53.5,0,0-21.63-24.48-20.61-63.13,0,0-1.21-19.93-9.39-29.85,0,0-26.57-78.59,38.41-136.83"/>
    <path class="cls-3" d="M761.25,255.91s14.75,14.12,5.43,26.96c-9.32,12.84-8.91-13.36-8.91-13.36"/>
    <path class="cls-7" d="M1078.79,524.86s40.2,233.95,38.52,289.78c-1.73,57.72-27.72,71.67-93.25,98.6-70.12,28.81-313.96,75.29-313.96,75.29,0,0-58.66,27.62-104.8,19.98,0,0,5.41,22.82-7.35,26.12,0,0-6.69,1.25-21.59-16.74,0,0-9.78,13.13-24.01-14.9,0,0-12.82,14.16-23.47-8.31l-3.92-13.57s-12.91,14.87-19.33,8.92c-6.42-5.95,4.04-24.06,4.04-24.06,0,0,6.45-30.97,22.77-33.79,16.32-2.82,54.27-20.75,54.27-20.75l115.13,7.92s120.31-73.76,252.35-150.61c0,0-10.72-68.71-14.06-120.19,0,0,78.34-50.34,138.66-123.69Z"/>
    <path class="cls-2" d="M647.85,915.94l-61.14-4.5-54.27,20.75s-11.16,2.47-17.63,16.5c-6.48,14.04-11.49,31.76-11.49,31.76,0,0-2.49,24,21.65,.67,0,0,2.98,28.43,18.82,25.95,0,0,5.63-1.59,8.58-4.07,0,0,13.91,29.13,24.01,14.9,0,0-14.83-22.87-5.48-32.9,9.35-10.03,25.04-10.3,25.04-10.3"/>
    <path class="cls-2" d="M524.96,981.12s2.89-28.02,10.54-35.02c7.65-6.99,22.87-14.84,22.87-14.84"/>
    <path class="cls-2" d="M552.36,1003s-6.64-34.28,14.71-48.95"/>
    <path class="cls-2" d="M154.66,895.69s-73.7-8.51-69.25,31.1"/>
    <path class="cls-2" d="M122.92,887.13s33.34-18.67,36-19.9"/>
    <path class="cls-2" d="M168.26,883.9s-10.47-26.8,4.45-43.4"/>
    <g>
      <path class="cls-8" d="M658.89,312.19s-19.62-1.44-37.97,13.92c0,0-19.28-2.21-33.4,11.66,0,0,7.26,17.35,27.89,14.44,27.45-3.87,50.28-19.91,43.48-40.02Z"/>
      <path class="cls-1" d="M662.65,308.45s-28.52,37.07-75.13,29.33"/>
    </g>
    <path class="cls-11" d="M678.66,1093.03s-.15,97.47,10.58,160.58c0,0,169.97-6.79,327.64-149.18,0,0-143.81,70.4-338.22-11.4Z"/>
    <line class="cls-2" x1="25.41" y1="931.65" x2="72.43" y2="908.26"/>
  </g>
</svg>