<?xml version="1.0" encoding="UTF-8"?>
<svg id="Layer_1" data-name="Layer 1" xmlns="http://www.w3.org/2000/svg" viewBox="0 0 1220 1220.11">
  <defs>
    <style>
      .cls-1, .cls-2 {
        stroke-width: 1.5px;
      }

      .cls-1, .cls-2, .cls-3, .cls-4, .cls-5, .cls-6, .cls-7, .cls-8, .cls-9, .cls-10, .cls-11, .cls-12, .cls-13, .cls-14 {
        stroke-miterlimit: 10;
      }

      .cls-1, .cls-2, .cls-3, .cls-8, .cls-9, .cls-10, .cls-11, .cls-12, .cls-13, .cls-14 {
        fill: none;
      }

      .cls-1, .cls-3, .cls-7 {
        stroke: #231f20;
      }

      .cls-2 {
        stroke: #a579b5;
      }

      .cls-3 {
        stroke-width: .8px;
      }

      .cls-15, .cls-4, .cls-5, .cls-6 {
        fill: #fff;
      }

      .cls-16 {
        fill: #fbb040;
      }

      .cls-17 {
        fill: #803435;
      }

      .cls-18 {
        fill: #8b5e3c;
      }

      .cls-19 {
        fill: #9054a2;
      }

      .cls-20 {
        fill: #bd9154;
      }

      .cls-21 {
        fill: #be9e7d;
      }

      .cls-22 {
        fill: #be8c8c;
      }

      .cls-23 {
        fill: #bf6b6b;
      }

      .cls-24 {
        fill: #c4e7f6;
      }

      .cls-25 {
        fill: #dcbf97;
      }

      .cls-26 {
        fill: #dc3b28;
      }

      .cls-27 {
        fill: #231f20;
      }

      .cls-28 {
        fill: #1fa8df;
      }

      .cls-29, .cls-7 {
        fill: #9c2024;
      }

      .cls-30 {
        fill: #517569;
      }

      .cls-31 {
        fill: #26130f;
      }

      .cls-4, .cls-14 {
        stroke: #fff;
        stroke-width: .5px;
      }

      .cls-5 {
        stroke: #414042;
      }

      .cls-6, .cls-11 {
        stroke: #662d91;
      }

      .cls-8 {
        stroke: #dc3b28;
      }

      .cls-8, .cls-9 {
        stroke-width: 2px;
      }

      .cls-9 {
        stroke: #fbb040;
      }

      .cls-10 {
        stroke: #75308e;
        stroke-width: 4px;
      }

      .cls-12 {
        stroke: #603913;
      }

      .cls-13 {
        stroke: #754c29;
      }
    </style>
  </defs>
  <circle class="cls-24" cx="610" cy="610" r="610"/>
  <path class="cls-20" d="M1161.55,870.93c-36.3,81.82-101.86,150.55-101.86,150.55H159.58s-48.17-44.67-100.81-150.63l1102.79,.08"/>
  <g>
    <path class="cls-25" d="M173.94,424.43s13.22,67.9-25.2,78.42c0,0,8.31,99.44,100.18,102.31,0,0,87.02-6.17,45.47-94.92l-23.62-12.66c-.38-16.94,1.95-19.63,1.95-19.63l-98.79-53.53"/>
    <path class="cls-25" d="M315.93,312.95s6.98,17.05,1.94,55.42c0,0-1.55,14.34,1.55,22.87,0,0,1.55,31.78-11.24,54.65-12.79,22.87-36.04,35.66-36.04,35.66,0,0-22.48,6.59-39.92-1.94-17.44-8.53-42.63-13.57-58.91-58.14,0,0-13.57,10.85-21.7-10.85-8.14-21.7-18.6-29.46-8.91-47.28,9.69-17.83,27.91,19.38,27.91,19.38,0,0-14.34-35.27-1.94-69.38,12.4-34.11,57.75-55.81,57.75-55.81,0,0,64.34-15.89,89.53,55.42Z"/>
    <path class="cls-27" d="M267.44,278.51s-24.4,37.71-86.52,53.24c0,0-13.87,36.6-9.98,57.68,0,0-15.78-34.91-28-23.23s9.85,44.46,9.85,44.46c0,0,6.75,19.7,20.51,10.81,0,0,16.5,60.58-7.91,75.55-24.4,14.97-61.99,24.57-61.99,24.57,0,0-19.72-114.27,5.85-202.81,27.55-95.38,112.15-94.63,151.53-85.2,0,0,56.55,3.37,68.22,64.34,0,0,3.88,27.18-2.22,52.13-6.1,24.96-2.89,175.53-2.89,175.53l-53.13-28,.38-15.87s50.19-21.94,48.26-90.47c0,0-4.9-13.87-.88-33.82,1.83-9.06-1.29-41.38-1.29-41.38,0,0-36.59-20.54-49.81-37.53Z"/>
    <path class="cls-27" d="M248.57,351.23s-24.27-5.5-45.43,1.89c0,0,10.3-13.33,46.02-7.71,0,0,5.93,3.62-.58,5.82Z"/>
    <path class="cls-27" d="M322.63,351.24c-17.43-1.6-29.54,1.6-29.54,1.6-6.6-1.93-.81-5.79-.81-5.79,11.05-2.2,23.67-1.74,30.35-1.05,0,0,.95,5.32,0,5.23Z"/>
    <circle class="cls-27" cx="231.2" cy="369.45" r="7.35"/>
    <path class="cls-22" d="M241.88,431.47s12.55-4.87,28.15-1.6c0,0,13.03-3.57,25.1-1.77,0,0,.18,21.42-19.49,27.55-19.67,6.13-33.26-11.69-33.76-24.18Z"/>
    <path class="cls-17" d="M245.2,432.75s1.14,18.89,25.67,17.16c22.28-1.57,21.28-18.38,21.28-18.38,0,0-25.02,2.9-46.95,1.22Z"/>
    <path class="cls-15" d="M248.26,432.81s6.7,8.31,25.62,6.06c0,0,11.75-.24,16.22-6.81,0,0-24.43,2.25-41.84,.75Z"/>
    <path class="cls-1" d="M282.54,392.96s14.9,11.96-.65,19.57"/>
    <path class="cls-31" d="M271.16,481.72s-19.01,6.43-38.94-2.1c0,0-18.03-6.05-36.71-20.83,0,0,12.9,17.05,46.57,26.64,0,0,14.12,3.8,29.3,.54,0,0,1.39-1.82-.21-4.25Z"/>
    <path class="cls-19" d="M48.36,669.54s5.53-122.77,55.05-147.94c57.32-29.13,54.91-24.57,54.91-24.57,0,0,35.25,71.18,101.66,69.56,0,0,61.61-.47,11.46-69l60.1,32.21s25.38,23.49,26.84,61.79l9.12,79.01-21.97,11.86-18.55,114.26,8.82,77.81s-75.13,3.21-248.86-3.37l.47-1.5c32.18-117.31,47.15-167.36,55.65-181.06,0,0-37.82,12.55-94.7-19.06Z"/>
    <path class="cls-1" d="M143.46,383.15s6.42-9.73,13.63,.19c7.2,9.93,7.59,13.24,7.59,13.24,0,0-10.32-15.77-14.41-3.12"/>
    <path class="cls-2" d="M274.2,357.41s-10.04-6-16.71,2.28"/>
    <path class="cls-2" d="M199.66,360.35s26.67-15.25,58.34-.36c0,0-2.6,28.96-20.52,29.4-17.92,.45-30.86,7.72-37.82-29.04Z"/>
    <path class="cls-2" d="M274.11,356.86s26.67-15.25,58.34-.36c0,0-2.6,28.96-20.52,29.4-17.92,.45-30.86,7.72-37.82-29.04Z"/>
    <line class="cls-2" x1="199.66" y1="360.35" x2="151.92" y2="365.03"/>
    <path class="cls-10" d="M158.32,497.03s39.84,75.26,101.66,69.56c0,0,60.44-2.48,11.46-69"/>
    <g>
      <path class="cls-15" d="M216.23,369.27s-.03-.73,.48-1.36c1.72-2.08,5.71-5.99,12.2-6.24,7.27-.27,11.53,6.41,12.99,8.8,.25,.41,.24,.78,.24,.78,0,0,.04,.4-.19,.7-1.11,1.39-4.84,5.29-11.72,5.66-4.09,.22-9.93-1.77-13.7-7.2-.26-.38-.3-.87-.3-1.14Z"/>
      <circle class="cls-31" cx="231.27" cy="370" r="7.52"/>
      <circle class="cls-15" cx="226.47" cy="368.65" r="2.06"/>
      <path class="cls-3" d="M242.34,370.47s-9.49-17.03-25.92-2.6"/>
    </g>
    <g>
      <path class="cls-15" d="M290.89,369.31s-.13-.66,.25-1.31c1.28-2.15,4.39-6.3,10.31-7.44,6.63-1.27,11.48,4.25,13.15,6.23,.29,.34,.33,.68,.33,.68,0,0,.09,.36-.08,.67-.82,1.43-3.69,5.54-9.95,6.84-3.72,.78-9.36-.23-13.58-4.67-.29-.31-.4-.76-.43-1Z"/>
      <circle class="cls-31" cx="304.8" cy="367.84" r="6.95"/>
      <circle class="cls-15" cx="300" cy="367.43" r="1.95"/>
      <path class="cls-3" d="M314.76,366.99s-10.78-15.31-23.77,1.31"/>
    </g>
    <g>
      <path class="cls-28" d="M211.6,701.76s-63.76-48.65-22.2-83.12c41.56-34.48,53.84-1.42,53.84-1.42,0,0,21.25,23.61,.94,86.43,0,0-4.25,23.14-41.56,45.34-37.31,22.2-65.17-4.25-60.45-18.89,4.72-14.64,16.53-31.64,69.43-28.34Z"/>
      <path class="cls-14" d="M223.22,769.61s1.93-77.02,80.87-147.29"/>
      <path class="cls-14" d="M238.14,712.81s19.74-36.58,81.83-61.13"/>
      <path class="cls-4" d="M300.81,623.98s9.69-16.46,15.38-9.54c5.69,6.92-1.38,12-15.38,9.54Z"/>
      <path class="cls-4" d="M313.47,654.55s8.01-7.41,9.99-2.69-2.73,6.34-9.99,2.69Z"/>
    </g>
    <polygon class="cls-25" points="364.77 671.72 371.9 720.31 410.68 874.08 335.8 874.53 321.09 812.13 339.36 680.19 364.77 671.72"/>
    <path class="cls-16" d="M302.37,788.06l97.62,74.44,12.48,2.23-5.35-8.91-98.95-72.21s-8.02-3.57-5.79,4.46Z"/>
    <path class="cls-25" d="M50.25,670.75l-3.71,129.36s-1.86,61.88,50.12,69.93l216.49-2.35,18.39,5.52,48.83,.79s9.28-1.11,5.94-10.4c0,0,14.11-11.14-.37-18.94,0,0,12.63,2.97,15.6-7.8,2.97-10.77-7.06-9.28-7.06-9.28,0,0,7.8-4.46,.37-12.25l-34.91-5.57-48.65,21.17-173.79-43.82,5.55-98.5s-49.72,4.69-92.8-17.85Z"/>
    <path class="cls-12" d="M137.51,787.1s-24.57-.82-32.6,13.44"/>
    <path class="cls-13" d="M323.97,825.3l35.97-15.55,34.91,5.57s7.65,6.19-.37,12.25c0,0,9.82-2.02,7.06,9.28-2.77,11.31-15.6,7.8-15.6,7.8,0,0,14.34,5.72,.37,18.94,0,0,3.5,7.77-5.94,10.4"/>
  </g>
  <g>
    <path class="cls-21" d="M791.24,608.38s-12.39,105.67-8.75,142.84c0,0-113.69-25.51-213.53-27.69,0,0-8.73-37.45-63.39-35.99,0,0-32.62-23.04-42.2-12.35-12.04,13.43,42.92,33.04,42.92,33.04,0,0-115.87,32.07-113.69,43.73s18.22,2.92,18.22,2.92c0,0,30.61,8.75,42.27,4.37,0,0,37.9,27.69,91.82,8.02,0,0,182.92,77.98,249.24,91.1,0,0,84.54,25.51,102.03-66.32l8.61-150.2"/>
    <path class="cls-21" d="M1005.58,329.04s-5.08,76.6,42.23,79.83c0,0,8.16,160.06-116.65,178.11,0,0-96.22-14.62-53.23-142.01,0,0,8.88-8.47,8.64-24.24"/>
    <path class="cls-21" d="M991.7,288.51s-17.14-116.23-122.37-113.53c0,0-74.38,8.08-58.54,112.64,0,0,5.88,16.42,3.99,25.66,0,0-3.36,23.62,10.17,44.08,20.25,30.63,39.09,52.13,39.09,52.13,0,0,11.76,14.4,37.78,11.96,0,0,18.2-2.46,39.86-19.83,0,0,55.93-32.94,49.27-67.15,0,0,27.5,14.38,34.64-27.69,0,0,4-57.61-33.87-18.29Z"/>
    <path class="cls-31" d="M892.12,262.91s34.04-15.44,51.76-5.84c0,0-14.41-17.03-53.68-2.5,0,0-6.46,6.27,1.92,8.34Z"/>
    <path class="cls-31" d="M806.01,263.92c.64-1.93,18.69-3.72,35.51-1.52,0,0,7.69,4.68-.02,8.56,0,0-30.73-8.24-34.72,1.8,0,0-2.35-4.07-.77-8.83Z"/>
    <path class="cls-1" d="M857.6,316.42s-12.05,23.16,13.48,22.86"/>
    <path class="cls-1" d="M1020.81,295.64s-11.87-23.2-26.08,17.88c0,0,13.86-18.99,18.33-4.56"/>
    <path class="cls-31" d="M886.57,420.73s8.86,6.5,35.62-6.42c0,0,23.44-10.9,41.56-29.18,0,0-22.12,30.91-55.85,38.99,0,0-8.81,3.75-22.25,.59,0,0,1.95-.44,.92-3.98Z"/>
    <path class="cls-23" d="M924.09,351.27s-17.69-3.35-37.4,4.73c0,0-17.99-1.53-33.43,3.77,0,0,4.97,28.21,32.32,31.48,27.36,3.28,40.89-23.45,38.51-39.99Z"/>
    <path class="cls-17" d="M920.04,353.76s3.09,25.11-29.59,28.8c-29.68,3.35-32.44-19-32.44-19,0,0,33.6-2.27,62.03-9.8Z"/>
    <path class="cls-15" d="M916.03,354.58s-6.78,12.56-32.21,14.19c0,0-15.51,2.55-22.98-5.01,0,0,32.67-2.97,55.2-9.18Z"/>
    <g>
      <path class="cls-15" d="M931.84,280.37s-.05-.77-.67-1.37c-2.06-1.99-6.73-5.64-13.6-5.12-7.69,.58-11.39,8.13-12.64,10.81-.22,.46-.16,.85-.16,.85,0,0,0,.43,.29,.71,1.34,1.33,5.73,5,13.02,4.57,4.34-.26,10.25-3.05,13.58-9.22,.23-.43,.21-.95,.18-1.23Z"/>
      <circle class="cls-31" cx="916.07" cy="282.93" r="7.98"/>
      <circle class="cls-15" cx="920.97" cy="280.93" r="2.19"/>
      <path class="cls-1" d="M904.46,284.74s7.98-19.07,27-5.83"/>
    </g>
    <g>
      <path class="cls-15" d="M842.68,293.64s.06-.73-.43-1.37c-1.63-2.14-5.45-6.2-11.91-6.71-7.24-.56-11.75,5.93-13.3,8.25-.27,.4-.27,.77-.27,.77,0,0-.06,.4,.17,.7,1.05,1.43,4.61,5.47,11.46,6.11,4.07,.38,9.97-1.37,13.95-6.63,.28-.37,.33-.86,.34-1.12Z"/>
      <circle class="cls-31" cx="827.65" cy="293.75" r="7.48"/>
      <circle class="cls-15" cx="832.72" cy="292.74" r="2.09"/>
      <path class="cls-1" d="M816.9,294.05s9.68-17.67,25.56-1.47"/>
    </g>
    <path class="cls-15" d="M1161.55,870.93l-313.34-.45s25.62-60.08,3.04-135.89c0,0-29.82-30.19-37.51-88.19l-27.59-43.98,5.88-82.97s.79-34.6,59.45-65.33c0,0,11.76-5.88,27.44-9.8,0,0,.04,26.02,9.24,50.02,0,0,70.46,48.7,147.39-9.13,0,0,6.8-9.16,12.3-79.88,0,0,36.61,11.19,81.69,28.74,71.85,27.99,66.56,136.15,66.56,136.15,0,0-5.88,10.05-52.5,53.93l46.66,174.03s-12.05,38.72-28.69,72.74Z"/>
    <path class="cls-8" d="M1060.82,410.8s1.93,45.79-9.95,83.73c0,0-88.37,67.63-169.83,12.68,0,0-13.51-28.38-8.68-59.77"/>
    <path class="cls-8" d="M852.97,735.79s129.69,43.9,259.3-46.13c0,0,19.35-18.95,32.61-36.62"/>
    <g>
      <circle class="cls-26" cx="926.44" cy="600.08" r="9.38"/>
      <circle class="cls-26" cx="935.88" cy="615.89" r="9.38"/>
      <circle class="cls-26" cx="936.85" cy="633.36" r="9.38"/>
      <circle class="cls-26" cx="920.6" cy="619.85" r="9.38"/>
      <circle class="cls-26" cx="954.22" cy="621.04" r="9.38"/>
      <circle class="cls-26" cx="946.27" cy="602.84" r="9.38"/>
    </g>
    <g>
      <circle class="cls-26" cx="868.96" cy="593.91" r="9.38"/>
      <circle class="cls-26" cx="878.4" cy="609.72" r="9.38"/>
      <circle class="cls-26" cx="879.36" cy="627.2" r="9.38"/>
      <circle class="cls-26" cx="863.11" cy="613.68" r="9.38"/>
      <circle class="cls-26" cx="896.73" cy="614.88" r="9.38"/>
      <circle class="cls-26" cx="888.79" cy="596.67" r="9.38"/>
    </g>
    <g>
      <circle class="cls-26" cx="983.77" cy="593.58" r="9.38"/>
      <circle class="cls-26" cx="993.21" cy="609.39" r="9.38"/>
      <circle class="cls-26" cx="994.17" cy="626.87" r="9.38"/>
      <circle class="cls-26" cx="977.92" cy="613.35" r="9.38"/>
      <circle class="cls-26" cx="1011.54" cy="614.54" r="9.38"/>
      <circle class="cls-26" cx="1003.6" cy="596.34" r="9.38"/>
    </g>
    <g>
      <circle class="cls-26" cx="1032.75" cy="571.56" r="9.38"/>
      <circle class="cls-26" cx="1042.19" cy="587.37" r="9.38"/>
      <circle class="cls-26" cx="1043.15" cy="604.85" r="9.38"/>
      <circle class="cls-26" cx="1026.9" cy="591.33" r="9.38"/>
      <circle class="cls-26" cx="1060.52" cy="592.53" r="9.38"/>
      <circle class="cls-26" cx="1052.58" cy="574.32" r="9.38"/>
    </g>
    <g>
      <circle class="cls-26" cx="829.14" cy="572.27" r="7.01"/>
      <circle class="cls-26" cx="838.8" cy="582.08" r="7.01"/>
      <circle class="cls-26" cx="842.6" cy="594.61" r="7.01"/>
      <circle class="cls-26" cx="828.4" cy="587.68" r="7.01"/>
      <circle class="cls-26" cx="853.03" cy="582.57" r="7.01"/>
      <circle class="cls-26" cx="844.03" cy="570.76" r="7.01"/>
    </g>
    <g>
      <circle class="cls-30" cx="1038.67" cy="535.39" r="5.04"/>
      <circle class="cls-30" cx="1039.17" cy="545.27" r="5.04"/>
      <circle class="cls-30" cx="1035.23" cy="553.81" r="5.04"/>
      <circle class="cls-30" cx="1030.92" cy="543.3" r="5.04"/>
      <circle class="cls-30" cx="1046.58" cy="552.34" r="5.04"/>
      <circle class="cls-30" cx="1047.39" cy="541.69" r="5.04"/>
    </g>
    <g>
      <circle class="cls-30" cx="1010.11" cy="560.73" r="5.04"/>
      <circle class="cls-30" cx="1010.61" cy="570.62" r="5.04"/>
      <circle class="cls-30" cx="1006.66" cy="579.16" r="5.04"/>
      <circle class="cls-30" cx="1002.35" cy="568.65" r="5.04"/>
      <circle class="cls-30" cx="1018.01" cy="577.68" r="5.04"/>
      <circle class="cls-30" cx="1018.83" cy="567.04" r="5.04"/>
    </g>
    <g>
      <circle class="cls-30" cx="1030.52" cy="623.07" r="5.04"/>
      <circle class="cls-30" cx="1031.02" cy="632.96" r="5.04"/>
      <circle class="cls-30" cx="1027.08" cy="641.5" r="5.04"/>
      <circle class="cls-30" cx="1022.77" cy="630.99" r="5.04"/>
      <circle class="cls-30" cx="1038.43" cy="640.02" r="5.04"/>
      <circle class="cls-30" cx="1039.24" cy="629.38" r="5.04"/>
    </g>
    <g>
      <circle class="cls-30" cx="968.82" cy="637.47" r="5.04"/>
      <circle class="cls-30" cx="969.32" cy="647.35" r="5.04"/>
      <circle class="cls-30" cx="965.37" cy="655.9" r="5.04"/>
      <circle class="cls-30" cx="961.06" cy="645.39" r="5.04"/>
      <circle class="cls-30" cx="976.72" cy="654.42" r="5.04"/>
      <circle class="cls-30" cx="977.54" cy="643.78" r="5.04"/>
    </g>
    <g>
      <circle class="cls-30" cx="907.88" cy="640.2" r="5.04"/>
      <circle class="cls-30" cx="908.38" cy="650.08" r="5.04"/>
      <circle class="cls-30" cx="904.43" cy="658.62" r="5.04"/>
      <circle class="cls-30" cx="900.12" cy="648.11" r="5.04"/>
      <circle class="cls-30" cx="915.79" cy="657.15" r="5.04"/>
      <circle class="cls-30" cx="916.6" cy="646.5" r="5.04"/>
    </g>
    <g>
      <circle class="cls-30" cx="839.39" cy="621.98" r="5.04"/>
      <circle class="cls-30" cx="839.89" cy="631.86" r="5.04"/>
      <circle class="cls-30" cx="835.94" cy="640.4" r="5.04"/>
      <circle class="cls-30" cx="831.63" cy="629.89" r="5.04"/>
      <circle class="cls-30" cx="847.29" cy="638.93" r="5.04"/>
      <circle class="cls-30" cx="848.11" cy="628.28" r="5.04"/>
    </g>
    <g>
      <circle class="cls-30" cx="963.63" cy="573.48" r="5.04"/>
      <circle class="cls-30" cx="960.64" cy="582.91" r="5.04"/>
      <circle class="cls-30" cx="953.96" cy="589.53" r="5.04"/>
      <circle class="cls-30" cx="953.6" cy="578.18" r="5.04"/>
      <circle class="cls-30" cx="965.11" cy="592.12" r="5.04"/>
      <circle class="cls-30" cx="969.6" cy="582.44" r="5.04"/>
    </g>
    <g>
      <circle class="cls-30" cx="905.26" cy="572.89" r="5.04"/>
      <circle class="cls-30" cx="908.56" cy="582.21" r="5.04"/>
      <circle class="cls-30" cx="907.22" cy="591.53" r="5.04"/>
      <circle class="cls-30" cx="900.09" cy="582.69" r="5.04"/>
      <circle class="cls-30" cx="917.68" cy="586.87" r="5.04"/>
      <circle class="cls-30" cx="915.42" cy="576.44" r="5.04"/>
    </g>
    <g>
      <circle class="cls-30" cx="868.57" cy="559.12" r="5.04"/>
      <circle class="cls-30" cx="869.97" cy="568.92" r="5.04"/>
      <circle class="cls-30" cx="866.82" cy="577.79" r="5.04"/>
      <circle class="cls-30" cx="861.57" cy="567.71" r="5.04"/>
      <circle class="cls-30" cx="877.99" cy="575.28" r="5.04"/>
      <circle class="cls-30" cx="877.83" cy="564.61" r="5.04"/>
    </g>
    <path class="cls-31" d="M849.72,191.7s79.36,115.46,174.8,106.38c0,0-6.32,42.19-35.58,36.35,0,0,4.2,62.01,42.35,74.82,0,0,25.18,7.97,54.96-17.28,34.6-29.32,37.26-71.96,6.3-114.41,0,0-50.68-38.67-85.24-100.75,0,0-72.13-86.97-159.36-26.83,0,0-57.23-3.38-73.46,46.56-9.39,28.88,5.73,90.61,12.15,131.2,0,0-1.77,104.43,96.27,110.81,0,0,5.16-5.64,5.56-17.52,0,0-19.09-1.24-31.85-20.87-12.75-19.63-18.96-23.19-31.68-42.77,0,0-13.66-19.48-9.79-47.37,0,0,.74-14.53-4.37-22.37,0,0-12.84-59.05,38.93-95.93"/>
    <path class="cls-9" d="M998.45,325.55s9.53,11.42,1.74,19.96c-7.79,8.54-5.37-10.4-5.37-10.4"/>
    <path class="cls-21" d="M1191.42,577.21s2.37,177.65-3.39,217.93c-5.95,41.65-25.89,49.63-75.52,63.79-53.11,15.15-233.4,28.97-233.4,28.97,0,0-44.71,15.22-77.49,5.94,0,0,2.06,16.96-7.45,18.31,0,0-4.94,.36-14.26-13.87,0,0-8.15,8.71-16.17-12.74,0,0-10.43,9.21-16.32-7.92l-1.73-10.15s-10.56,9.72-14.72,4.88c-4.16-4.83,4.89-17.09,4.89-17.09,0,0,7.19-21.9,19.23-22.61,12.04-.71,40.98-10.61,40.98-10.61l82.7,15.1s93.09-43.61,194.92-88.5c0,0-2.17-50.61-.4-88.15,0,0,68.51-35.1,118.14-83.29Z"/>
    <path class="cls-12" d="M860.04,833.53l-63.98-11.48-40.98,10.61s-8.28,.88-14.11,10.51c-5.83,9.63-10.9,22.06-10.9,22.06,0,0-3.75,17.17,15.62,2.25,0,0-.15,20.82,11.51,20.32,0,0,4.21-.69,6.54-2.25,0,0,7.7,22.22,16.17,12.74,0,0-8.87-17.76-1.29-24.26s18.96-5.42,18.96-5.42"/>
    <path class="cls-12" d="M745.69,867.47s4.37-20.05,10.48-24.49,17.76-8.88,17.76-8.88"/>
    <path class="cls-12" d="M763.74,885.54s-2.02-25.35,14.63-34.24"/>
    <path class="cls-12" d="M518.11,731.92s-5.4-20.25,6.75-31.06"/>
    <path class="cls-12" d="M453.09,759.23s-11.68-2.73-5.01-11.3c6.67-8.57,28.8,2.38,28.8,2.38,0,0,14.04,8.09,27.14,4.52"/>
    <path class="cls-12" d="M410.82,754.86s-8.21-5.26,.83-10.97,16.29-.33,16.29-.33"/>
    <path class="cls-12" d="M433.55,759.36s-13.57-3.57-9.05-12.14,16.19-6.43,16.19-6.43c0,0,13.09,1.67,21.66-.71"/>
    <path class="cls-12" d="M779.91,898.28s6.94,12.57,14.26,13.87c7.33,1.3,7.45-18.31,7.45-18.31,0,0,28.56,9.87,77.49-5.94,0,0,27.76-2.02,44.5-3.99,0,0,85.46-5.46,122-12.66"/>
  </g>
  <polygon class="cls-15" points="243.46 874.86 292.76 901.8 463.51 901.29 413.71 874.35 243.46 874.86"/>
  <path class="cls-5" d="M813.74,637.4s-6.09-41.76,1.04-63.94"/>
  <line class="cls-6" x1="143.06" y1="688.6" x2="147.72" y2="627.27"/>
  <path class="cls-11" d="M339.36,680.19s3.45-40.68-3.75-60.12"/>
  <line class="cls-5" x1="1073.28" y1="651.49" x2="1073.28" y2="598.63"/>
  <g>
    <rect class="cls-29" x="207.12" y="912.7" width="205.97" height="25.02"/>
    <polygon class="cls-29" points="117.76 889.92 207.12 912.7 413.09 912.7 316.14 888.13 117.76 889.92"/>
    <polygon class="cls-29" points="123.1 906.78 207.06 932.93 207.12 937.72 123.1 910.56 123.1 906.78"/>
    <polygon class="cls-15" points="123.1 891.6 207.12 912.7 207.12 934.37 123.1 907.2 123.1 891.6"/>
    <line class="cls-7" x1="207.12" y1="912.7" x2="413.09" y2="912.7"/>
    <polygon class="cls-7" points="231 893.07 280.87 893.07 322.56 906.15 269.84 906.15 231 893.07"/>
  </g>
  <path class="cls-18" d="M159.58,1021.48h900.12s-81.44,100.62-225.43,155.31c0,0-91.33,45.11-224.26,43.2,0,0-117.31,4.79-240.09-48.79,0,0-104.76-36.03-210.33-149.73Z"/>
</svg>