<?xml version="1.0" encoding="UTF-8"?>
<svg id="Layer_1" data-name="Layer 1" xmlns="http://www.w3.org/2000/svg" viewBox="0 0 1220 1259.59">
  <defs>
    <style>
      .cls-1 {
        stroke-width: 1.5px;
      }

      .cls-1, .cls-2 {
        stroke: #231f20;
      }

      .cls-1, .cls-2, .cls-3, .cls-4 {
        fill: none;
        stroke-miterlimit: 10;
      }

      .cls-5 {
        fill: #f05380;
      }

      .cls-6 {
        fill: #fff;
      }

      .cls-7 {
        fill: #803435;
      }

      .cls-8 {
        fill: #c4e7f6;
      }

      .cls-9 {
        fill: #dcbf97;
      }

      .cls-10 {
        fill: #db7777;
      }

      .cls-11 {
        fill: #231f20;
      }

      .cls-12 {
        fill: #26130f;
      }

      .cls-2 {
        stroke-width: 2px;
      }

      .cls-3 {
        stroke: #603913;
      }

      .cls-4 {
        stroke: #be1e2d;
      }
    </style>
  </defs>
  <circle class="cls-8" cx="610" cy="649.2" r="610"/>
  <g>
    <path class="cls-9" d="M676.08,755.13l-13.08,228.25c-26.58,139.54-155.04,100.78-155.04,100.78-89.3-17.66-297.29-108.07-348.16-129.49l-5.81-3.31c-27.32,7.08-119.41-4.05-119.41-4.05-24.29-3.04-17.2-25.3-17.2-25.3-23.27-11.13-6.07-30.36-6.07-30.36-19.23-7.08-1.01-28.33-1.01-28.33-15.18-1.01-11.13-25.3,2.02-31.37,13.15-6.07,70.83-9.11,70.83-9.11,0,0-2.02-28.33,2.02-47.56,4.05-19.23,16.19-25.3,25.3-20.24s-1.01,41.49-1.01,41.49c10.12,13.15,14.17,41.49,14.17,41.49,16.19,7.08,43.51,40.48,43.51,40.48l4.72,.93c150.21,4.2,318.38,41.93,318.38,41.93-5.54-56.48,13.29-217.06,13.29-217.06"/>
    <path class="cls-9" d="M813.14,301.71s1.32,83.6,29.25,130.2c0,0,46.97,227.65-139.24,255.12,0,0-143.67-21.42-80.05-211.74,0,0,32.11-17.01,29.06-49.63-3.22-34.54-4.38,1.1-4.38,1.1l165.35-125.04"/>
    <path class="cls-9" d="M806.73,227.46s-39.2-170.92-195.47-154.49c0,0-130.13,26.1-71.32,181.95,0,0,8.18,16.3,6.46,30.28,0,0-11.88,23.16,16.72,69.91,28.61,46.75,64.88,70.35,64.88,70.35,0,0,22.23,17.12,60.66,10.43,0,0,31.02-1.95,61.2-30.35,0,0,75.1-59.46,61.16-109.58,0,0,42.61,18.15,48.27-45.28,0,0-.84-86.19-52.56-23.22Z"/>
    <path class="cls-10" d="M699.24,337.89s-40.36-5.51-54.89,10.64c0,0-12.51-8.75-41.55,8.78,0,0,14.5,43.57,51.83,36.81,53.28-9.64,44.61-56.23,44.61-56.23Z"/>
    <path class="cls-5" d="M842.39,431.91s46.27,6.44,118.38,10.13c157.68,8.06,153.1,216.66,153.1,216.66,0,0-62.13,75.56-158,90.93l117.84,301.49s-95.6,110.03-236.03,163.4c0,0-93.85,43.56-222.22,44.45,0,0-59.58-213.13-73.39-344.46,0,0-37.75-41.95-43.65-104.96l-24.35-42.87,1.53-130.33s3.7-87.66,91.13-133.78c0,0,33.37-10.78,56.38-27.29,0,0-5.48,96.17,8.35,131.96,0,0,70.91,62.41,185.5-24.24,0,0,37.24-61.08,25.44-151.1Z"/>
    <path class="cls-7" d="M692.89,344.17s.51,30.54-36.24,38.03c-36.76,7.49-46.37-21.65-46.37-21.65,0,0,58.95-17.56,82.61-16.38Z"/>
    <path class="cls-12" d="M654.52,198.6s50.68-23.33,77.21-9.16c0,0-21.65-25.3-80.15-3.26,0,0-9.58,9.42,2.94,12.43Z"/>
    <path class="cls-12" d="M527.47,214.96c.5-2.99,26.71-9.78,52.02-10.42,0,0,12.42,5.13,1.95,12.62,0,0-47.21-5.08-50.79,10.65,0,0-4.41-5.47-3.18-12.85Z"/>
    <path class="cls-2" d="M610.34,284.84s-15.34,36.21,22.96,32.72"/>
    <path class="cls-6" d="M683.57,344.46s-6.91,10.62-35.08,16.69c-25.95,5.59-35.16-1.61-35.16-1.61,0,0,37.4-12.33,70.24-15.08Z"/>
    <path class="cls-2" d="M849.69,240.26s-16.7-27.12-30.04,24.3c0,0,15.05-24.47,21.9-7.32"/>
    <path class="cls-12" d="M660.33,436.57s29.45,7.8,73.45-17.43c0,0,21.61-13.44,46.41-42.77,0,0-28.46,48.23-82.14,62.75,0,0-16.78,5.06-37.36,2.87,0,0,1.59-.28-.36-5.43Z"/>
    <path class="cls-11" d="M705.66,89.41s56.35,20.74,101.07,138.06c0,0,31.61-41.39,45.27-10.93,13.45,29.99-1.04,64.31-1.04,64.31,0,0-4.93,22.2-39.94,15.11,0,0-28.1,158.35,30.69,245.5,0,0,19.63,50.4-18.44,70.1,0,0,47.27,27.79,107.77-15.97,60.5-43.76,42.91-198.03,20.52-262.68-22.39-64.64-40.32-80.88-61.11-175.4-20.79-94.52-101.97-123.1-134.68-126.61,0,0-124.34-103.71-239.8,68.83,0,0-43.31,77.79,17.5,262.5,0,0,11.12,109.78,27.9,168.36,0,0,25.01,78.67,66.14,117.34,0,0,43.72,33.77,67.83,3.64,0,0-24.34-19.82-31.37-52.3-4.84-22.39-14.8-90.83-35.61-111.16,0,0,37.36-21.43,31.96-51.53,0,0-46.26-.26-99.14-85.23,0,0-22.79-32.69-14.79-66.14,0,0,2.54-16.9-6.46-30.28,0,0-7.92-18-10.77-39.85-2.86-21.86,4.54-49.94,4.54-49.94,0,0,56.17,2.32,171.95-75.72Z"/>
    <g>
      <path class="cls-6" d="M715.35,221.5s-.17-1.14-1.16-1.96c-3.29-2.71-10.67-7.59-20.84-6.01-11.38,1.77-15.99,13.43-17.53,17.58-.27,.71-.14,1.29-.14,1.29,0,0,.06,.64,.51,1.02,2.14,1.83,9.11,6.77,19.92,5.26,6.43-.9,14.9-5.75,19.12-15.32,.29-.67,.2-1.44,.12-1.85Z"/>
      <circle class="cls-12" cx="692.19" cy="227.16" r="11.91"/>
      <circle class="cls-6" cx="697.81" cy="220.21" r="3.27"/>
      <path class="cls-1" d="M675.13,231.23s9.62-29.32,39.49-11.85"/>
    </g>
    <g>
      <path class="cls-6" d="M584.26,251.76s0-1.09-.8-1.99c-2.67-2.99-8.84-8.59-18.52-8.57-10.84,.02-16.79,10.21-18.82,13.84-.35,.63-.32,1.18-.32,1.18,0,0-.04,.6,.33,1.03,1.73,2,7.51,7.6,17.77,7.74,6.11,.08,14.68-3.22,19.97-11.51,.37-.58,.39-1.31,.38-1.71Z"/>
      <circle class="cls-12" cx="561.9" cy="253.69" r="11.16"/>
      <circle class="cls-6" cx="567.18" cy="247.53" r="3.13"/>
      <path class="cls-1" d="M545.94,255.41s12.31-27.43,37.85-5.2"/>
    </g>
    <path class="cls-9" d="M955.86,749.62c-2.06,53.68,12.34,164.37,12.34,164.37-133.16,104.26-253.93,203.35-253.93,203.35l-127.45,8.74s-38.91,25.41-56.38,30.97-19.85,40.5-19.85,40.5c0,0-8.73,21.44-.79,27,7.94,5.56,19.85-12.7,19.85-12.7l6.35,14.29c15.09,23.03,27,5.56,27,5.56,19.85,28.59,28.59,12.7,28.59,12.7,19.06,17.47,26.2,15.09,26.2,15.09,13.5-5.56,4.11-29.76,4.11-29.76,51.75,1.4,111.9-37.77,111.9-37.77,0,0,265.76-79.73,332.89-130.08,67.14-50.35,64.17-78.76,65.74-142.67,2.08-84.25-19.38-260.03-19.38-260.03,0,0-56.43,71.83-157.18,90.45"/>
    <path class="cls-3" d="M529.65,1211.84s-10.42-34.42,4.58-41.93c15-7.5,28.51-12.75,28.51-12.75"/>
    <path class="cls-3" d="M563,1231.69s-13.76-31.77,1.99-43.77"/>
    <path class="cls-3" d="M592.26,1245.94s-13.76-31.77,1.99-43.77"/>
    <path class="cls-3" d="M10.29,863.33s44.2,13.41,71.01-.38c26.81-13.79,1.84-40.1,1.84-40.1"/>
    <path class="cls-3" d="M12.19,892.52s44.2,13.41,71.01-.38c26.81-13.79-1.9-29.19-1.9-29.19"/>
    <path class="cls-3" d="M17.27,921.07s44.2,13.41,71.01-.38c26.81-13.79-1.9-29.19-1.9-29.19"/>
    <path class="cls-3" d="M31,946.37s30.74,9.32,49.38-.27c18.65-9.59-1.32-20.3-1.32-20.3"/>
    <path class="cls-3" d="M96.87,895.97s15.47-7.4,24.88-1.35"/>
    <path class="cls-4" d="M939.39,637.26c.71,49.56,16.48,112.36,16.48,112.36"/>
    <path class="cls-4" d="M499.46,808.25s-14.38-51.08,4.09-124.94"/>
  </g>
</svg>