<?xml version="1.0" encoding="UTF-8"?>
<svg id="Layer_1" data-name="Layer 1" xmlns="http://www.w3.org/2000/svg" viewBox="0 0 1220 1259.77">
  <defs>
    <style>
      .cls-1, .cls-2 {
        stroke: #231f20;
      }

      .cls-1, .cls-2, .cls-3, .cls-4 {
        fill: none;
      }

      .cls-1, .cls-2, .cls-3, .cls-4, .cls-5 {
        stroke-miterlimit: 10;
      }

      .cls-1, .cls-5 {
        stroke-width: 1.5px;
      }

      .cls-6 {
        fill: #00979c;
      }

      .cls-7 {
        fill: #fff;
      }

      .cls-8 {
        fill: #803435;
      }

      .cls-9 {
        fill: #b19074;
      }

      .cls-10 {
        fill: #ae8578;
      }

      .cls-11 {
        fill: #d1d3d4;
      }

      .cls-12 {
        fill: #c4e7f6;
      }

      .cls-13, .cls-5 {
        fill: #dcbf97;
      }

      .cls-14 {
        fill: #077370;
      }

      .cls-15 {
        fill: #26130f;
      }

      .cls-2, .cls-3, .cls-4 {
        stroke-width: 2px;
      }

      .cls-3, .cls-5 {
        stroke: #603913;
      }

      .cls-4 {
        stroke: #2b3990;
      }
    </style>
  </defs>
  <circle class="cls-12" cx="610" cy="649.64" r="610"/>
  <g>
    <path class="cls-13" d="M333.04,294.2s1.62,50.12-23.94,99.11c0,0-6.39,178.89,129.91,192.73,0,0,87.87-56.18,74.11-151.08-1.53-10.58-15.09-21.85-19.11-33.36l-160.96-107.39Z"/>
    <path class="cls-7" d="M325.36,436.17s85.78,84.46,176.23,19.17l-67.95,199.13-108.29-218.3Z"/>
    <path class="cls-6" d="M396.4,1221.29c25.46,1.92,23.94,1.82,56.81,2.26,0,0,146.2-6.99,193.6-64.83,3.06-3.74,42.44-169.63,2.54-299.3-5.01-16.29,53.8,53.95,71.07,56.11,39.9,4.99,221.95,67.33,243.14,39.9,33.62-43.51,29.93-102.24,29.93-102.24-94.76-39.9-199.5-96.01-199.5-96.01l-96.46-156.24s-20.44-66.25-77.3-117.32c0,0-58.07-47.84-97.47-64.6l-22.06,46.07-25.71,16.84-47.87,142.73-68.52-141s-36.63-34.48-70.26-86c0,0-144.23,50.08-198.96,108.38,0,0-34.43,27.88-42.75,88.56,0,0-19.24,63.2-32.33,186.94,0,0,33.82,165.62,143.28,277.13,0,0,99.92,114.26,238.83,162.61"/>
    <path class="cls-14" d="M321.45,365.43s-31.09-4.46-37.19,15.9c-3.92,13.07-38.8,32.95-38.8,32.95,0,0,2.64,48.63,47.96,86.1,0,0,32.07-28.46,65.18-16.7,0,0-66.34-72.06-37.15-118.25Z"/>
    <path class="cls-14" d="M498.21,417.14s36.47,17.49-23.21,64.8c0,0,37.97,3.43,54.97,22.16,0,0,19.5-48.76,7.49-78.07,0,0-15.31-12.95-39.24-8.9Z"/>
    <path class="cls-4" d="M648.88,856.36s-2.41-125.29-25.62-156.23"/>
    <path class="cls-4" d="M154.45,884.47s16.91,104.17,23.51,194.23"/>
    <path class="cls-4" d="M453.21,1223.55c30.58-212.66-5.75-442.05-14.9-465.57-9.15-23.52-11.19-133.31-11.19-133.31,0,0,30.39-94.4,47.87-142.73"/>
    <line class="cls-4" x1="358.6" y1="483.67" x2="427.12" y2="624.67"/>
    <path class="cls-13" d="M992.01,862.61l11.54,5.13,52.59-21.8,60.28-2.57,11.54,2.57,87.22,12.83s14.11,12.83-10.26,15.39c-24.37,2.57-32.07,5.13-32.07,5.13l44.89,6.41s8.98,17.96-17.96,16.67c-26.93-1.28-84.65-1.28-84.65-1.28l70.54,7.7s16.67,14.11-8.98,17.96c-25.65,3.85-75.67,0-75.67,0l-1.28,10.26,42.33,14.11s11.54,16.67-8.98,16.67-48.74-12.83-48.74-12.83h-80.8l-32.07-10.26"/>
    <path class="cls-5" d="M1116.42,843.37l41.47,26.77s-2.75,18.01-29.77,13.36c-20.27-3.49-21.26-9.72-21.26-9.72h-17.62s-9.72,29.77-38.88,34.02"/>
    <path class="cls-13" d="M578.59,86.36s25.55,40.6,13.78,134.63c0,0-5.07,22.47-3.24,34.83,1.82,12.36-3.4,31.73-4.44,45.58-5.91,78.34-43.65,98.79-43.65,98.79,0,0-12.37,24.86-56.96,23.08-44.59-1.77-87.41-18.51-102.5-38.11-15.09-19.6-47.89-53.53-50.41-82.6,0,0-26.76,4.69-35.95-27.68,0,0-26.31-50.93,3.12-62.36,29.43-11.44,44.09,29.23,44.09,29.23,0,0-38.8-118.2,29.27-160.52,0,0,94.99-64.3,206.9,5.13Z"/>
    <path class="cls-10" d="M456.19,319.79s22.92-4.37,48.48,6.07c0,0,23.32-2.02,43.34,4.83,0,0-6.39,36.57-41.84,40.86-35.45,4.29-53.03-30.33-49.98-51.76Z"/>
    <path class="cls-8" d="M461.44,323.02s-3.96,32.55,38.4,37.27c38.47,4.29,42.01-24.68,42.01-24.68,0,0-43.56-2.88-80.41-12.6Z"/>
    <path class="cls-11" d="M483.52,191.64s-35.85-15.16-69.94-5.26c0,0,18.83-23.27,72.17-5.65,0,0,8.24,8.02-2.23,10.91Z"/>
    <path class="cls-11" d="M596.7,200.17c-26.19-6.91-40.01-.37-40.01-.37-9.58-5.13,.23-11.14,.23-11.14,17.42-1.69,30.7-.25,40.73,2.53,0,0,.49,9.35-.94,8.97Z"/>
    <path class="cls-7" d="M466.64,324.07s8.91,13.19,41.87,15.27c0,0,20.01,6.34,29.68-3.47,0,0-42.35-3.79-71.55-11.8Z"/>
    <path class="cls-2" d="M295.57,233.59s12.57-15.09,22.77,2.87c10.2,17.96,10.24,23.58,10.24,23.58,0,0-14.33-28.32-23.53-7.9"/>
    <path class="cls-11" d="M288.17,217.16s23.01-17.97,37.7,5.14c14.69,23.11,11.26,32.99,11.26,32.99l14.85,.72s-43.5-80.93,8.03-109.06c0,0-7.27-59.46,37.92-65.14,45.19-5.69,69.55-48.43,186.12,13.88,0,0,15.1-66.13-104.35-91.58,0,0-80.71-18.15-107.11,21.85,0,0-54.48,1.88-74.02,72.52-19.55,70.63-10.4,118.69-10.4,118.69Z"/>
    <path class="cls-15" d="M504.16,422.28s-56.21,7.46-89.45-14.02c0,0-24.12-7.56-46.82-38.71,0,0,28.41,46.31,75.68,55.29,.24,.04,.44,.06,.68,.11,2.18,.39,29.16,5.05,48.11,1.11,0,0,12.79-2.58,11.81-3.79Z"/>
    <path class="cls-1" d="M455.47,129.8s34.49,7.57,50.61,13.08c16.12,5.52,65.31-2.01,65.31-2.01"/>
    <path class="cls-11" d="M488.75,297.04s-24.27,14.46-42.95,15.81c0,0,2.51,7.44,10.4,6.95,0,0,31.71-3.44,48.48,6.07,0,0,23.03-2.79,43.34,4.83,0,0,2.24,1.86,6.92,1.39,0,0-20.13-18.11-18.53-26.53,0,0-19.34,7.43-31.89-7.52,0,0-5.89,2.22-15.77-.98Z"/>
    <path class="cls-2" d="M524.34,235.35l16.06,48.02s6.21,26.18-14.69,24.48c-17.33-1.41-17.83-6.91-17.83-6.91"/>
    <path class="cls-1" d="M436.67,324.99s-1.43-19.86,10.66-23.62c12.09-3.76,19.71-26.26,19.71-26.26"/>
    <circle class="cls-3" cx="461.84" cy="214.95" r="38.65"/>
    <circle class="cls-3" cx="583.87" cy="229.6" r="38.65"/>
    <path class="cls-3" d="M545.46,225.32s-17.75-23.97-45.21-6.08"/>
    <line class="cls-3" x1="423.43" y1="210.67" x2="313.61" y2="206.56"/>
    <g>
      <path class="cls-7" d="M436.11,212.46s.07-1.02,.89-1.82c2.72-2.63,8.9-7.48,18-6.8,10.19,.75,15.1,10.74,16.76,14.3,.29,.61,.22,1.13,.22,1.13,0,0,0,.57-.38,.94-1.77,1.77-7.58,6.64-17.24,6.07-5.75-.34-13.59-4.02-18.01-12.19-.31-.57-.28-1.26-.24-1.63Z"/>
      <circle class="cls-15" cx="457" cy="215.82" r="10.57"/>
      <circle class="cls-7" cx="452.22" cy="209.37" r="2.9"/>
      <path class="cls-1" d="M472.38,218.2s-10.6-25.24-35.77-7.67"/>
    </g>
    <g>
      <path class="cls-7" d="M554.2,230.08s-.08-.96,.57-1.82c2.15-2.84,7.21-8.23,15.77-8.9,9.59-.76,15.58,7.83,17.63,10.9,.35,.53,.36,1.02,.36,1.02,0,0,.08,.53-.22,.93-1.39,1.9-6.1,7.26-15.16,8.11-5.39,.51-13.21-1.8-18.49-8.76-.37-.48-.44-1.13-.46-1.48Z"/>
      <circle class="cls-15" cx="574.11" cy="230.2" r="9.9"/>
      <circle class="cls-7" cx="568.38" cy="224.74" r="2.77"/>
      <path class="cls-1" d="M588.35,230.58s-12.85-23.38-33.85-1.9"/>
    </g>
    <path class="cls-9" d="M633,1170.93l-19.24,88.75s-108.68,3.73-217.36-38.4c0,0,193.99-5.72,236.6-50.35Z"/>
  </g>
</svg>