<?xml version="1.0" encoding="UTF-8"?>
<svg id="Layer_1" data-name="Layer 1" xmlns="http://www.w3.org/2000/svg" viewBox="0 0 1220 1220">
  <defs>
    <style>
      .cls-1, .cls-2 {
        stroke-width: 3px;
      }

      .cls-1, .cls-2, .cls-3, .cls-4, .cls-5, .cls-6 {
        fill: none;
        stroke-miterlimit: 10;
      }

      .cls-1, .cls-3, .cls-5 {
        stroke: #231f20;
      }

      .cls-2 {
        stroke: #603913;
      }

      .cls-7 {
        fill: #e6e7e8;
      }

      .cls-8 {
        fill: #803435;
      }

      .cls-9 {
        fill: #ba9777;
      }

      .cls-10 {
        fill: #af6862;
      }

      .cls-11 {
        fill: #aedff5;
      }

      .cls-12 {
        fill: #603913;
      }

      .cls-13 {
        fill: #754c29;
      }

      .cls-14 {
        fill: #26130f;
      }

      .cls-3 {
        stroke-width: 2.5px;
      }

      .cls-4 {
        stroke: #fff;
        stroke-width: 5px;
      }

      .cls-5, .cls-6 {
        stroke-width: 2px;
      }

      .cls-6 {
        stroke: #c2b59b;
      }

      .cls-15 {
        fill: #fff;
        opacity: .5;
      }
    </style>
  </defs>
  <circle class="cls-11" cx="610" cy="610" r="610"/>
  <g>
    <path class="cls-9" d="M455.99,708.62s2.39,74.15-35.41,146.61c0,0,1.1,236.9,202.72,257.38,0,0,236.68-111.9,185.15-244.07-24.08-61.78-35.94-111.78-41.89-128.8l-310.57-31.12Z"/>
    <path class="cls-12" d="M583.71,1112.98l-89.9-124.07s-23.47-57.46-73.22-133.68c0,0-192.51,56.37-289.44,132.23,0,0,57.96,76.74,140.51,130.46"/>
    <path class="cls-13" d="M265.84,1113.54l264.31-116.41s223.15-70.64,272.9-146.86c0,0,182.92,63.65,285.1,136.51,0,0-61.43,93.54-194.4,162.51,0,0-102.4,67.55-285.15,70.4,0,0-74.67,4.27-176.35-26.31,0,0-86.79-25.29-166.41-79.84Z"/>
    <g>
      <path class="cls-9" d="M848.47,555.55c0,188.21-102.5,340.78-228.93,340.78s-228.93-152.57-228.93-340.78c0-67.47-7.79-141.4,14.94-194.32,40.67-94.7,132.89-146.45,214-146.45,69.07,0,140.9,36.72,182.87,108.72,21.47,36.83,52.05,66.36,53.35,141.83,.53,30.56-7.29,57.43-7.29,90.23Z"/>
      <path class="cls-7" d="M553.86,495.77s-64.13-14.78-117.99,11.65c0,0,24.56-44.24,118.53-30.47,0,0,16.06,10.95-.53,18.82Z"/>
      <path class="cls-7" d="M684.03,495.77s64.13-14.78,117.99,11.65c0,0-24.56-44.24-118.53-30.47,0,0-16.06,10.95,.53,18.82Z"/>
      <path class="cls-1" d="M542.23,539.6s-28.67,44.36-76.63,4.81"/>
      <path class="cls-1" d="M696.29,540.84s30.07,43.42,76.75,2.36"/>
      <path class="cls-2" d="M588.08,523.63s33.31-19.66,61.26,0"/>
      <ellipse class="cls-10" cx="619.49" cy="781.14" rx="36.46" ry="32.76"/>
      <ellipse class="cls-8" cx="618.88" cy="780.47" rx="26.31" ry="23.64"/>
      <path class="cls-1" d="M567.44,673.2s46.95,57.83,104.13,0"/>
      <path class="cls-5" d="M523.66,403.17s59.28,6.94,87.33,13.51c28.04,6.58,109.52-14.35,109.52-14.35"/>
      <path class="cls-7" d="M501.23,320.2s122.35,58.8,239.01-7.59c0,0,28.45,85.36,108.12,125.2,0,0,19.14,32.03-6.97,113.51,0,0,21.98,54.03-13.41,139.09,0,0-11.87,55.96-40.7,91.57,0,0-5.93,27.98,0,0,0,0,11.62,42.4,32.22,39.85,0,0-22.11-31.6-11.02-38.15,0,0,152.59-6.36,119.65-285.94,0,0,62.86-159.44-67.77-230.1-56.12-30.35-105.83-141.05-234.08-73.77,0,0-178.72-76.34-223.16,97.98,0,0-157.23,47.98-94.37,293.28,0,0-55.19,121.12,79.69,142.3,11.12,1.75,28.14,38.53,15.47,86.86-3.42,13.03,30.83-13.67,41.03-39.05,0,0-9.5-15.3-19.68-38.19,0,0-19.61-52.26-33.86-119.69,0,0-26.56-48.09-.79-61.79,0,0,3.45-110.15,32.85-119.64,0,0,57.86-2.85,77.77-115.71Z"/>
      <path class="cls-9" d="M842,582.18s7.8-54.6,42.54-41.12c34.74,13.47,3.55,126.21,3.55,126.21,0,0-25.53,51.76-59.56,17.02"/>
      <path class="cls-3" d="M878.86,593.49c-17.29-35.91-33.25,54.54-33.25,54.54,0,0,15.96-47.88,23.94-30.59"/>
      <path class="cls-9" d="M400.33,582.18s-7.8-54.6-42.54-41.12c-34.74,13.47-3.55,126.21-3.55,126.21,0,0,25.53,51.76,59.56,17.02"/>
      <path class="cls-3" d="M358.89,593.49c17.29-35.91,33.25,54.54,33.25,54.54,0,0-15.96-47.88-23.94-30.59"/>
      <path class="cls-2" d="M417.67,517.22s101.22-24.34,170.41,6.41c0,0-6.41,43.56-29.47,61.5,0,0-38.82,33.86-116.97-2.01,0,0-27.81-33.86-23.97-65.89Z"/>
      <path class="cls-2" d="M819.74,517.22s-101.22-24.34-170.41,6.41c0,0,6.41,43.56,29.47,61.5,0,0,38.82,33.86,116.97-2.01,0,0,27.81-33.86,23.97-65.89Z"/>
      <line class="cls-2" x1="819.74" y1="517.22" x2="855.47" y2="536.17"/>
      <line class="cls-2" x1="417.67" y1="517.22" x2="375.91" y2="535.5"/>
    </g>
    <path class="cls-14" d="M447.18,780.97s26.68,58.97,63.18,74.42c0,0,103.2,91.27,219.04,0,0,0,38.61-16.15,52.65-60.38,0,0-4.75,44.46-51.09,64.12,0,0-100.85,103.39-221.33,1.45,0,0-47.45-24.76-62.46-79.61Z"/>
    <g>
      <path class="cls-4" d="M699.63,782.46s79.06,13.18,127.71-55.75c0,0-17.23-65.88,30.41-71.96,47.64-6.08,44.6,57.77,44.6,57.77,0,0,56.76-23.31,64.87,26.35,8.11,49.67-48.65,50.68-48.65,50.68,0,0,23.31,54.73-32.43,64.87-55.75,10.14-48.65-56.76-48.65-56.76,0,0-69.94,25.34-137.85-15.2Z"/>
      <path class="cls-15" d="M697.94,780.61s79.06,13.18,127.71-55.75c0,0-17.23-65.88,30.41-71.96,47.64-6.08,44.6,57.77,44.6,57.77,0,0,56.76-23.31,64.87,26.35,8.11,49.67-48.65,50.68-48.65,50.68,0,0,23.31,54.73-32.43,64.87-55.75,10.14-48.65-56.76-48.65-56.76,0,0-69.94,25.34-137.85-15.2Z"/>
    </g>
    <polyline class="cls-6" points="354.09 1110.53 406.02 1115.35 445.42 1081.09 497.57 1083.75 535.57 1047.95 587.79 1048.32 623.9 1010.61 676.05 1007.71 709.01 967.26 760.55 958.63 786.31 913.4 833.21 890.14"/>
  </g>
</svg>