<?xml version="1.0" encoding="UTF-8"?>
<svg id="Layer_1" data-name="Layer 1" xmlns="http://www.w3.org/2000/svg" viewBox="0 0 1220 1259.15">
  <defs>
    <style>
      .cls-1, .cls-2 {
        stroke-width: 1.5px;
      }

      .cls-1, .cls-2, .cls-3, .cls-4, .cls-5, .cls-6, .cls-7, .cls-8 {
        stroke-miterlimit: 10;
      }

      .cls-1, .cls-2, .cls-4, .cls-5, .cls-6, .cls-7, .cls-8 {
        fill: none;
      }

      .cls-1, .cls-4 {
        stroke: #231f20;
      }

      .cls-2 {
        stroke: #603913;
      }

      .cls-9, .cls-3 {
        fill: #fff;
      }

      .cls-10 {
        fill: #803435;
      }

      .cls-11 {
        fill: #9054a2;
      }

      .cls-12 {
        fill: #be8c8c;
      }

      .cls-13 {
        fill: #c4e7f6;
      }

      .cls-14 {
        fill: #dcbf97;
      }

      .cls-15 {
        fill: #231f20;
      }

      .cls-16 {
        fill: #1fa8df;
      }

      .cls-17 {
        fill: #26130f;
      }

      .cls-3, .cls-8 {
        stroke: #fff;
        stroke-width: .5px;
      }

      .cls-4, .cls-5 {
        stroke-width: 2px;
      }

      .cls-5 {
        stroke: #a579b5;
      }

      .cls-6 {
        stroke: #75308e;
        stroke-width: 4px;
      }

      .cls-7 {
        stroke: #662d91;
      }
    </style>
  </defs>
  <circle class="cls-13" cx="610" cy="649.15" r="610"/>
  <g>
    <path class="cls-14" d="M500.03,367.61s25.28,129.87-48.19,149.98c0,0,15.9,190.19,191.6,195.68,0,0,166.43-11.8,86.97-181.53l-45.18-24.21c-.72-32.39,3.73-37.54,3.73-37.54l-188.94-102.37"/>
    <path class="cls-14" d="M762.37,152s14.79,31.99,8.44,105.73c0,0-1.74,27.53,4.92,43.56,0,0,5.68,60.59-16.81,105.37-22.48,44.78-65.82,71.21-65.82,71.21,0,0-42.39,14.51-76.44-.29-34.05-14.8-82.61-22.28-117.52-106.04,0,0-24.99,21.89-42.4-18.88-17.4-40.77-38.06-54.69-21.07-89.58,16.99-34.89,54.97,34.64,54.97,34.64,0,0-30.41-66.16-9.63-132.39,20.78-66.22,105.57-111.57,105.57-111.57,0,0,121.57-35.86,175.79,98.24Z"/>
    <path class="cls-15" d="M666.79,90.33s-43.4,74.14-160.76,109.12c0,0-23.36,71.12-14.15,111.06,0,0-33.12-65.35-55.49-41.99-22.37,23.35,22.62,84.11,22.62,84.11,0,0,14.59,37.06,40.12,18.9,0,0,36.69,114.33-8.65,145.03-45.35,30.7-116.34,52.24-116.34,52.24,0,0-47.44-216.64-6.14-388C412.5-3.8,574.2-9.58,650.24,5.07c0,0,108.34,1.6,135.83,117.09,0,0,9.74,51.59,.21,99.8-9.52,48.21,9.48,335.62,9.48,335.62l-103.9-48.97-.62-30.35s94.01-46.2,84.48-176.98c0,0-10.55-26.08-4.56-64.54,2.72-17.46-5.99-78.96-5.99-78.96,0,0-71.66-36.11-98.37-67.46Z"/>
    <path class="cls-15" d="M636.22,218.99s-47.29,5.39-80.83,32.11c0,0,10.17-30.57,78.2-42.98,0,0,13,2.79,2.62,10.87Z"/>
    <path class="cls-15" d="M775.79,234.56c-31.09-12.4-55.03-13.09-55.03-13.09-11.05-7.12,1.65-11.06,1.65-11.06,21.46,1.97,44.35,9.67,56.23,14.55,0,0-1.15,10.28-2.85,9.6Z"/>
    <circle class="cls-15" cx="605.32" cy="267.18" r="14.05"/>
    <path class="cls-4" d="M705.41,307.71s29.5,21.57,.43,37.44"/>
    <path class="cls-17" d="M691.24,478.26s-35.77,13.9-74.58-.69c0,0-34.97-10.02-71.92-36.66,0,0,26.11,31.47,91.25,46.91,0,0,27.3,6.06,56.03-1.46,0,0,2.5-3.59-.77-8.1Z"/>
    <path class="cls-11" d="M293.97,856.85s-84.75-177.49,46.66-273.46c75.29-54.99,133.67-63.45,133.67-63.45,0,0,63.29,122.65,190.29,119.54,0,0,117.83-.91,21.92-131.97l107.57,59.8s65.99,41.45,91.38,111.74l41.09,114.63-76.78,63.8-22.71,217.36,15.44,138.62s-81.5,45.53-234.43,45.55c-89.8,.02-196.97-21.48-295.7-77.91l23.74-237.11c150.31-48.66,157.84-98.16,174.1-124.36,0,0-107.46,97.68-216.24,37.22Z"/>
    <path class="cls-4" d="M438.85,300.84s11.44-19.15,26.05-.79c14.61,18.36,15.64,24.65,15.64,24.65,0,0-21.06-29.25-27.79-4.72"/>
    <path class="cls-5" d="M686.43,240.5s-19.69-10.61-31.74,5.78"/>
    <path class="cls-5" d="M544.27,252.48s49.65-31.41,111.44-5.67c0,0-2.49,55.55-36.69,57.93-34.21,2.38-58.29,17.38-74.75-52.25Z"/>
    <path class="cls-5" d="M686.23,239.47s49.65-31.41,111.44-5.67c0,0-2.49,55.55-36.69,57.93-34.21,2.38-58.29,17.38-74.75-52.25Z"/>
    <line class="cls-5" x1="544.27" y1="252.48" x2="453.47" y2="265.5"/>
    <path class="cls-6" d="M474.29,519.95s72.07,130.46,190.29,119.54c0,0,115.6-4.75,21.92-131.97"/>
    <g>
      <path class="cls-9" d="M576.69,268.12s-.13-1.39,.81-2.63c3.1-4.12,10.39-11.94,22.78-12.96,13.87-1.14,22.58,11.26,25.56,15.69,.51,.76,.53,1.47,.53,1.47,0,0,.11,.77-.31,1.35-2,2.75-8.79,10.53-21.91,11.81-7.8,.76-19.13-2.54-26.79-12.59-.53-.7-.64-1.64-.67-2.14Z"/>
      <circle class="cls-17" cx="605.49" cy="268.22" r="14.39"/>
      <circle class="cls-9" cx="596.2" cy="266.05" r="3.95"/>
      <path class="cls-1" d="M626.69,268.18s-19.59-31.72-49.74-2.76"/>
    </g>
    <g>
      <path class="cls-9" d="M719.35,261.8s-.31-1.26,.37-2.53c2.26-4.21,7.84-12.41,19.06-15.09,12.56-3,22.29,7.14,25.65,10.79,.58,.63,.69,1.28,.69,1.28,0,0,.21,.69-.09,1.28-1.45,2.8-6.58,10.89-18.42,13.92-7.05,1.8-17.9,.37-26.34-7.77-.59-.57-.82-1.41-.91-1.87Z"/>
      <circle class="cls-17" cx="745.78" cy="257.81" r="13.3"/>
      <circle class="cls-9" cx="736.59" cy="257.44" r="3.72"/>
      <path class="cls-1" d="M764.75,255.35s-21.91-28.34-45.3,4.53"/>
    </g>
    <g>
      <path class="cls-16" d="M572.06,898.01s-121.94-93.03-42.45-158.97c79.49-65.94,102.97-2.71,102.97-2.71,0,0,40.65,45.16,1.81,165.29,0,0-8.13,44.26-79.49,86.71-71.36,42.45-124.65-8.13-115.62-36.13,9.03-28,31.61-60.52,132.78-54.19Z"/>
      <path class="cls-8" d="M594.27,1027.78s3.68-147.29,154.66-281.7"/>
      <path class="cls-8" d="M622.81,919.15s37.74-69.96,156.5-116.91"/>
      <path class="cls-3" d="M742.68,749.25s18.53-31.47,29.41-18.24c10.88,13.24-2.65,22.94-29.41,18.24Z"/>
      <path class="cls-3" d="M766.89,807.72s15.32-14.18,19.1-5.14c3.78,9.04-5.23,12.12-19.1,5.14Z"/>
    </g>
    <g>
      <path class="cls-12" d="M636.91,398.44s29.33-29.73,56.21-25.25c0,0,24.44-8.55,52.14,13.85,0,0-12.22,26.07-41.55,31.77s-66.8-20.37-66.8-20.37Z"/>
      <path class="cls-10" d="M642.1,398.59s47.38-38.25,98.77-10.85c0,0-25.12,10.85-31.4,18.84-6.28,7.99-23.41,1.71-23.41,1.71,0,0-26.26-12.56-43.96-9.71Z"/>
      <path class="cls-9" d="M662.43,386.8s24.14-15.98,65.96-4.42l-65.96,4.42Z"/>
    </g>
    <path class="cls-14" d="M922.98,796.34s73.29,189.88,62.83,306.99c0,0-7.32,66.92-144.3,64.83-136.98-2.09-232.13-29.28-232.13-29.28,0,0-40.78,33.46-93.06,30.32,0,0-54.81,2.69-75.78,10.24,0,0-23.49,1.68-9.23-15.94l56.2-14.26-85.55,1.68s-18.45-5.87-7.55-21.81c0,0-21.81-10.9-4.19-22.65l81.36-31.03-81.36,14.26s-26.84-12.58,10.9-29.36c37.74-16.78,94.78-10.9,94.78-10.9l116.59,16.78s187.8-40.77,219.68-42.45l17.61-166.27,73.21-61.15Z"/>
    <path class="cls-2" d="M832.16,1023.76s65.12-27.59,99.34-2.21"/>
    <path class="cls-2" d="M394.41,1129.12s59.17-18.16,95.59-18.16"/>
    <path class="cls-14" d="M293.97,856.85s100.54,237.46,220.57,286.12c120.03,48.66,174.1-76.78,174.1-76.78,0,0,69.21-155.72,81.1-427.15l55.15-64.88s4.33-18.73-5.47-28.53c0,0,5.16-21.14-12.38-34.03,0,0-5.67-26.3-36.61-22.17l-7.73-37.64s-1.55-13.92-26.3-14.95c-24.75-1.03-26.81,10.83-26.81,10.83,0,0,1.55,11.86,16.5,14.44l3.61,19.08-12.89,15.47s-6.7-13.41-3.61-30.94c3.09-17.53-25.27-35.58-25.27-35.58,0,0-21.14-13.41-22.69,5.16-1.55,18.56,9.8,40.74,9.8,40.74,0,0,1.03,31.97-3.61,46.92-4.64,14.95-14.95,40.74,19.08,96.94l-127.35,316.77-52.95-117.01"/>
    <path class="cls-2" d="M686.38,630.64l4.14-10.76s-38.88-52.26-19.08-96.94c0,0,6.83-19.04,3.61-46.92,0,0-12.13-24.49-9.8-40.74,2.33-16.25,22.69-5.16,22.69-5.16,0,0,26.02,13.13,25.27,35.58"/>
    <path class="cls-2" d="M744.59,437.83s-31.79-7.63-34.99,9.83c0,0,3.46,13.85,16.5,14.44"/>
    <path class="cls-2" d="M697.9,520.9s8.12-18.19,18.91-24.25"/>
    <path class="cls-2" d="M563.16,936.65s-28.05,15.12-20.91,53.18"/>
    <path class="cls-2" d="M695.69,1047.38s-28.83,92.94-109.4,106.26c-90.51,14.95-173.94-97.6-173.94-97.6"/>
    <line class="cls-7" x1="509.26" y1="819.23" x2="474.4" y2="729.6"/>
    <path class="cls-7" d="M849.77,857.49s9.14-63.93,3.41-99.47"/>
  </g>
</svg>