<?xml version="1.0" encoding="UTF-8"?>
<svg id="Layer_1" data-name="Layer 1" xmlns="http://www.w3.org/2000/svg" viewBox="0 0 1220 1220">
  <defs>
    <style>
      .cls-1, .cls-2 {
        stroke-width: 1.5px;
      }

      .cls-1, .cls-2, .cls-3, .cls-4, .cls-5, .cls-6, .cls-7, .cls-8, .cls-9, .cls-10, .cls-11, .cls-12, .cls-13, .cls-14 {
        stroke-miterlimit: 10;
      }

      .cls-1, .cls-2, .cls-3, .cls-4, .cls-8, .cls-9, .cls-10, .cls-11, .cls-12, .cls-13, .cls-14 {
        fill: none;
      }

      .cls-1, .cls-7, .cls-10 {
        stroke: #231f20;
      }

      .cls-2 {
        stroke: #a579b5;
      }

      .cls-3 {
        stroke-width: .8px;
      }

      .cls-3, .cls-12, .cls-14 {
        stroke: #603913;
      }

      .cls-15, .cls-5, .cls-6 {
        fill: #fff;
      }

      .cls-16 {
        fill: #fbb040;
      }

      .cls-17 {
        fill: #803435;
      }

      .cls-18 {
        fill: #8b5e3c;
      }

      .cls-19 {
        fill: #9054a2;
      }

      .cls-20 {
        fill: #bd9154;
      }

      .cls-21 {
        fill: #be9e7d;
      }

      .cls-22 {
        fill: #be8c8c;
      }

      .cls-23 {
        fill: #bf6b6b;
      }

      .cls-24 {
        fill: #c4e7f6;
      }

      .cls-25 {
        fill: #dcbf97;
      }

      .cls-26 {
        fill: #dc3b28;
      }

      .cls-27 {
        fill: #231f20;
      }

      .cls-28 {
        fill: #1fa8df;
      }

      .cls-29, .cls-7 {
        fill: #9c2024;
      }

      .cls-30 {
        fill: #517569;
      }

      .cls-31 {
        fill: #26130f;
      }

      .cls-4 {
        stroke: #dc3b28;
        stroke-width: 2.5px;
      }

      .cls-5, .cls-13 {
        stroke: #fff;
      }

      .cls-5, .cls-13, .cls-14 {
        stroke-width: .5px;
      }

      .cls-6 {
        stroke: #414042;
      }

      .cls-8 {
        stroke: #fbb040;
        stroke-width: 2px;
      }

      .cls-9 {
        stroke: #75308e;
        stroke-width: 4px;
      }

      .cls-11 {
        stroke: #662d91;
      }
    </style>
  </defs>
  <circle class="cls-24" cx="610" cy="610" r="610"/>
  <path class="cls-20" d="M1161.8,869.89c-36.3,81.82-101.86,150.55-101.86,150.55H158.76s-60.97-63.91-100.84-150.62l1103.88,.06"/>
  <path class="cls-18" d="M158.76,1020.43h901.19s-81.44,100.63-225.43,155.33c0,0-91.33,45.11-224.26,43.2,0,0-117.31,4.79-240.09-48.79,0,0-107.54-35.69-211.4-149.75Z"/>
  <g>
    <path class="cls-21" d="M731.92,556.41l-33.61,111.58-212.46,8.08s-24.25-34.64-51.96-24.25l13.86,83.14s16.17,1.15,24.25-3.46c0,0,187.06,63.51,264.42,43.88s80.83-83.14,80.83-83.14l-49.88-88.45-35.44-47.38Z"/>
    <path class="cls-12" d="M698.31,667.99s18.45,10.06,19.32,31.06"/>
    <path class="cls-21" d="M985.81,242.41s-5.79,87.23,48.09,90.91c0,0,9.29,182.26-132.83,202.82,0,0-109.56-16.65-60.61-161.71,0,0,10.11-9.65,9.84-27.61"/>
    <path class="cls-21" d="M970,196.25s-19.51-132.35-139.35-129.28c0,0-84.7,9.2-66.66,128.27,0,0,6.69,18.7,4.54,29.23,0,0-3.83,26.9,11.58,50.2,23.06,34.88,44.51,59.36,44.51,59.36,0,0,13.39,16.4,43.02,13.62,0,0,20.73-2.8,45.39-22.58,0,0,63.69-37.51,56.1-76.47,0,0,31.31,16.37,39.44-31.53,0,0,4.55-65.6-38.57-20.83Z"/>
    <path class="cls-31" d="M856.61,167.1s38.77-17.58,58.94-6.65c0,0-16.4-19.4-61.13-2.84,0,0-7.35,7.14,2.19,9.49Z"/>
    <path class="cls-31" d="M758.55,168.25c.73-2.2,21.29-4.23,40.44-1.73,0,0,8.76,5.33-.02,9.74,0,0-34.99-9.39-39.54,2.05,0,0-2.68-4.64-.88-10.06Z"/>
    <path class="cls-1" d="M817.3,228.04s-13.73,26.38,15.35,26.03"/>
    <path class="cls-1" d="M1003.15,204.37s-13.51-26.42-29.69,20.36c0,0,15.78-21.62,20.88-5.19"/>
    <path class="cls-31" d="M850.29,346.82s10.09,7.4,40.56-7.32c0,0,26.7-12.41,47.33-33.22,0,0-25.19,35.19-63.59,44.4,0,0-10.04,4.27-25.34,.67,0,0,2.22-.5,1.05-4.53Z"/>
    <path class="cls-23" d="M893.01,267.72s-20.14-3.81-42.59,5.39c0,0-20.49-1.75-38.07,4.3,0,0,5.65,32.12,36.81,35.85,31.15,3.73,46.56-26.71,43.85-45.54Z"/>
    <path class="cls-17" d="M888.4,270.56s3.52,28.59-33.69,32.79c-33.8,3.81-36.94-21.63-36.94-21.63,0,0,38.27-2.58,70.63-11.16Z"/>
    <path class="cls-15" d="M883.83,271.49s-7.73,14.3-36.68,16.16c0,0-17.66,2.9-26.17-5.71,0,0,37.21-3.38,62.85-10.45Z"/>
    <g>
      <path class="cls-15" d="M901.84,186.99s-.06-.88-.77-1.56c-2.34-2.26-7.66-6.42-15.48-5.83-8.76,.66-12.97,9.25-14.39,12.31-.25,.53-.18,.97-.18,.97,0,0,0,.49,.33,.81,1.52,1.52,6.52,5.7,14.83,5.2,4.94-.3,11.68-3.47,15.47-10.5,.26-.49,.24-1.08,.2-1.4Z"/>
      <circle class="cls-31" cx="883.88" cy="189.9" r="9.08"/>
      <circle class="cls-15" cx="889.46" cy="187.63" r="2.49"/>
      <path class="cls-1" d="M870.66,191.97s9.09-21.72,30.75-6.64"/>
    </g>
    <g>
      <path class="cls-15" d="M800.31,202.1s.07-.83-.49-1.56c-1.85-2.44-6.2-7.06-13.57-7.64-8.24-.64-13.38,6.75-15.14,9.39-.3,.46-.31,.88-.31,.88,0,0-.06,.46,.19,.8,1.2,1.63,5.25,6.23,13.05,6.96,4.64,.43,11.36-1.56,15.88-7.55,.32-.42,.38-.97,.39-1.28Z"/>
      <circle class="cls-31" cx="783.19" cy="202.22" r="8.51"/>
      <circle class="cls-15" cx="788.97" cy="201.07" r="2.39"/>
      <path class="cls-1" d="M770.95,202.56s11.02-20.12,29.1-1.67"/>
    </g>
    <path class="cls-15" d="M1161.8,869.89l-353.26,4.78s27.25-84.13,1.53-170.45c0,0-33.96-34.38-42.71-100.42l-38.57-52.01,13.85-92.54s.89-39.39,67.7-74.39c0,0,13.39-6.7,31.24-11.16,0,0,.04,29.63,10.52,56.96,0,0,80.23,55.46,167.83-10.4,0,0,7.75-10.43,14-90.96,0,0,41.69,12.74,93.02,32.73,81.82,31.87,75.79,155.03,75.79,155.03,0,0-6.69,11.45-59.78,61.42l53.96,198.18s-11.76,46.54-35.12,93.24Z"/>
    <path class="cls-4" d="M1048.72,335.51s2.2,52.14-11.34,95.34c0,0-100.63,77.01-193.39,14.44,0,0-15.38-32.31-9.88-68.06"/>
    <path class="cls-4" d="M812.03,705.58s147.68,49.99,295.27-52.53c0,0,22.04-21.58,37.13-41.7"/>
    <g>
      <circle class="cls-26" cx="895.69" cy="551.04" r="10.68"/>
      <circle class="cls-26" cx="906.44" cy="569.05" r="10.68"/>
      <circle class="cls-26" cx="907.54" cy="588.95" r="10.68"/>
      <circle class="cls-26" cx="889.03" cy="573.56" r="10.68"/>
      <circle class="cls-26" cx="927.32" cy="574.92" r="10.68"/>
      <circle class="cls-26" cx="918.27" cy="554.19" r="10.68"/>
    </g>
    <g>
      <circle class="cls-26" cx="830.23" cy="544.02" r="10.68"/>
      <circle class="cls-26" cx="840.98" cy="562.03" r="10.68"/>
      <circle class="cls-26" cx="842.08" cy="581.93" r="10.68"/>
      <circle class="cls-26" cx="823.57" cy="566.54" r="10.68"/>
      <circle class="cls-26" cx="861.86" cy="567.9" r="10.68"/>
      <circle class="cls-26" cx="852.81" cy="547.17" r="10.68"/>
    </g>
    <g>
      <circle class="cls-26" cx="960.97" cy="543.64" r="10.68"/>
      <circle class="cls-26" cx="971.72" cy="561.65" r="10.68"/>
      <circle class="cls-26" cx="972.82" cy="581.55" r="10.68"/>
      <circle class="cls-26" cx="954.31" cy="566.16" r="10.68"/>
      <circle class="cls-26" cx="992.6" cy="567.52" r="10.68"/>
      <circle class="cls-26" cx="983.55" cy="546.79" r="10.68"/>
    </g>
    <g>
      <circle class="cls-26" cx="1016.75" cy="518.57" r="10.68"/>
      <circle class="cls-26" cx="1027.5" cy="536.57" r="10.68"/>
      <circle class="cls-26" cx="1028.59" cy="556.48" r="10.68"/>
      <circle class="cls-26" cx="1010.09" cy="541.09" r="10.68"/>
      <circle class="cls-26" cx="1048.37" cy="542.44" r="10.68"/>
      <circle class="cls-26" cx="1039.33" cy="521.72" r="10.68"/>
    </g>
    <g>
      <circle class="cls-26" cx="784.89" cy="519.38" r="7.98"/>
      <circle class="cls-26" cx="795.89" cy="530.55" r="7.98"/>
      <circle class="cls-26" cx="800.22" cy="544.82" r="7.98"/>
      <circle class="cls-26" cx="784.05" cy="536.92" r="7.98"/>
      <circle class="cls-26" cx="812.1" cy="531.11" r="7.98"/>
      <circle class="cls-26" cx="801.85" cy="517.66" r="7.98"/>
    </g>
    <g>
      <circle class="cls-30" cx="1023.49" cy="477.38" r="5.74"/>
      <circle class="cls-30" cx="1024.06" cy="488.63" r="5.74"/>
      <circle class="cls-30" cx="1019.57" cy="498.36" r="5.74"/>
      <circle class="cls-30" cx="1014.66" cy="486.39" r="5.74"/>
      <circle class="cls-30" cx="1032.5" cy="496.68" r="5.74"/>
      <circle class="cls-30" cx="1033.42" cy="484.56" r="5.74"/>
    </g>
    <g>
      <circle class="cls-30" cx="990.96" cy="506.24" r="5.74"/>
      <circle class="cls-30" cx="991.53" cy="517.5" r="5.74"/>
      <circle class="cls-30" cx="987.04" cy="527.22" r="5.74"/>
      <circle class="cls-30" cx="982.13" cy="515.26" r="5.74"/>
      <circle class="cls-30" cx="999.96" cy="525.54" r="5.74"/>
      <circle class="cls-30" cx="1000.89" cy="513.42" r="5.74"/>
    </g>
    <g>
      <circle class="cls-30" cx="1014.21" cy="577.23" r="5.74"/>
      <circle class="cls-30" cx="1014.78" cy="588.49" r="5.74"/>
      <circle class="cls-30" cx="1010.29" cy="598.21" r="5.74"/>
      <circle class="cls-30" cx="1005.38" cy="586.24" r="5.74"/>
      <circle class="cls-30" cx="1023.21" cy="596.53" r="5.74"/>
      <circle class="cls-30" cx="1024.14" cy="584.41" r="5.74"/>
    </g>
    <g>
      <circle class="cls-30" cx="943.94" cy="593.62" r="5.74"/>
      <circle class="cls-30" cx="944.51" cy="604.88" r="5.74"/>
      <circle class="cls-30" cx="940.02" cy="614.61" r="5.74"/>
      <circle class="cls-30" cx="935.11" cy="602.64" r="5.74"/>
      <circle class="cls-30" cx="952.95" cy="612.92" r="5.74"/>
      <circle class="cls-30" cx="953.87" cy="600.81" r="5.74"/>
    </g>
    <g>
      <circle class="cls-30" cx="874.55" cy="596.73" r="5.74"/>
      <circle class="cls-30" cx="875.12" cy="607.98" r="5.74"/>
      <circle class="cls-30" cx="870.63" cy="617.71" r="5.74"/>
      <circle class="cls-30" cx="865.72" cy="605.74" r="5.74"/>
      <circle class="cls-30" cx="883.56" cy="616.03" r="5.74"/>
      <circle class="cls-30" cx="884.48" cy="603.91" r="5.74"/>
    </g>
    <g>
      <circle class="cls-30" cx="796.56" cy="575.98" r="5.74"/>
      <circle class="cls-30" cx="797.13" cy="587.24" r="5.74"/>
      <circle class="cls-30" cx="792.64" cy="596.96" r="5.74"/>
      <circle class="cls-30" cx="787.73" cy="584.99" r="5.74"/>
      <circle class="cls-30" cx="805.56" cy="595.28" r="5.74"/>
      <circle class="cls-30" cx="806.49" cy="583.16" r="5.74"/>
    </g>
    <g>
      <circle class="cls-30" cx="938.04" cy="520.75" r="5.74"/>
      <circle class="cls-30" cx="934.64" cy="531.5" r="5.74"/>
      <circle class="cls-30" cx="927.03" cy="539.03" r="5.74"/>
      <circle class="cls-30" cx="926.61" cy="526.1" r="5.74"/>
      <circle class="cls-30" cx="939.72" cy="541.98" r="5.74"/>
      <circle class="cls-30" cx="944.83" cy="530.96" r="5.74"/>
    </g>
    <g>
      <circle class="cls-30" cx="871.57" cy="520.08" r="5.74"/>
      <circle class="cls-30" cx="875.33" cy="530.7" r="5.74"/>
      <circle class="cls-30" cx="873.81" cy="541.31" r="5.74"/>
      <circle class="cls-30" cx="865.68" cy="531.24" r="5.74"/>
      <circle class="cls-30" cx="885.71" cy="536" r="5.74"/>
      <circle class="cls-30" cx="883.14" cy="524.13" r="5.74"/>
    </g>
    <g>
      <circle class="cls-30" cx="829.8" cy="504.41" r="5.74"/>
      <circle class="cls-30" cx="831.39" cy="515.57" r="5.74"/>
      <circle class="cls-30" cx="827.8" cy="525.66" r="5.74"/>
      <circle class="cls-30" cx="821.82" cy="514.19" r="5.74"/>
      <circle class="cls-30" cx="840.52" cy="522.81" r="5.74"/>
      <circle class="cls-30" cx="840.34" cy="510.66" r="5.74"/>
    </g>
    <path class="cls-31" d="M808.32,86.01s90.37,131.47,199.05,121.13c0,0-7.2,48.04-40.52,41.39,0,0,4.78,70.62,48.22,85.19,0,0,28.67,9.07,62.59-19.67,39.4-33.39,42.43-81.94,7.17-130.28,0,0-57.71-44.03-97.06-114.73,0,0-82.14-99.03-181.47-30.56,0,0-65.17-3.85-83.65,53.01-10.69,32.89,6.52,103.18,13.83,149.4,0,0-2.02,118.92,109.62,126.18,0,0,5.88-6.42,6.34-19.95,0,0-21.74-1.41-36.26-23.77-14.52-22.36-21.59-26.41-36.07-48.71,0,0-15.56-22.18-11.15-53.95,0,0,.85-16.54-4.97-25.48,0,0-14.62-67.24,44.33-109.23"/>
    <path class="cls-8" d="M977.69,238.43s10.85,13.01,1.98,22.73c-8.87,9.72-6.11-11.84-6.11-11.84"/>
    <path class="cls-21" d="M1197.43,525s2.69,202.3-3.86,248.16c-6.77,47.42-29.49,56.51-86,72.64-60.47,17.26-265.78,32.99-265.78,32.99,0,0-50.91,17.33-88.24,6.76,0,0,2.35,19.31-8.48,20.85,0,0-5.63,.41-16.24-15.8,0,0-9.28,9.92-18.41-14.51,0,0-11.88,10.49-18.58-9.02l-1.97-11.55s-12.02,11.06-16.76,5.56c-4.74-5.5,5.56-19.46,5.56-19.46,0,0,8.18-24.93,21.9-25.74,13.71-.81,46.66-12.08,46.66-12.08l94.17,17.19s106.01-49.66,221.96-100.78c0,0-2.47-57.63-.46-100.38,0,0,78.01-39.96,134.53-94.84Z"/>
    <path class="cls-12" d="M820.08,816.88l-72.86-13.07-46.66,12.08s-9.43,1-16.06,11.97c-6.64,10.97-12.41,25.11-12.41,25.11,0,0-4.27,19.55,17.78,2.56,0,0-.17,23.71,13.11,23.13,0,0,4.79-.79,7.45-2.56,0,0,8.77,25.3,18.41,14.51,0,0-10.1-20.22-1.47-27.63,8.64-7.4,21.6-6.17,21.6-6.17"/>
    <path class="cls-12" d="M689.86,855.53s4.98-22.83,11.93-27.89c6.95-5.06,20.23-10.11,20.23-10.11"/>
    <path class="cls-12" d="M710.42,876.1s-2.3-28.87,16.66-38.98"/>
    <path class="cls-6" d="M767.36,603.79s-6.44-40.54,5.25-82.39"/>
    <line class="cls-6" x1="1062.9" y1="619.84" x2="1062.9" y2="550.3"/>
  </g>
  <g>
    <rect class="cls-29" x="181.09" y="929.54" width="192.67" height="23.41"/>
    <polygon class="cls-29" points="97.5 908.23 181.09 929.54 373.76 929.54 283.07 906.55 97.5 908.23"/>
    <polygon class="cls-29" points="102.49 924 181.03 948.46 181.09 952.95 102.49 927.53 102.49 924"/>
    <polygon class="cls-15" points="102.49 909.8 181.09 929.54 181.09 949.81 102.49 924.4 102.49 909.8"/>
    <line class="cls-7" x1="181.09" y1="929.54" x2="373.76" y2="929.54"/>
    <polygon class="cls-7" points="203.43 911.17 250.07 911.17 289.07 923.41 239.75 923.41 203.43 911.17"/>
  </g>
  <polygon class="cls-15" points="199.58 878.23 245.69 903.43 405.42 902.95 358.83 877.76 199.58 878.23"/>
  <g>
    <path class="cls-25" d="M174.45,361.28s15.05,77.32-28.69,89.3c0,0,9.47,113.24,114.08,116.51,0,0,99.09-7.02,51.78-108.09l-26.9-14.42c-.43-19.29,2.22-22.35,2.22-22.35l-112.49-60.95"/>
    <path class="cls-25" d="M330.65,232.9s8.8,19.04,5.02,62.95c0,0-1.03,16.39,2.93,25.93,0,0,3.38,36.08-10.01,62.74-13.39,26.66-39.19,42.4-39.19,42.4,0,0-25.24,8.64-45.51-.17-20.27-8.81-49.19-13.26-69.97-63.14,0,0-14.88,13.04-25.24-11.24-10.36-24.28-22.66-32.56-12.55-53.34,10.12-20.77,32.73,20.63,32.73,20.63,0,0-18.11-39.39-5.73-78.82,12.37-39.43,62.86-66.43,62.86-66.43,0,0,72.38-21.35,104.67,58.5Z"/>
    <path class="cls-27" d="M273.75,196.19s-25.84,44.14-95.72,64.97c0,0-13.91,42.35-8.42,66.12,0,0-19.72-38.91-33.04-25s13.47,50.08,13.47,50.08c0,0,8.69,22.07,23.89,11.25,0,0,21.85,68.08-5.15,86.35-27,18.28-69.27,31.1-69.27,31.1,0,0-28.25-128.99-3.66-231.01,26.49-109.91,122.77-113.35,168.04-104.63,0,0,64.51,.95,80.88,69.72,0,0,5.8,30.72,.13,59.42-5.67,28.7,5.64,199.83,5.64,199.83l-61.86-29.16-.37-18.07s55.97-27.51,50.3-105.37c0,0-6.28-15.53-2.72-38.43,1.62-10.4-3.57-47.01-3.57-47.01,0,0-42.67-21.5-58.57-40.16Z"/>
    <path class="cls-27" d="M255.55,272.79s-28.16,3.21-48.12,19.12c0,0,6.06-18.2,46.56-25.59,0,0,7.74,1.66,1.56,6.47Z"/>
    <path class="cls-27" d="M338.65,282.06c-18.51-7.38-32.77-7.8-32.77-7.8-6.58-4.24,.98-6.58,.98-6.58,12.78,1.17,26.41,5.76,33.48,8.66,0,0-.68,6.12-1.7,5.71Z"/>
    <circle class="cls-27" cx="237.14" cy="301.48" r="8.37"/>
    <path class="cls-1" d="M296.74,325.61s17.56,12.85,.26,22.29"/>
    <path class="cls-31" d="M288.3,427.16s-21.3,8.28-44.41-.41c0,0-20.82-5.97-42.82-21.83,0,0,15.54,18.74,54.33,27.93,0,0,16.26,3.61,33.36-.87,0,0,1.49-2.14-.46-4.82Z"/>
    <path class="cls-19" d="M51.77,652.58s-50.46-105.68,27.78-162.82c44.83-32.74,79.59-37.78,79.59-37.78,0,0,37.68,73.02,113.3,71.18,0,0,70.15-.54,13.05-78.58l64.05,35.6s39.29,24.68,54.41,66.53l24.47,68.25-45.71,37.99-13.52,129.42,10.79,87.94s-147.01-.72-322.04-.48l18.93-165.37c89.5-28.97,93.98-58.45,103.66-74.04,0,0-63.98,58.16-128.75,22.16Z"/>
    <path class="cls-1" d="M138.03,321.52s6.81-11.4,15.51-.47c8.7,10.93,9.31,14.67,9.31,14.67,0,0-12.54-17.41-16.55-2.81"/>
    <path class="cls-2" d="M285.44,285.59s-11.72-6.32-18.9,3.44"/>
    <path class="cls-2" d="M200.79,292.73s29.56-18.7,66.35-3.38c0,0-1.48,33.07-21.85,34.49-20.37,1.42-34.71,10.35-44.5-31.11Z"/>
    <path class="cls-2" d="M285.32,284.98s29.56-18.7,66.35-3.38c0,0-1.48,33.07-21.85,34.49-20.37,1.42-34.71,10.35-44.5-31.11Z"/>
    <line class="cls-2" x1="200.79" y1="292.73" x2="146.73" y2="300.48"/>
    <path class="cls-9" d="M159.13,451.98s42.91,77.68,113.3,71.18c0,0,68.83-2.83,13.05-78.58"/>
    <g>
      <path class="cls-15" d="M220.1,302.04s-.07-.83,.48-1.57c1.85-2.45,6.19-7.11,13.56-7.71,8.26-.68,13.44,6.71,15.22,9.34,.31,.46,.32,.88,.32,.88,0,0,.07,.46-.18,.8-1.19,1.64-5.24,6.27-13.05,7.03-4.65,.45-11.39-1.51-15.95-7.5-.32-.42-.38-.97-.4-1.28Z"/>
      <circle class="cls-31" cx="237.25" cy="302.1" r="8.57"/>
      <circle class="cls-15" cx="231.72" cy="300.81" r="2.35"/>
      <path class="cls-10" d="M249.87,302.07s-11.67-18.88-29.62-1.64"/>
    </g>
    <g>
      <path class="cls-15" d="M305.04,298.28s-.19-.75,.22-1.51c1.35-2.51,4.67-7.39,11.35-8.99,7.48-1.79,13.27,4.25,15.27,6.42,.35,.37,.41,.76,.41,.76,0,0,.13,.41-.06,.76-.86,1.67-3.92,6.49-10.97,8.29-4.2,1.07-10.66,.22-15.69-4.62-.35-.34-.49-.84-.54-1.11Z"/>
      <circle class="cls-31" cx="320.78" cy="295.9" r="7.92"/>
      <circle class="cls-15" cx="315.3" cy="295.68" r="2.22"/>
      <path class="cls-10" d="M332.07,294.43s-13.04-16.87-26.97,2.7"/>
    </g>
    <g>
      <path class="cls-28" d="M217.35,677.08s-72.6-55.39-25.28-94.65c47.33-39.26,61.31-1.61,61.31-1.61,0,0,24.2,26.89,1.08,98.42,0,0-4.84,26.35-47.33,51.63-42.49,25.28-74.22-4.84-68.84-21.51,5.38-16.67,18.82-36.03,79.06-32.27Z"/>
      <path class="cls-13" d="M230.57,754.34s2.19-87.7,92.08-167.73"/>
      <path class="cls-13" d="M247.56,689.66s22.47-41.66,93.18-69.61"/>
      <path class="cls-5" d="M318.93,588.51s11.03-18.74,17.51-10.86c6.48,7.88-1.58,13.66-17.51,10.86Z"/>
      <path class="cls-5" d="M333.35,623.32s9.12-8.44,11.37-3.06c2.25,5.38-3.11,7.22-11.37,3.06Z"/>
    </g>
    <path class="cls-16" d="M160.49,892.39l139.6,7.25,13.17-5.92-10.76-4.94-139.42-4.3s-9.83,1.8-2.58,7.91Z"/>
    <g>
      <path class="cls-22" d="M255.96,379.63s17.46-17.7,33.47-15.04c0,0,14.55-5.09,31.04,8.25,0,0-7.28,15.52-24.74,18.92-17.46,3.4-39.77-12.13-39.77-12.13Z"/>
      <path class="cls-17" d="M259.05,379.73s28.21-22.77,58.81-6.46c0,0-14.96,6.46-18.7,11.22s-13.94,1.02-13.94,1.02c0,0-15.64-7.48-26.17-5.78Z"/>
      <path class="cls-15" d="M271.15,372.7s14.37-9.51,39.27-2.63l-39.27,2.63Z"/>
    </g>
    <path class="cls-25" d="M426.28,616.55s43.64,113.05,37.41,182.78c0,0-4.36,39.85-85.92,38.6-81.56-1.25-138.21-17.43-138.21-17.43,0,0-24.28,19.92-55.41,18.05,0,0-32.63,1.6-45.12,6.1,0,0-13.98,1-5.49-9.49l33.46-8.49-50.94,1s-10.99-3.5-4.49-12.98c0,0-12.98-6.49-2.5-13.48l48.44-18.48-48.44,8.49s-15.98-7.49,6.49-17.48c22.47-9.99,56.43-6.49,56.43-6.49l69.42,9.99s111.82-24.27,130.8-25.27l10.48-99,43.59-36.41Z"/>
    <path class="cls-12" d="M372.21,751.95s38.77-16.43,59.15-1.31"/>
    <path class="cls-14" d="M111.57,814.68s35.23-10.81,56.92-10.81"/>
    <path class="cls-25" d="M51.77,652.58s59.86,141.38,131.33,170.36c71.47,28.97,103.66-45.71,103.66-45.71,0,0,41.21-92.72,48.29-254.33l32.84-38.63s2.58-11.15-3.26-16.99c0,0,3.07-12.59-7.37-20.26,0,0-3.38-15.66-21.8-13.2l-4.61-22.41s-.92-8.29-15.66-8.9c-14.74-.61-15.96,6.45-15.96,6.45,0,0,.92,7.06,9.82,8.6l2.15,11.36-7.68,9.21s-3.99-7.98-2.15-18.42c1.84-10.44-15.04-21.18-15.04-21.18,0,0-12.59-7.98-13.51,3.07-.92,11.05,5.83,24.25,5.83,24.25,0,0,.61,19.04-2.15,27.94-2.76,8.9-8.9,24.25,11.36,57.72l-75.82,188.6-31.53-69.67"/>
    <path class="cls-3" d="M285.41,517.89l2.46-6.41s-23.15-31.12-11.36-57.72c0,0,4.07-11.34,2.15-27.94,0,0-7.22-14.58-5.83-24.25s13.51-3.07,13.51-3.07c0,0,15.49,7.82,15.04,21.18"/>
    <path class="cls-3" d="M320.07,403.09s-18.93-4.54-20.84,5.85c0,0,2.06,8.24,9.82,8.6"/>
    <path class="cls-3" d="M292.27,452.55s4.83-10.83,11.26-14.44"/>
    <path class="cls-12" d="M212.05,700.09s-16.7,9-12.45,31.66"/>
    <path class="cls-12" d="M290.96,766.02s-17.17,55.34-65.14,63.27c-53.89,8.9-103.57-58.11-103.57-58.11"/>
    <line class="cls-11" x1="179.95" y1="630.18" x2="159.2" y2="576.81"/>
    <path class="cls-11" d="M382.69,652.95s5.44-38.07,2.03-59.23"/>
  </g>
</svg>