<?xml version="1.0" encoding="UTF-8"?>
<svg id="Layer_1" data-name="Layer 1" xmlns="http://www.w3.org/2000/svg" viewBox="0 0 1220 1241.88">
  <defs>
    <style>
      .cls-1, .cls-2, .cls-3, .cls-4 {
        fill: none;
      }

      .cls-1, .cls-2, .cls-3, .cls-4, .cls-5, .cls-6 {
        stroke-miterlimit: 10;
      }

      .cls-1, .cls-2, .cls-5, .cls-6 {
        stroke-width: 1.5px;
      }

      .cls-1, .cls-3 {
        stroke: #231f20;
      }

      .cls-2 {
        stroke: #603913;
      }

      .cls-7, .cls-6 {
        fill: #f7daa6;
      }

      .cls-8 {
        fill: #fff;
      }

      .cls-9 {
        fill: #803435;
      }

      .cls-10 {
        fill: #b56e5b;
      }

      .cls-11, .cls-5 {
        fill: #ba9777;
      }

      .cls-12 {
        fill: #d1d3d4;
      }

      .cls-13 {
        fill: #c4e7f6;
      }

      .cls-14 {
        fill: #603913;
      }

      .cls-15 {
        fill: #754c29;
      }

      .cls-16 {
        fill: #26130f;
      }

      .cls-3, .cls-4 {
        stroke-width: 2px;
      }

      .cls-4 {
        stroke: #c2b59b;
      }

      .cls-5, .cls-6 {
        stroke: #754c29;
      }
    </style>
  </defs>
  <circle class="cls-13" cx="610" cy="628.93" r="610"/>
  <g>
    <path class="cls-11" d="M343.27,325.53s-7.96,103.74-41.23,116.87c0,0,32.8,167.42,176.76,201.93,0,0,92.6-73.24,53.03-175.94,0,0-20.33-16.43-22.44-38.33,0,0-121.78-31.76-166.11-104.54Z"/>
    <path class="cls-11" d="M334.53,240.04s-8.15-81.92,37.16-126.42c27.66-27.17,87.17-26.73,145.88-24.96,0,0,124.01,14.83,78.56,167.79,0,0-8.18,14.93-5.39,28.16,0,0,6.43,25.4-13.25,74.14-26.23,64.95-59.98,64.17-59.98,64.17,0,0-5.23,18.68-43.52,14.99,0,0-34.38,3.06-66.29-21.94,0,0-84.75-52.7-75.02-101.54,0,0-37.9,17.41-48.49-42.76,0,0-9.59-103.67,50.33-31.64Z"/>
    <path class="cls-12" d="M491.07,212.14s-44.24-9.34-67.13,11.55c0,0,2.88-31.84,66.91-24.71,0,0,11.97,6.97,.22,13.16Z"/>
    <path class="cls-3" d="M530.42,290.02s20.64,39.87-23.26,39.26"/>
    <path class="cls-3" d="M290.83,249.15s17.02-33.11,37.2,25.62c0,0-19.74-27.17-26.18-6.57"/>
    <path class="cls-3" d="M407.22,229.77l12.81,44.96s24.37,16.53,59.87,11.34l22.75-39.68s-44.61-27.56-95.43-16.62Z"/>
    <path class="cls-7" d="M678.87,1234.75s-11.62-219.69-19.56-341.08l57.36,46.38s180.62,36.61,220.89,45.16c40.27,8.54,45.16-12.2,45.16-12.2l18.31-85.43c-115.94-58.58-197.71-101.29-197.71-101.29l-100.07-167.2s-10.89-60.42-66.01-95.23c0,0-61.98-36.99-105.4-55.45l-10.36,49.07-43.96,33.73-52.17,1.02-41.64-19.09s-40.37-38-77.44-94.79c0,0-107.47,12.78-167.8,77.04,0,0-50.61,65.38-59.79,132.25,0,0-36.76,62.56-56.3,144.82,0,0,28.32,119.93,118.75,227.3,92.19,109.47,0,0,0,0,0,0,89.15,110.37,233.09,171.63,125.24,53.29,0,0,0,0,0,0,181.44,73.17,304.65,43.37Z"/>
    <path class="cls-16" d="M508.43,432.36s-20.76,8.36-35.72,5.09c0,0-53.64,3.07-101.73-49.67,0,0,13.23,19.26,43.39,39.38,0,0,35.37,24.37,97.54,15.15,0,0-.53-3.69-3.48-9.94Z"/>
    <path class="cls-12" d="M411.84,115.97s83.01,43.01,135.27,6.45c0,0,16.04,30.97,58.38,71.13,0,0,5.58,23.46-17.55,75.12,0,0,12.35,43.6-17.14,96.93,0,0-24.27,47.5-53.29,57.32,0,0-4.48,5.85-9.1,9.44,0,0,11.39,17.6,25.12,17.43,0,0-8.28-18.04-.51-21.53,0,0,92.33-18.4,91.13-204.64,0,0,68.92-80.48-2.99-140.1-32.49-26.94-59.26-100.48-148.5-65.63,0,0-111.92-63.27-153.89,48.09,0,0-129.3,26.47-63.41,189.73,0,0-25.12,51.36,21.88,95.59,5.42,5.1,31.93,13.16,20.06,44.01-3.2,8.32,33.15-3.79,44.04-44.51,0,0-11.84-10.89-8.65-36.36,0,0-41.01,10.09-45.45-35.29,0,0-11.15-50.23,6.8-57.36,0,0,20.09-7.15,39.02,18.08,0,0,77.97-5.33,78.78-123.9Z"/>
    <path class="cls-12" d="M597.85,233.4c.18-3.16-24.98-16.14-50.64-22.64,0,0-13.85,2.36-4.9,12.42,0,0,49.31,5.72,49.33,22.58,0,0,5.75-4.56,6.2-12.37Z"/>
    <path class="cls-3" d="M518.39,245.91l12.81,44.96s21.63,12.61,57.13,7.42l19.32-44.39s-38.43-18.93-89.26-7.99Z"/>
    <path class="cls-3" d="M518.39,245.91s-8.45-9.89-15.74,.48"/>
    <line class="cls-3" x1="407.22" y1="229.77" x2="308.9" y2="218.02"/>
    <path class="cls-1" d="M436.61,168.98s38.36,6.55,56.39,11.8c18.03,5.24,71.8-5.58,71.8-5.58"/>
    <path class="cls-14" d="M672.23,539.77s89.76,154.94,13.06,387.98c-50.17,152.46,47.27,264.42,47.27,264.42,0,0-137.09-67.2-199.91,42.24,0,0-109.67-270.05-17.59-496.37,92.08-226.32,157.17-198.27,157.17-198.27Z"/>
    <path class="cls-15" d="M306.26,438.34s-120.03-14.62-204.66,101.44c0,0-60.2,87.17-55.36,198.4,0,0,505.98,231.86,707.04-31.36,0,0-35.27-99.23-81.04-167.04,0,0-82.79-76.04-139.41-78.97,0,0-68.05,9.11-153.99,60.45,0,0-30.88-28.69-72.58-82.92Z"/>
    <path class="cls-14" d="M378.83,521.26l-72.58-82.92s-64.39-15.8-160.91,51.63c-96.52,67.43-99.11,248.21-99.11,248.21l332.6-216.92Z"/>
    <path class="cls-2" d="M531.39,1208.46s9.14,9.91,12.19,27.7"/>
    <path class="cls-2" d="M545.1,1200.52s12.61,13.67,13.15,37.73"/>
    <path class="cls-2" d="M558.1,1193.54s15.41,16.71,12.88,45.69"/>
    <path class="cls-2" d="M573.59,1186.45s17.25,18.7,12.26,50.87"/>
    <path class="cls-2" d="M589.78,1180.03s17.25,18.7,12.26,50.87"/>
    <path class="cls-2" d="M608.92,1175.5s17.25,18.7,12.26,50.87"/>
    <path class="cls-2" d="M630.13,1171.62s17.25,18.7,12.26,50.87"/>
    <path class="cls-2" d="M649.95,1169.41s17.25,18.7,12.26,50.87"/>
    <path class="cls-2" d="M674.35,1169.11s17.25,18.7,12.26,50.87"/>
    <path class="cls-2" d="M694.62,1170.53s17.25,18.7,12.26,50.87"/>
    <path class="cls-2" d="M716.28,1173.29s17.25,18.7,12.26,50.87"/>
    <polyline class="cls-4" points="85.98 728.17 113.19 729.57 125.75 701.66 153.66 703.05 168.32 676.54 199.72 675.84 214.37 645.14 247.87 642.35 263.22 613.74 293.92 612.34 305.78 583.73 338.58 583.03 349.05 556.52 383.24 553.72 401.23 524.29 433.48 525.12 449.02 499.92 476.05 504.88 495.85 482.24 523.5 487.43 539.82 470.29"/>
    <polyline class="cls-4" points="495.49 816.13 529.64 815.2 552.78 783.25 590.57 795.82 613.93 762.19 653.35 769.97 668.97 733.65 702.27 735.81 715.85 699 730.89 697.04"/>
    <g>
      <path class="cls-8" d="M429.41,244.02s.07-1.06,.92-1.89c2.82-2.74,9.24-7.77,18.7-7.07,10.59,.78,15.69,11.16,17.41,14.85,.3,.64,.23,1.17,.23,1.17,0,0,0,.59-.39,.98-1.83,1.84-7.87,6.9-17.91,6.31-5.97-.35-14.12-4.18-18.71-12.66-.32-.59-.29-1.31-.25-1.7Z"/>
      <circle class="cls-16" cx="451.11" cy="247.5" r="10.98"/>
      <circle class="cls-8" cx="444.6" cy="242.46" r="3.01"/>
      <path class="cls-1" d="M467.09,249.97s-11.02-26.22-37.17-7.96"/>
    </g>
    <g>
      <path class="cls-8" d="M547.83,262.59s-.09-1,.59-1.89c2.24-2.95,7.48-8.55,16.38-9.25,9.96-.79,16.18,8.13,18.32,11.32,.37,.55,.38,1.06,.38,1.06,0,0,.08,.55-.23,.97-1.44,1.97-6.34,7.54-15.75,8.43-5.6,.53-13.73-1.86-19.21-9.09-.38-.5-.46-1.18-.47-1.54Z"/>
      <circle class="cls-16" cx="568.51" cy="262.7" r="10.29"/>
      <circle class="cls-8" cx="561.87" cy="258.39" r="2.88"/>
      <path class="cls-1" d="M583.31,263.09s-13.35-24.29-35.17-1.96"/>
    </g>
    <path class="cls-6" d="M206.87,1086.57c-12.61-57.76-38.69-179.15-38.69-203.24l33.6-76.62"/>
    <path class="cls-11" d="M998.03,897.93l14.57,6.9,48.3-23.77,49.07-.77,14.57,6.13,71.3,7.67s9.51,13.37-7.32,14.55c-16.84,1.17-27.8,5.09-27.8,5.09l37.6,4.7s10.57,13.31-10.57,13.71c-21.15,.39-76.76-2.74-76.76-2.74l-.39,5.48,61.09,2.35s16.84,11.75-5.48,17.62c-22.32,5.87-65.79-1.57-65.79-1.57l-1.96,8.62,37.6,15.66s8.62,9.79-8.22,11.36c-16.84,1.57-45.04-10.18-45.04-10.18l-73.62,1.17-25.85-10.97,14.73-71.03Z"/>
    <path class="cls-5" d="M1049.09,942.33s32.5-9.01,42.69-32.9l13.71,1.17s36.03,18.41,46.6-2.35l-27.55-21.82"/>
    <path class="cls-6" d="M803.32,786.28s-34.83,.93-52.83,30.93"/>
    <path class="cls-10" d="M451.25,343.19s35.47-11.9,51.36,.18c0,0,9.79-10.04,39,.79,0,0,3.1,42.27-40.46,42.11-49.73-.18-49.91-43.09-49.91-43.09Z"/>
    <path class="cls-9" d="M458.06,347.77s4.78,27.65,39.23,28.1c34.46,.45,38.13-27.49,38.13-27.49,0,0-56.22-5.73-77.36-.6Z"/>
    <path class="cls-8" d="M466.52,346.43s8.06,8.39,34.52,9.04c24.38,.59,31.45-7.49,31.45-7.49,0,0-35.86-4.71-65.97-1.55Z"/>
  </g>
</svg>