<?xml version="1.0" encoding="UTF-8"?>
<svg id="Layer_1" data-name="Layer 1" xmlns="http://www.w3.org/2000/svg" xmlns:xlink="http://www.w3.org/1999/xlink" viewBox="0 0 1220 1260.31">
  <defs>
    <style>
      .cls-1, .cls-2, .cls-3, .cls-4, .cls-5 {
        fill: none;
      }

      .cls-6 {
        clip-path: url(#clippath);
      }

      .cls-7, .cls-8 {
        fill: #00979c;
      }

      .cls-9 {
        fill: #fff;
      }

      .cls-10 {
        fill: #803435;
      }

      .cls-11 {
        fill: #ae8578;
      }

      .cls-12, .cls-13 {
        fill: #d1d3d4;
      }

      .cls-14 {
        fill: #c4e7f6;
      }

      .cls-15, .cls-16 {
        fill: #dcbf97;
      }

      .cls-17 {
        fill: #077370;
      }

      .cls-18 {
        fill: #26130f;
      }

      .cls-8 {
        stroke: #2e3192;
      }

      .cls-8, .cls-13, .cls-2, .cls-3, .cls-4, .cls-16, .cls-5 {
        stroke-miterlimit: 10;
      }

      .cls-8, .cls-2, .cls-3 {
        stroke-width: 2px;
      }

      .cls-13 {
        stroke: #58595b;
        stroke-width: .2px;
      }

      .cls-2, .cls-4, .cls-5 {
        stroke: #231f20;
      }

      .cls-3 {
        stroke: #603913;
      }

      .cls-16 {
        stroke: #754c29;
        stroke-width: 1.5px;
      }

      .cls-5 {
        stroke-width: .5px;
      }
    </style>
    <clipPath id="clippath">
      <path class="cls-1" d="M85.73,961.76c106.38,178.69,301.47,298.41,524.53,298.41,78.55,0,153.64-14.85,222.6-41.89l95.61-156.34-31.08-55.94-54.39-360.51,63.71-467.73L864.75,13.04,665.48,0h-49.28l-98.69,15.43-117.28,254.82,11.58,130.31-207.04,66.6-98.74,126.54-41.71,300.54,21.4,67.51Z"/>
    </clipPath>
  </defs>
  <circle class="cls-14" cx="610" cy="649.87" r="610"/>
  <g class="cls-6">
    <g>
      <path class="cls-7" d="M763.77,568.97c140.29,60.63,33.16,587.4,33.16,587.4,46.44,65.11,46.42,103.24,46.42,103.24l-104.15-10.68s-51.63,10.68-50.33-15.35c5.98-119.81-43.99-153.37-43.99-153.37"/>
      <path class="cls-15" d="M478.27,328.41s-16.33,71.06-57.64,123.87c0,0-12.05,201.86,142.47,236.25,0,0,118.57-67.04,88.16-204.18l-172.98-155.94Z"/>
      <path class="cls-9" d="M615.92,543.26s-60.16,31.85-133.6-16.81l51.32,212.35,82.28-195.54Z"/>
      <path class="cls-7" d="M684.75,1260.31s35.21-78.19-1.12-234.05c0,0,112.3-37.82,137.29-45.2l13.31-235.96s4.76-110.11-44.45-164.5c0,0-64.96-47.77-107.9-72.34l-95.93,56.59-48.51,136.7-22.5-144.33s-61.03-34.58-99.16-105.3c0,0-150.98,4.46-221.7,63.93,0,0-66.69,72.54-73.16,150.24,0,0-21.25,160.4-36.35,308.66,0,0-46.97-24.56-31.81,281.05"/>
      <path class="cls-17" d="M443.03,419.42s-17.98-6.54-27.75,15.98c-6.28,14.47-14.63,16.52-14.63,16.52,0,0-10.78,61.09,36.13,110.24,0,0,41.76-22.94,78.16-4.95,0,0-111.69-88.76-71.91-137.8Z"/>
      <path class="cls-17" d="M651.45,491.98s9,21.86-65.49,72.87c0,0,50.09,.86,67.05,24.67,0,0,21.35-39.05,28.88-81.25,0,0-12.71-16.21-30.44-16.28Z"/>
      <path class="cls-15" d="M827.41,142.8s19.41,54.51-19.15,162.11c0,0-11.87,25.12-12.97,40.15-1.1,15.03-12.33,36.46-17.2,52.48-27.54,90.67-77.34,104.83-77.34,104.83,0,0-21.09,26.01-73.12,12.21-52.03-13.8-98.04-44.75-110.65-71.79-12.62-27.04-42.31-75.59-37.64-110.48,0,0-32.73-1.5-35.04-42.03,0,0-17.6-66.86,20.05-72.59,37.65-5.73,44.22,46,44.22,46,0,0-14.63-149.34,76.62-181.28,0,0,128.71-50.74,242.22,60.4Z"/>
      <path class="cls-11" d="M622.01,385.44s28.13,.88,55.48,19.88c0,0,27.98,3.75,49.75,17.08,0,0-17.13,41.37-59.99,37.11-42.86-4.26-54.46-49.63-45.24-74.07Z"/>
      <path class="cls-10" d="M627.34,390.62s-13.21,37.28,35.41,53.97c44.16,15.16,55.94-18.01,55.94-18.01,0,0-50.52-14.83-91.35-35.95Z"/>
      <path class="cls-12" d="M687.84,241.77s-38.23-27.27-80.95-24.57c0,0,28.28-22.44,86.44,12.31,0,0,7.59,11.61-5.49,12.26Z"/>
      <path class="cls-12" d="M818.84,281.54c-29.01-15.02-47.01-10.95-47.01-10.95-9.93-8.55,3.19-13.05,3.19-13.05,20.96,2.58,36.21,7.77,47.28,13.68,0,0-1.88,11.14-3.47,10.31Z"/>
      <path class="cls-9" d="M633.19,393.22s7.02,17.87,45.28,28.97c0,0,21.89,12.72,35.85,3.71,0,0-48.86-15.59-81.13-32.69Z"/>
      <path class="cls-2" d="M455.57,241.77s18.76-14.47,26.06,9.36c7.29,23.83,5.86,30.44,5.86,30.44,0,0-9.43-37.1-25.63-15.49"/>
      <path class="cls-13" d="M451.37,223.27s31.6-17.89,42.83,13.17c11.22,31.06,4.58,41.8,4.58,41.8l17.3,4.75s-29.95-106.7,38.11-126.28c0,0,7.06-71.9,61.75-66.72,54.69,5.18,94.6-38.74,215.46,65.23,0,0,35.15-73.88-98.78-135.23,0,0-90.25-42.57-131.83-2.42,0,0-64.62-12.09-106.19,65.92-41.56,78.01-43.23,139.77-43.23,139.77Z"/>
      <path class="cls-18" d="M640.56,517.36s-59.24-13.24-90.63-38.67c0,0-26.41-15.24-44.95-57.87,0,0,21.27,61.98,74.56,84.97,.27,.11,.5,.19,.77,.3,2.46,1.03,32.52,14.06,54.53,18.56,0,0,6.55-5.62,5.72-7.3Z"/>
      <path class="cls-4" d="M671.07,161.6s38.61,17.97,56.14,28.69c17.53,10.73,77.41,14.79,77.41,14.79"/>
      <path class="cls-12" d="M666.31,367.21s-32.37,10.64-54.72,7.32c0,0,1,9.41,10.41,10.91,0,0,38.24,4.28,55.48,19.88,0,0,27.85,2.76,49.75,17.08,0,0,2.15,2.77,7.79,3.45,0,0-18.94-26.61-14.84-36.1,0,0-24.72,3.67-35.56-17.23,0,0-7.51,1.06-18.3-5.3Z"/>
      <path class="cls-2" d="M724.41,303.93l6.29,60.75s.43,32.45-23.72,24.96c-20.03-6.21-19.17-12.82-19.17-12.82"/>
      <path class="cls-4" d="M597.66,386.43s3.53-23.76,18.75-25c15.22-1.25,30.1-25.73,30.1-25.73"/>
      <g>
        <circle class="cls-3" cx="656.2" cy="263.51" r="46.62"/>
        <circle class="cls-3" cx="796" cy="312.81" r="46.62"/>
        <path class="cls-3" d="M751.91,297.68s-14.6-32.88-51.62-19.03"/>
        <line class="cls-3" x1="612.1" y1="248.37" x2="483.9" y2="214.69"/>
      </g>
      <g>
        <path class="cls-9" d="M626.56,253.81s.35-1.19,1.52-1.91c3.89-2.39,12.44-6.46,22.98-3.28,11.8,3.56,14.95,16.61,15.97,21.24,.18,.8-.04,1.39-.04,1.39,0,0-.16,.67-.69,1.01-2.54,1.62-10.67,5.82-21.89,2.62-6.68-1.91-14.94-8.3-17.99-19.08-.21-.75,0-1.56,.15-1.98Z"/>
        <circle class="cls-18" cx="650.27" cy="263.25" r="12.75"/>
        <circle class="cls-9" cx="647.01" cy="254.37" r="3.5"/>
        <path class="cls-5" d="M667.75,270.1s-5.85-32.5-40.1-18.43"/>
      </g>
      <g>
        <path class="cls-9" d="M760.94,305.58s.15-1.15,1.14-1.99c3.28-2.78,10.64-7.79,20.9-6.34,11.48,1.63,16.28,13.31,17.89,17.46,.28,.72,.16,1.29,.16,1.29,0,0-.05,.65-.5,1.04-2.13,1.87-9.09,6.94-19.98,5.56-6.48-.82-15.08-5.59-19.46-15.17-.3-.67-.22-1.45-.15-1.87Z"/>
        <circle class="cls-18" cx="784.35" cy="310.95" r="11.95"/>
        <circle class="cls-9" cx="779.65" cy="302.2" r="3.35"/>
        <path class="cls-5" d="M801.01,315.14s-8.98-30.9-39.35-11.13"/>
      </g>
      <path class="cls-7" d="M705.75,1136.02c-26.86-132.58-30.06-127.24-30.06-127.24"/>
      <path class="cls-8" d="M725.1,810.8c8.77,99.99-41.47,215.46-41.47,215.46,0,0,9.25,155.71,8.23,197.47"/>
      <path class="cls-8" d="M319.31,572.54s74.13,43.93-45.3,429.67c0,0,215.52-21.96,348.67-1.37,0,0,33.15,71.13,4.12,94.72,0,0-436.57,145.17-503.79,57.65-40.37-52.56-38.44-178.46-38.44-178.46"/>
      <path class="cls-8" d="M274.01,1002.21s-76.87-9.61-98.84,50.79"/>
      <path class="cls-15" d="M622.68,1000.83s15.87-53.51,67.1-47.63c51.24,5.88,81.47-3.36,81.47-3.36,0,0,33.6-12.6,47.88,7.56,14.28,20.16-21,25.2-21,25.2l-55.44,6.72,158.75,68.03s14.65,8.03,5.88,21.84c0,0-4.94,8.63-19.47,8.63,0,0-8.78,24.26-60.57,1.82,0,0-40.58,33.31-103.57,3.03,0,0-27.07-9.36-58.75-16.96l-27.25,1.82s10.51-38.32-15.03-76.7Z"/>
      <line class="cls-16" x1="887.85" y1="1087.83" x2="802.75" y2="1056.27"/>
      <line class="cls-16" x1="827.03" y1="1090.28" x2="764.11" y2="1074.96"/>
    </g>
  </g>
</svg>