<?xml version="1.0" encoding="UTF-8"?>
<svg id="Layer_1" data-name="Layer 1" xmlns="http://www.w3.org/2000/svg" viewBox="0 0 1220 1258.94">
  <defs>
    <style>
      .cls-1, .cls-2 {
        stroke-width: 1.5px;
      }

      .cls-1, .cls-2, .cls-3, .cls-4, .cls-5 {
        fill: none;
        stroke-miterlimit: 10;
      }

      .cls-1, .cls-3 {
        stroke: #231f20;
      }

      .cls-2 {
        stroke: #603913;
      }

      .cls-6 {
        fill: #fff;
      }

      .cls-7 {
        fill: #be9e7d;
      }

      .cls-8 {
        fill: #bf6b6b;
      }

      .cls-9 {
        fill: #c4e7f6;
      }

      .cls-10 {
        fill: #dc3b28;
      }

      .cls-11 {
        fill: #3e3e3e;
      }

      .cls-12 {
        fill: #517569;
      }

      .cls-13 {
        fill: #26130f;
      }

      .cls-3 {
        stroke-width: 2px;
      }

      .cls-4 {
        stroke: #fbb040;
      }

      .cls-4, .cls-5 {
        stroke-width: 4px;
      }

      .cls-5 {
        stroke: #dc3b28;
      }
    </style>
  </defs>
  <circle class="cls-9" cx="610" cy="648.94" r="610"/>
  <g>
    <path class="cls-7" d="M531.75,682.75s-.71,148.06,10.1,198.89c0,0-161.18-17.61-299.59-5.12,0,0-17.2-53.18-92.56-42.67,0,0-45.17-29.62-60.26-9.56-15.09,20.07,63.78,40.8,63.78,40.8,0,0-155.26,62.35-150.42,78.13,4.84,15.79,25.65,1.2,25.65,1.2,0,0,43.69,7.34,59.13-.52,0,0,56.71,32.41,128.23-3.18,0,0,265.08,79.41,358.83,87.25,0,0,120.87,22.14,130.79-107.56l-11.44-209.05"/>
    <path class="cls-7" d="M784.76,263.14s27.66,68.78,93.59,65.89c0,0,13.36,258.03-156.43,302.39,0,0-135.33-5.27-95.68-188.12,0,0,10.96-13.09,8.18-34.87"/>
    <path class="cls-7" d="M759.27,209.25s-41.76-158.07-186.87-137.98c0,0-101.61,22.73-63.45,164.87,0,0,10.68,21.79,9.51,34.87,0,0-.98,33.19,20.91,59.38,32.77,39.21,62.16,66.01,62.16,66.01,0,0,18.51,18.09,54.1,10.68,0,0,24.79-6.22,52.04-33.62,0,0,72.22-54.24,57.7-100.52,0,0,40.26,15.61,43.6-43.67,0,0-3.42-80.29-49.69-20.03Z"/>
    <path class="cls-13" d="M615.64,184.45s48.21-19.55,72.3-5.21c0,0-19.07-24.49-74.51-6.49,0,0-9.33,8.36,2.21,11.7Z"/>
    <path class="cls-13" d="M498.93,208.93c.08-2.83,23.42-12.44,46.72-16.26,0,0,12.13,3.15,3.41,11.41,0,0-44.25,1.33-45.55,16.31,0,0-4.77-4.49-4.57-11.46Z"/>
    <path class="cls-3" d="M578.16,268.69s-13.07,33.91,22.2,29.52"/>
    <path class="cls-3" d="M800.64,214.58s-20.01-30.24-33.28,28.78c0,0,16.22-28.42,24.65-9.15"/>
    <path class="cls-13" d="M634.44,408.43s13.26,7.62,48.26-14.42c0,0,30.73-18.71,52.94-46.81,0,0-25.78,46.18-71.17,62.59,0,0-11.61,6.55-30.68,4.28,0,0,2.63-.91,.65-5.64Z"/>
    <g>
      <path class="cls-6" d="M675.23,207.3s-.19-1.06-1.14-1.79c-3.15-2.43-10.18-6.75-19.6-4.97-10.55,2-14.49,13.01-15.8,16.92-.23,.67-.09,1.2-.09,1.2,0,0,.07,.59,.51,.94,2.05,1.64,8.7,6.03,18.72,4.29,5.96-1.03,13.71-5.81,17.35-14.86,.25-.63,.14-1.35,.06-1.73Z"/>
      <circle class="cls-13" cx="653.82" cy="213.28" r="11.1"/>
      <circle class="cls-6" cx="660.28" cy="209.76" r="3.05"/>
      <path class="cls-1" d="M638.04,217.6s8.07-27.61,36.44-12.25"/>
    </g>
    <g>
      <path class="cls-6" d="M553.99,239.5s-.03-1.01-.81-1.83c-2.58-2.71-8.5-7.73-17.52-7.42-10.1,.35-15.33,10.02-17.11,13.47-.31,.59-.26,1.11-.26,1.11,0,0-.02,.56,.34,.95,1.68,1.81,7.23,6.85,16.79,6.67,5.69-.11,13.58-3.44,18.26-11.34,.33-.55,.33-1.23,.3-1.6Z"/>
      <circle class="cls-13" cx="533.22" cy="241.99" r="10.41"/>
      <circle class="cls-6" cx="540.08" cy="239.8" r="2.91"/>
      <path class="cls-1" d="M518.4,244.07s10.63-25.94,35.12-6"/>
    </g>
    <path class="cls-6" d="M985.44,1129.13c-32.04,10.46-68.33,7.38-104.1,5.16,0,0-120.3-6.73-195.36-47.48,0,0-8.62-137.52-51.62-238.84,0,0-45.94-37.12-65.58-116.13l-44.99-56.53-4.76-115.65s-4.29-47.96,72.06-99.58c0,0,15.35-9.96,36.42-17.81,0,0,4.1,35.97,20.55,67.73,0,0,105,56.4,202.4-35.53,0,0,25.13-30.79,21.74-129.44,0,0,37.78,7.28,104.74,14.27,110.91,11.57,123.91,166.85,123.91,166.85,0,0-29.08,35.21-12.49,80.6l93.65,252.24s-41.1,156.4-196.57,270.13"/>
    <path class="cls-5" d="M893.68,345.58s8.09,76.5-20.57,139.38c0,0-76,96.46-239.6,48.51,0,0-23.16-39.15-21.36-83.31"/>
    <path class="cls-5" d="M636.92,849.35s186.17,40.56,351.42-104.08c0,0,23.82-29.22,39.4-55.71"/>
    <g>
      <circle class="cls-10" cx="717.44" cy="650.26" r="13.05"/>
      <circle class="cls-10" cx="732.95" cy="670.65" r="13.05"/>
      <circle class="cls-10" cx="737" cy="694.67" r="13.05"/>
      <circle class="cls-10" cx="712.43" cy="678.51" r="13.05"/>
      <circle class="cls-10" cx="759.11" cy="674.93" r="13.05"/>
      <circle class="cls-10" cx="745.3" cy="651" r="13.05"/>
    </g>
    <g>
      <circle class="cls-10" cx="636.99" cy="650.66" r="13.05"/>
      <circle class="cls-10" cx="652.5" cy="671.06" r="13.05"/>
      <circle class="cls-10" cx="656.55" cy="695.08" r="13.05"/>
      <circle class="cls-10" cx="631.97" cy="678.92" r="13.05"/>
      <circle class="cls-10" cx="678.65" cy="675.34" r="13.05"/>
      <circle class="cls-10" cx="664.84" cy="651.4" r="13.05"/>
    </g>
    <g>
      <circle class="cls-10" cx="795.71" cy="632.37" r="13.05"/>
      <circle class="cls-10" cx="811.22" cy="652.76" r="13.05"/>
      <circle class="cls-10" cx="815.27" cy="676.78" r="13.05"/>
      <circle class="cls-10" cx="790.69" cy="660.62" r="13.05"/>
      <circle class="cls-10" cx="837.37" cy="657.04" r="13.05"/>
      <circle class="cls-10" cx="823.56" cy="633.11" r="13.05"/>
    </g>
    <g>
      <circle class="cls-10" cx="866.55" cy="591.47" r="13.05"/>
      <circle class="cls-10" cx="882.06" cy="611.87" r="13.05"/>
      <circle class="cls-10" cx="886.11" cy="635.89" r="13.05"/>
      <circle class="cls-10" cx="861.53" cy="619.72" r="13.05"/>
      <circle class="cls-10" cx="908.21" cy="616.15" r="13.05"/>
      <circle class="cls-10" cx="894.4" cy="592.21" r="13.05"/>
    </g>
    <g>
      <circle class="cls-10" cx="896.47" cy="541.51" r="9.76"/>
      <circle class="cls-10" cx="911.36" cy="553.57" r="9.76"/>
      <circle class="cls-10" cx="918.57" cy="570.3" r="9.76"/>
      <circle class="cls-10" cx="897.85" cy="562.92" r="9.76"/>
      <circle class="cls-10" cx="931.12" cy="552.04" r="9.76"/>
      <circle class="cls-10" cx="916.84" cy="537.1" r="9.76"/>
    </g>
    <g>
      <circle class="cls-10" cx="578.56" cy="626.93" r="9.76"/>
      <circle class="cls-10" cx="593.45" cy="638.99" r="9.76"/>
      <circle class="cls-10" cx="600.65" cy="655.72" r="9.76"/>
      <circle class="cls-10" cx="579.93" cy="648.34" r="9.76"/>
      <circle class="cls-10" cx="613.21" cy="637.46" r="9.76"/>
      <circle class="cls-10" cx="598.92" cy="622.52" r="9.76"/>
    </g>
    <g>
      <circle class="cls-12" cx="862.6" cy="543.36" r="7.01"/>
      <circle class="cls-12" cx="864.82" cy="556.95" r="7.01"/>
      <circle class="cls-12" cx="860.7" cy="569.38" r="7.01"/>
      <circle class="cls-12" cx="853.1" cy="555.51" r="7.01"/>
      <circle class="cls-12" cx="876.16" cy="565.57" r="7.01"/>
      <circle class="cls-12" cx="875.63" cy="550.73" r="7.01"/>
    </g>
    <g>
      <circle class="cls-12" cx="827.03" cy="582.85" r="7.01"/>
      <circle class="cls-12" cx="829.26" cy="596.44" r="7.01"/>
      <circle class="cls-12" cx="825.13" cy="608.87" r="7.01"/>
      <circle class="cls-12" cx="817.53" cy="595" r="7.01"/>
      <circle class="cls-12" cx="840.6" cy="605.06" r="7.01"/>
      <circle class="cls-12" cx="840.07" cy="590.22" r="7.01"/>
    </g>
    <g>
      <circle class="cls-12" cx="864.95" cy="665.89" r="7.01"/>
      <circle class="cls-12" cx="867.17" cy="679.48" r="7.01"/>
      <circle class="cls-12" cx="863.05" cy="691.91" r="7.01"/>
      <circle class="cls-12" cx="855.45" cy="678.04" r="7.01"/>
      <circle class="cls-12" cx="878.51" cy="688.1" r="7.01"/>
      <circle class="cls-12" cx="877.99" cy="673.26" r="7.01"/>
    </g>
    <g>
      <circle class="cls-12" cx="781.85" cy="695.39" r="7.01"/>
      <circle class="cls-12" cx="784.08" cy="708.98" r="7.01"/>
      <circle class="cls-12" cx="779.95" cy="721.4" r="7.01"/>
      <circle class="cls-12" cx="772.35" cy="707.54" r="7.01"/>
      <circle class="cls-12" cx="795.42" cy="717.6" r="7.01"/>
      <circle class="cls-12" cx="794.89" cy="702.75" r="7.01"/>
    </g>
    <g>
      <circle class="cls-12" cx="698" cy="708.63" r="7.01"/>
      <circle class="cls-12" cx="700.23" cy="722.22" r="7.01"/>
      <circle class="cls-12" cx="696.1" cy="734.64" r="7.01"/>
      <circle class="cls-12" cx="688.51" cy="720.78" r="7.01"/>
      <circle class="cls-12" cx="711.57" cy="730.84" r="7.01"/>
      <circle class="cls-12" cx="711.04" cy="715.99" r="7.01"/>
    </g>
    <g>
      <circle class="cls-12" cx="600.45" cy="694.07" r="7.01"/>
      <circle class="cls-12" cx="602.68" cy="707.66" r="7.01"/>
      <circle class="cls-12" cx="598.55" cy="720.09" r="7.01"/>
      <circle class="cls-12" cx="590.96" cy="706.22" r="7.01"/>
      <circle class="cls-12" cx="614.02" cy="716.28" r="7.01"/>
      <circle class="cls-12" cx="613.49" cy="701.44" r="7.01"/>
    </g>
    <g>
      <circle class="cls-12" cx="943.77" cy="611.33" r="7.01"/>
      <circle class="cls-12" cx="946" cy="624.92" r="7.01"/>
      <circle class="cls-12" cx="941.87" cy="637.35" r="7.01"/>
      <circle class="cls-12" cx="934.28" cy="623.48" r="7.01"/>
      <circle class="cls-12" cx="957.34" cy="633.54" r="7.01"/>
      <circle class="cls-12" cx="956.81" cy="618.7" r="7.01"/>
    </g>
    <g>
      <circle class="cls-12" cx="764.74" cy="607.69" r="7.01"/>
      <circle class="cls-12" cx="762.07" cy="621.21" r="7.01"/>
      <circle class="cls-12" cx="753.86" cy="631.4" r="7.01"/>
      <circle class="cls-12" cx="751.59" cy="615.75" r="7.01"/>
      <circle class="cls-12" cx="769.68" cy="633.25" r="7.01"/>
      <circle class="cls-12" cx="774.38" cy="619.16" r="7.01"/>
    </g>
    <g>
      <circle class="cls-12" cx="683.93" cy="615.95" r="7.01"/>
      <circle class="cls-12" cx="689.94" cy="628.34" r="7.01"/>
      <circle class="cls-12" cx="689.53" cy="641.42" r="7.01"/>
      <circle class="cls-12" cx="678.29" cy="630.3" r="7.01"/>
      <circle class="cls-12" cx="703.27" cy="633.36" r="7.01"/>
      <circle class="cls-12" cx="698.52" cy="619.28" r="7.01"/>
    </g>
    <g>
      <circle class="cls-12" cx="631.05" cy="602.62" r="7.01"/>
      <circle class="cls-12" cx="634.51" cy="615.95" r="7.01"/>
      <circle class="cls-12" cx="631.53" cy="628.7" r="7.01"/>
      <circle class="cls-12" cx="622.7" cy="615.58" r="7.01"/>
      <circle class="cls-12" cx="646.59" cy="623.5" r="7.01"/>
      <circle class="cls-12" cx="644.71" cy="608.76" r="7.01"/>
    </g>
    <path class="cls-13" d="M547.88,97.43s127.69,147.33,258.26,119.95c0,0-2.18,59.33-43.56,55.8,0,0,22.2,73.91,76.94,85.69,0,0,29.3,18.3,66.56-21.24,43.29-45.93,40.34-105.3-9.07-159.2,0,0-76.1-45.6-133.53-126.08,0,0-113.26-109.06-224.55-12.35,0,0-79.67,4.22-94.35,75.8-8.49,41.4,22,124.41,37.19,179.55,0,0,13.77,144.7,150.35,138.28,0,0,6.26-8.6,4.97-25.09,0,0-26.6,1.25-47.28-23.92-20.69-25.17-29.82-29.12-50.45-54.23,0,0-21.92-24.81-20.9-63.99,0,0-1.23-20.21-9.52-30.26,0,0-26.93-79.67,38.94-138.71"/>
    <path class="cls-4" d="M774.37,259.42s14.95,14.32,5.5,27.33c-9.45,13.02-9.04-13.54-9.04-13.54"/>
    <path class="cls-7" d="M1096.27,532.06s40.75,237.16,39.05,293.76c-1.76,58.52-28.1,72.66-94.53,99.95-71.08,29.21-318.27,76.33-318.27,76.33,0,0-59.46,28-106.24,20.25,0,0,5.49,23.13-7.45,26.48,0,0-6.78,1.27-21.88-16.97,0,0-9.91,13.31-24.34-15.1,0,0-12.99,14.36-23.79-8.42l-3.97-13.76s-13.09,15.08-19.6,9.04c-6.51-6.04,4.1-24.39,4.1-24.39,0,0,6.53-31.4,23.08-34.25,16.54-2.86,55.02-21.03,55.02-21.03l116.71,8.03s121.96-74.77,255.81-152.68c0,0-10.87-69.65-14.25-121.84,0,0,79.42-51.03,140.56-125.39Z"/>
    <path class="cls-2" d="M659.42,928.51l-61.98-4.57-55.02,21.03s-11.31,2.5-17.88,16.73-11.65,32.19-11.65,32.19c0,0-2.52,24.33,21.94,.68,0,0,3.03,28.82,19.07,26.31,0,0,5.71-1.61,8.69-4.12,0,0,14.1,29.53,24.34,15.1,0,0-15.03-23.18-5.55-33.35,9.48-10.17,25.38-10.44,25.38-10.44"/>
    <path class="cls-2" d="M534.84,994.58s2.93-28.41,10.68-35.5c7.75-7.09,23.18-15.04,23.18-15.04"/>
    <path class="cls-2" d="M562.61,1016.76s-6.73-34.75,14.91-49.62"/>
    <path class="cls-2" d="M159.46,907.98s-74.72-8.62-70.2,31.52"/>
    <path class="cls-2" d="M127.29,899.3s33.8-18.93,36.5-20.17"/>
    <path class="cls-2" d="M173.25,896.03s-10.62-27.17,4.51-44"/>
    <g>
      <path class="cls-8" d="M670.6,316.47s-19.89-1.46-38.5,14.11c0,0-19.55-2.24-33.86,11.82,0,0,7.36,17.59,28.27,14.64,27.83-3.92,50.97-20.18,44.08-40.57Z"/>
      <path class="cls-3" d="M674.42,312.68s-28.91,37.58-76.16,29.73"/>
    </g>
    <path class="cls-11" d="M685.99,1086.8s.64,107.51,9.21,166.33c0,0,165.64-19.24,290.24-124,0,0-134.88,29.83-299.46-42.33Z"/>
  </g>
</svg>