<?xml version="1.0" encoding="UTF-8"?>
<svg id="Layer_1" data-name="Layer 1" xmlns="http://www.w3.org/2000/svg" viewBox="0 0 1220 1250.1">
  <defs>
    <style>
      .cls-1, .cls-2, .cls-3, .cls-4, .cls-5, .cls-6 {
        stroke-miterlimit: 10;
      }

      .cls-1, .cls-2, .cls-4 {
        fill: none;
      }

      .cls-1, .cls-2, .cls-5 {
        stroke-width: 1.5px;
      }

      .cls-1, .cls-4 {
        stroke: #231f20;
      }

      .cls-2 {
        stroke: #6d6e71;
      }

      .cls-7 {
        fill: #fff;
      }

      .cls-8 {
        fill: #803435;
      }

      .cls-9 {
        fill: #bd9154;
      }

      .cls-10 {
        fill: #be8c8c;
      }

      .cls-11 {
        fill: #c4e7f6;
      }

      .cls-12, .cls-5 {
        fill: #dcbf97;
      }

      .cls-13 {
        fill: #26130f;
      }

      .cls-3, .cls-6 {
        fill: #808285;
        stroke: #fff;
      }

      .cls-4 {
        stroke-width: 2px;
      }

      .cls-5 {
        stroke: #603913;
      }

      .cls-6 {
        stroke-width: 3px;
      }
    </style>
  </defs>
  <circle class="cls-11" cx="610" cy="640.1" r="610"/>
  <path class="cls-9" d="M158.92,1050.9h901.19s-81.44,100.63-225.43,155.33c0,0-91.33,45.11-224.26,43.2,0,0-117.31,4.79-240.09-48.79,0,0-107.54-35.69-211.4-149.75Z"/>
  <g>
    <rect class="cls-6" x="44.05" y="559.47" width="120.19" height="201.4" rx="21.38" ry="21.38" transform="translate(140.11 -7.2) rotate(12.05)"/>
    <path class="cls-12" d="M846.38,318.44s-24.23,124.49,46.19,143.77c0,0-15.24,182.31-183.66,187.57,0,0-166.1,19.15-89.93-143.55l42.75-23.12c5.28-27.57,9.01-72.31,9.01-72.31l175.64-92.36"/>
    <path class="cls-12" d="M601.22,126.23s-14.62,30.45-9.58,101.22c0,0,1.28,26.41-5.33,41.68,0,0-6.3,57.99,14.62,101.23,20.92,43.24,62.08,69.18,62.08,69.18,0,0,40.42,14.51,73.27,.8,32.85-13.7,79.5-20.18,114.14-99.98,0,0,23.64,21.34,40.9-17.5,17.26-38.83,37.25-51.88,21.46-85.56-15.79-33.68-53.18,32.42-53.18,32.42,0,0,30.08-62.98,11.1-126.75-18.98-63.77-99.6-108.43-99.6-108.43,0,0-116.01-36.09-169.88,91.68Z"/>
    <path class="cls-13" d="M720.32,203.6s45.01-7.43,82.94,8.41c0,0-17.39-25.52-83.37-19.12,0,0-11.25,5.98,.43,10.71Z"/>
    <path class="cls-13" d="M584.78,195.57c32.07-1.04,53.88,6.15,53.88,6.15,12.28-2.82,2.12-10.5,2.12-10.5-19.99-5.22-43.13-5.75-55.43-5.23,0,0-2.32,9.64-.56,9.58Z"/>
    <path class="cls-10" d="M724.36,348.38s-23.11-8.67-51.63-2.38c0,0-23.95-6.29-46.05-2.74,0,0,.1,39.27,36.28,50.11,36.19,10.84,60.73-22.1,61.4-44.99Z"/>
    <path class="cls-8" d="M718.31,350.8s-1.71,34.64-46.73,31.97c-40.88-2.43-39.37-33.27-39.37-33.27,0,0,45.93,4.82,86.1,1.3Z"/>
    <path class="cls-7" d="M712.69,350.96s-12.11,15.37-46.84,11.61c0,0-21.55-.2-29.87-12.16,0,0,44.84,3.65,76.72,.55Z"/>
    <path class="cls-4" d="M659.97,276.66s-28.58,20.26-.95,35.88"/>
    <path class="cls-13" d="M668.39,441.41s38.95,11.25,72.99-1.67c0,0,28.56-8.51,64.35-33.52,0,0-23.53,30.99-87.51,43.44,0,0-21.99,3.81-51.11-.53,0,0,.54-2.96,1.29-7.73Z"/>
    <path class="cls-4" d="M904.75,277.41s-10.7-18.51-24.96-1.13c-14.26,17.39-15.34,23.4-15.34,23.4,0,0,20.6-27.74,26.7-4.13"/>
    <path class="cls-7" d="M509.14,980.7l-61.55-16.54c-23.55,13.35-252.24-165.25-252.24-165.25,2.13-45.79,49.77-77.63,57.5-108.61l230.67,113.31,55.85-174.21s2.66-77.13,55.85-110.38l66.49-35.91c-23.94,75.8,39.01,84.72,39.01,84.72,0,0,94.82,31.11,164.37-117.56,0,0,44.88-4.63,103.51,26.93,79.69,42.91,94.1,124.74,94.1,124.74,30.03,63.83,31.73,308.56,31.73,308.56,2.57,64.22-2.04,75.34-2.04,75.34,0,0-18.76,81.73-99.72,78.94l-380.87-13.29s-16.76-44.98-6.51-82.55c0,0,9.59-13.95,21.8-12.21,0,0-14.45-39.27-13.53-53.72"/>
    <g>
      <path class="cls-7" d="M779.3,239.18s.15-1.41-.78-2.68c-3.08-4.22-10.35-12.25-22.88-13.47-14.03-1.36-23.04,11.07-26.13,15.52-.53,.77-.56,1.48-.56,1.48,0,0-.12,.78,.29,1.37,1.99,2.82,8.75,10.8,22.02,12.29,7.9,.89,19.42-2.29,27.33-12.35,.55-.7,.68-1.65,.71-2.16Z"/>
      <circle class="cls-13" cx="750.12" cy="238.85" r="14.58"/>
      <circle class="cls-7" cx="759.56" cy="236.79" r="4"/>
      <path class="cls-1" d="M728.65,238.49s20.32-31.84,50.43-2.05"/>
    </g>
    <g>
      <path class="cls-7" d="M644.85,238.3s.34-1.29-.34-2.6c-2.26-4.36-7.87-12.87-19.35-15.79-12.86-3.27-23.01,7-26.52,10.69-.61,.64-.73,1.3-.73,1.3,0,0-.23,.7,.08,1.32,1.45,2.9,6.59,11.29,18.72,14.58,7.22,1.96,18.38,.65,27.18-7.58,.61-.57,.87-1.44,.97-1.91Z"/>
      <circle class="cls-13" cx="617.75" cy="233.8" r="13.66"/>
      <circle class="cls-7" cx="627.21" cy="233.56" r="3.83"/>
      <path class="cls-1" d="M598.31,230.98s22.94-28.78,46.47,5.34"/>
    </g>
    <path class="cls-2" d="M596.59,663.89s-35.51,144.85,16.82,231.75"/>
    <path class="cls-2" d="M627.1,956.73l313.39-33.99s-60.74-281.28-14.02-347.63"/>
    <path class="cls-2" d="M940.49,922.75s42.05-8.41,62.61,30.84"/>
    <path class="cls-12" d="M605.3,968.94l-82.23-32.37-66.78,12.37-30.92,40.81s-6.18,14.22,9.28,6.8c15.46-7.42,11.75-6.8,11.75-6.8l-.62,25.97s3.71,17.93,21.02,3.09c0,0,6.18,29.68,18.55,15.46l16.08,27.83s21.64-.62,17.93-20.41l52.56,9.89s28.44,5.57,37.1-4.33"/>
    <path class="cls-5" d="M446.39,989.75s-3.09-22.26,12.99-26.59c16.08-4.33,36.48-9.89,36.48-9.89"/>
    <path class="cls-5" d="M466.8,1018.81s-14.84-34.63,31.54-38.34"/>
    <path class="cls-5" d="M485.35,1034.27s-6.18-30.92,35.86-19.79"/>
    <path class="cls-12" d="M144.62,753.82l45.32,4.38,13.72,14.97,43.91-67.62-5.05-4.64s-8.89-41.82-64.69-91.6c0,0-30.2-16.26-54.89,6.21,0,0-9.33,14.59,20.84,18.65,30.18,4.06,25.32-1.83,25.32-1.83l-24.49,121.47"/>
    <path class="cls-13" d="M668.39,441.41l-6.67,41.7-85.77,52.48c-.06-81.28,2.56,122.63-4.31-130.47-.94-34.59-20.95-95.17-12.85-159.13,8.1-63.96-2.04-178.52,100.61-225.04,102.65-46.52,170.37-1.07,170.37-1.07,0,0,87.91,16.81,113.37,104.73,26.38,91.08,34.59,160.37,21.35,274.5-13.24,114.13,23.32,122.69,23.32,122.69,0,0-31.59-10.04-39.89-33.08,0,0,24.65,36.91,34.2,75.07,0,0-3.92,29.84-34.02,30.19,0,0-22.96-29.29-24.58-56.24,0,0,2.37,32.36,15.89,57.87,0,0-26.12-12.29-47.85,10.04,0,0,9.95-94.99,2.16-126.6,0,0-1.77,101.92-13.12,130.24,0,0-32.74,8.79-53.45-4.25,0,0,17.79-46.2,12.89-72.26,0,0-17.2,18.31-14.32,42.11,0,0-44.68-53.76-20.41-100.64,24.27-46.88,42.17-138.63,42.17-138.63,0,0,30.89,13.27,44.44-16,0,0,39.61-58.4,18.1-80.28-19.07-19.4-50.44,30.39-50.44,30.39,0,0-23.57-40.04-34.97-74.32,0,0-60.7-6.06-101.13-13.67l.84-76.86-9.86,77.82-8.23,.26,1.35-95.87-6.39,92.58-11.16-.66,.62-73.14-7.36,73.48s-23.36,2.33-39.52-.86l1.32-72.35-10.2,71.07s-23.35,2.33-38.04-.77c0,0-10.47,3.94-5.25,51,0,0,6.14,24.21-1.84,41.12,0,0-13.81,52.35,11.13,101.8,19.24,38.14,48.44,60.58,67.46,71.05Z"/>
    <line class="cls-3" x1="73.71" y1="574.9" x2="83.46" y2="617.61"/>
    <line class="cls-3" x1="80.67" y1="564.22" x2="90.42" y2="606.93"/>
    <line class="cls-3" x1="114.56" y1="714.63" x2="124.31" y2="757.34"/>
    <line class="cls-3" x1="121.52" y1="703.95" x2="131.27" y2="746.66"/>
  </g>
</svg>