<?xml version="1.0" encoding="UTF-8"?>
<svg id="Layer_1" data-name="Layer 1" xmlns="http://www.w3.org/2000/svg" viewBox="0 0 1220 1239.72">
  <defs>
    <style>
      .cls-1 {
        stroke: #754c29;
        stroke-width: 1.5px;
      }

      .cls-1, .cls-2, .cls-3, .cls-4, .cls-5, .cls-6, .cls-7 {
        fill: none;
        stroke-miterlimit: 10;
      }

      .cls-8 {
        fill: #00a151;
      }

      .cls-9 {
        fill: #fff200;
      }

      .cls-10 {
        fill: #fff;
      }

      .cls-11 {
        fill: #803435;
      }

      .cls-12 {
        fill: #8dd5e7;
      }

      .cls-13 {
        fill: #be9e7d;
      }

      .cls-14 {
        fill: #c4e7f6;
      }

      .cls-15 {
        fill: #db7777;
      }

      .cls-16 {
        fill: #231f20;
      }

      .cls-17 {
        fill: #414042;
      }

      .cls-18 {
        fill: #26130f;
      }

      .cls-2 {
        opacity: .2;
        stroke-dasharray: 0 2;
      }

      .cls-2, .cls-4 {
        stroke: #476657;
      }

      .cls-2, .cls-5 {
        stroke-width: 4px;
      }

      .cls-3, .cls-4 {
        stroke-width: 2px;
      }

      .cls-3, .cls-6, .cls-7 {
        stroke: #231f20;
      }

      .cls-5 {
        stroke: #1a7044;
      }

      .cls-7 {
        stroke-width: .5px;
      }
    </style>
  </defs>
  <circle class="cls-14" cx="610" cy="629.34" r="610"/>
  <g>
    <path class="cls-13" d="M1139.7,932.09s-294.91,115.29-501.53-16.66l-13.48,50.78s193.86,126.05,480.36,19.4c0,0,15.09-15.3,31.86-48.61l2.78-4.92"/>
    <path class="cls-13" d="M932.86,275.07s8.6,80.2,29.84,127.16c0,0,19.44,219.66-159.04,225.23,0,0-133.06-35.85-52.34-208.27,0,0,32.11-12.53,32.8-43.6,.73-32.9-4.25,.56-4.25,.56l169.46-99.8"/>
    <path class="cls-17" d="M1105.06,985.61c-52.43,77.09-132.42,134.2-132.42,134.2-81.96,64.53-191.8,95.11-191.8,95.11-106.91,31.44-196.85,24.03-196.85,24.03-1.07-16.04,3.6-187.32,38.39-272.89,0,0,210.09,117.62,482.68,19.54"/>
    <path class="cls-13" d="M944.06,231.2s-2.13-166.34-150.33-182.4c0,0-125.9-1.86-102.56,154.44,0,0,4.32,16.75-.07,29.37,0,0-15.66,19.1,1.51,68.18,17.17,49.08,46.07,78.23,46.07,78.23,0,0,17.19,20.33,54.16,21.81,0,0,29.15,4.41,62.83-15.89,0,0,81.55-40.1,78.65-89.37,0,0,38.51,29.61,53.83-32.32,0,0,12.49-84.13-44.09-32.05Z"/>
    <path class="cls-18" d="M808.54,165.54s52.92,1.15,69.66,24.25c0,0-7.96-30.57-67.01-36.07,0,0-12.09,4.05-2.65,11.82Z"/>
    <path class="cls-18" d="M684.75,176.77c.05-2.88,23.69-12.92,47.35-17.06,0,0,12.37,3.07,3.59,11.57,0,0-45.01,1.84-46.17,17.1,0,0-4.9-4.51-4.78-11.61Z"/>
    <path class="cls-3" d="M985.81,246.25s-12.28-34.79-39.97,20.18c0,0,23.03-24.04,26.59-2.94"/>
    <path class="cls-18" d="M777.35,398.65s24.15,5.63,57.83-4.77c0,0,25.57-7.69,54.45-29.92,0,0-38.88,47.72-117.68,41.04"/>
    <path class="cls-8" d="M1139.7,932.09c-40.66,15.65-314.58,113.32-503.85-16.8l3.92-33.66c-6.4-1.36-13.15,18.63-46.57,25.75-7.17,1.53-48.25-3.36-60.82-7.67-113.69-39.01-291.66-129.25-295.86-161.05,0,0-2.24-6.73-28.04-12.84,0,0,25.42-63.29,38.94-92.08l31.7,3.26s5.13-32.64,225.52,69.93c0,0,51.43-69.08,90.84-152.04,0,0,25.26-112.45,155.83-135.7,0,0,105.36,108.07,211.38-16.96,0,0,77.82,48.28,116.27,59.51,0,0,35.07,31.26,87.26,113.56,0,0,64.52,127.15,46.62,268.96,0,0-22.01,68.23-71.37,60.87l2.55,19.06-4.33,7.9Z"/>
    <path class="cls-4" d="M635.85,915.28s8.86-97.15,24.75-130.51c0,0-25.42-54.01,9.53-120.74"/>
    <ellipse class="cls-9" cx="949.57" cy="289.7" rx="6.5" ry="5.37" transform="translate(639.85 1232.93) rotate(-88.79)"/>
    <path class="cls-5" d="M962.7,402.23s-91.1,120.35-211.38,16.96"/>
    <path class="cls-2" d="M1040.16,866.76c2.42,23.7,5.21,47.7,8.43,71.81"/>
    <path class="cls-2" d="M1027.75,446.39s-1.11,21.82-1.78,64.91"/>
    <path class="cls-2" d="M1057.2,462.34s-.67,17.77-1.41,95.53"/>
    <path class="cls-2" d="M998.24,820.58c3.23,43.77,7.6,88.44,13.48,132.42"/>
    <path class="cls-2" d="M993.46,427.4s-.78,13.89-1.6,38.28"/>
    <path class="cls-2" d="M956.67,735.73c3.69,71.77,9.81,149.04,19.78,223.68"/>
    <path class="cls-2" d="M917.13,446.39s-9.54,264.71,24.05,516.22"/>
    <path class="cls-2" d="M882.85,467.03s-8.93,252.09,24.66,503.6"/>
    <path class="cls-2" d="M851.51,472.57s-8.05,249.77,25.54,501.27"/>
    <path class="cls-2" d="M818.33,469.8s-13.35,255.74,20.24,507.24"/>
    <path class="cls-2" d="M784.07,446.39s-14.35,272.73,19.24,524.24"/>
    <path class="cls-2" d="M746.44,430.17s-15.2,284.15,18.39,535.66"/>
    <path class="cls-2" d="M715.1,435.7s-27.15,265.79,6.44,517.3"/>
    <path class="cls-2" d="M681.46,446.39s-11.22,227.65,0,477.75"/>
    <path class="cls-3" d="M749.07,244.47s-21.28,30.24,14.61,34.62"/>
    <path class="cls-6" d="M762.93,152.4s13.76,12.19,.74,24.12"/>
    <path class="cls-6" d="M785.42,151.63s-14.56,12.29-.23,25.16"/>
    <path class="cls-15" d="M732.12,328.88s12.32-27.38,40.01-21.41c0,0,22.08-15.94,57.89,18.08,0,0-13.04,24.93-49.88,30.32s-48.02-26.98-48.02-26.98Z"/>
    <path class="cls-11" d="M735.13,328.96s21.62-29.97,89.5-2.68c0,0-37.23,12.42-48.81,18.51,0,0-21.59-9.12-40.69-15.83Z"/>
    <path class="cls-10" d="M744.72,321.56s20.52-14.44,60.36-1.77c0,0-46.26,1.51-60.36,1.77Z"/>
    <path class="cls-13" d="M213.3,713.63l-11.95-5.31-45.82,10.29-98.05-28.6L.28,639.82s-4.09-30.93,37.35-6.42c0,0,11.67-15.76,42.02,17.51,0,0,4.67-33.85,36.19-7,0,0,14.01-10.51,5.25-19.26s-32.1-17.51-32.1-17.51c0,0-19.84-16.34-5.84-30.35,14.01-14.01,53.7,22.18,53.7,22.18l60.12,9.92,37.94,29.77,9.34,2.33-30.94,72.64Z"/>
    <path class="cls-1" d="M65.84,682.29l-34.33-41.1s9.42-31.56,48.15,9.71l34.57,40.23,7.8,5.2"/>
    <path class="cls-1" d="M169.78,687.86c-13.84-16.76-32.05-14.57-32.05-14.57l-21.89-29.38s-28.15-26.57-36.19,7"/>
    <path class="cls-1" d="M123.05,633.16s3.09-14.28,16.98-13.9"/>
    <path class="cls-1" d="M115.84,643.9s21.34-12.8-6.03-26.68c-12.9-6.54-20.81-10.09-20.81-10.09,0,0-19.95-16.65-5.84-30.35,14.11-13.7,53.7,22.18,53.7,22.18l60.12,9.92,37.94,29.77s4.32,20.37-15.75,31.95"/>
    <line class="cls-1" x1="234.9" y1="638.65" x2="244.24" y2="640.98"/>
    <polyline class="cls-1" points="87.91 698.54 155.53 718.61 201.35 708.32 213.3 713.63"/>
    <path class="cls-1" d="M20.72,625.2s11.8,3.34,16.92,8.2"/>
    <path class="cls-2" d="M246.3,722.01s142.57,121,334.86,160.4c0,0,49.71,8.44,72.23-116.31"/>
    <path class="cls-2" d="M260.37,697.63s195.1,130.38,307.66,140.7c0,0,56.28-11.26,82.54-142.57"/>
    <path class="cls-2" d="M279.13,665.74s204.78,127.21,263.48,127.92c77.85,.94,99.52-316.45,99.52-316.45"/>
    <path class="cls-2" d="M612.12,524.1s-36.97,173.97-73.55,209.62-203.15-86.74-203.15-86.74"/>
    <path class="cls-2" d="M1087.75,483.86s7.24,95.22,0,119.02"/>
    <path class="cls-2" d="M1115.69,508.7s28.98,129.37,8.28,192.51"/>
    <path class="cls-2" d="M931.47,561.49s46.57,273.23,216.31,330.16c0,0,64.17,13.45,53.82-166.63"/>
    <path class="cls-2" d="M954.24,549.07s77.62,267.02,191.47,308.42c0,0,48.64,17.59,44.5-195.61"/>
    <path class="cls-2" d="M992.53,534.58s77.62,243.22,139.72,255.64c62.1,12.42,35.19-153.18,35.19-153.18"/>
    <path class="cls-2" d="M1018.41,524.23s79.69,196.65,112.81,215.27"/>
    <path class="cls-16" d="M944.06,231.2s-72.68-59.79-73.24-154.75c0,0-63.95,51.25-181,65.45,0,0-18.1-63.79,57.61-100.86,75.71-37.07,160.04-7.58,160.04-7.58,0,0,1.93-12.7,17.41-11.27,0,0,67.17-54.94,145.46,8.08,0,0,83.92,59.09,34.08,244.13-49.84,185.04,114.98,303.41,114.98,303.41,0,0-207.01-94.92-217.21-298.15,0,0-1.72,68.52-70.28,62.09,0,0-2.63-22.82,2.41-46.18,0,0,39.51,24.09,53.83-32.32,0,0,8.06-42.6-12.74-48.02,0,0-14.22-.89-31.35,15.97Z"/>
    <path class="cls-13" d="M913.95,511.3s-30.03-28.4-19.4-86.57c10.63-58.17,4.47-58.17,4.47-58.17,0,0-34.12-43.07-8.39-54.82l27.97,36.36,3.36,17.9,2.24-29.65-21.81-35.24s-11.19-17.34,2.8-27.41l19.58,17.9s-15.66-19.58-1.68-30.76l15.66,13.42s-1.68-2.24,5.03-7.83l40.83,48.66,2.24,76.63-8.95,72.72-63.95,46.86Z"/>
    <path class="cls-1" d="M892.87,452.7s-2.24-48.1,6.15-86.14c0,0-30.76-35.8-8.39-54.82l27.97,36.36,3.36,17.9,2.24-29.65s-40.83-46.43-19.02-62.65l19.58,17.9s-16.78-21.81-1.68-30.76l15.66,13.42s-3.36-6.15,5.03-7.83l40.83,48.66"/>
    <polyline class="cls-1" points="924.75 291.61 950.49 326.85 950.49 369.36"/>
    <polyline class="cls-1" points="938.74 274.27 970.62 312.86 968.94 350.9"/>
    <rect class="cls-16" x="781.23" y="315.28" width="2.29" height="4.58" transform="translate(1573.68 612.19) rotate(178.33)"/>
    <rect class="cls-16" x="771.9" y="315.27" width="2.29" height="4.58" transform="translate(1555.02 612.43) rotate(178.33)"/>
    <rect class="cls-16" x="762.47" y="315.69" width="2.29" height="4.58" transform="translate(1536.18 613.55) rotate(178.33)"/>
    <path class="cls-7" d="M793.41,317.22s-18.21,.55-40.62,.99"/>
    <path class="cls-3" d="M695.98,207.14s11.68,23.68,39.16,4.33"/>
    <path class="cls-3" d="M818.1,211.88s19.6,21.52,44.07-1.9"/>
    <path class="cls-12" d="M727.44,223.18s-5.45,6.84-3.81,11.65c1.64,4.8,7.93,.55,7.93,.55,0,0,2.12-3.51-4.12-12.2Z"/>
    <path class="cls-12" d="M817.63,218.95s-5.45,6.84-3.81,11.65,7.93,.55,7.93,.55c0,0,2.12-3.51-4.12-12.2Z"/>
    <path class="cls-12" d="M822.54,236.99s-4.07,5.11-2.85,8.7c1.22,3.59,5.93,.41,5.93,.41,0,0,1.58-2.62-3.08-9.12Z"/>
    <path class="cls-4" d="M1115.96,701.05c-17.61-98.61-110.18-218.2-110.18-218.2l-7.9,4.52-12.42-28.22-74.51,55.32,13.55,39.51-6.77,10.16c12.51,320.13,223.76,341,223.76,341"/>
  </g>
</svg>