<?xml version="1.0" encoding="UTF-8"?>
<svg id="Layer_1" data-name="Layer 1" xmlns="http://www.w3.org/2000/svg" viewBox="0 0 1220 1238.14">
  <defs>
    <style>
      .cls-1, .cls-2, .cls-3, .cls-4 {
        stroke-width: 1.5px;
      }

      .cls-1, .cls-2, .cls-3, .cls-4, .cls-5, .cls-6, .cls-7, .cls-8 {
        fill: none;
        stroke-miterlimit: 10;
      }

      .cls-1, .cls-5, .cls-7 {
        stroke: #231f20;
      }

      .cls-2 {
        stroke: #754c29;
      }

      .cls-3 {
        stroke: #be1e2d;
      }

      .cls-4, .cls-6 {
        stroke: #476657;
      }

      .cls-5 {
        stroke-width: .4px;
      }

      .cls-9 {
        fill: #00a151;
      }

      .cls-10 {
        fill: #fff200;
      }

      .cls-11 {
        fill: #fff;
      }

      .cls-12 {
        fill: #803435;
      }

      .cls-13 {
        fill: #b6302e;
      }

      .cls-14 {
        fill: #ae8578;
      }

      .cls-15 {
        fill: #be9e7d;
      }

      .cls-16 {
        fill: #c4e7f6;
      }

      .cls-17 {
        fill: #db7777;
      }

      .cls-18 {
        fill: #dc3b28;
      }

      .cls-19 {
        fill: #134a7e;
      }

      .cls-20 {
        fill: #231f20;
      }

      .cls-21 {
        fill: #414042;
      }

      .cls-22 {
        fill: #26130f;
      }

      .cls-6 {
        opacity: .2;
        stroke-dasharray: 0 2;
      }

      .cls-6, .cls-7 {
        stroke-width: 2px;
      }

      .cls-8 {
        stroke: #1a7044;
        stroke-width: 4px;
      }
    </style>
  </defs>
  <circle class="cls-16" cx="610" cy="628.14" r="610"/>
  <g>
    <path class="cls-19" d="M540.99,1129.31s6.6,79.78,2.75,104.53c0,0-67.67-5.5-119.94-24.76,0,0-96.42-31.06-162.65-81.27l279.83,1.5Z"/>
    <path class="cls-15" d="M278.24,273.63s-6.12,52.47-29.15,96.62c0,0-5.76,161.24,117.09,173.72,0,0,85.7-62.8,49.57-166.25l-137.51-104.09Z"/>
    <path class="cls-18" d="M261.15,1127.81c29.08,14.44,70.08,.52,113.53,1.11h170.48s-26.59-161.27-12.73-370.48c0,0,99.57-40.33,117.21-69.32l-54.19-129.81s-20.7-59.77-66.46-116.81c0,0-51.07-35.16-96.46-46.11l-59.98,49.68-12.7,62.48-31.28-63.27s-59.8-23.6-88.37-85.23c0,0-107.82,25.08-157.15,77.63,0,0-46.21,30.21-49.5,111.07,0,0-10.38,84.85-22.18,196.38,0,0,63.59,47.29,141.88,46.22l-42.96,188.07s86.75,116.54,150.88,148.4Z"/>
    <path class="cls-13" d="M265.62,333.65s-16.03-3.77-22.1,16.47c-3.9,13-18.56,13.85-18.56,13.85,0,0,4.69,55.04,49.75,92.31,0,0,20.9-22.7,53.83-11,0,0-91.96-65.7-62.93-111.63Z"/>
    <path class="cls-13" d="M415.75,377.73s9.82,21.99-43.2,68.34c0,0,38.88-3.93,54.2,12.96,0,0,12.96-32.21,14.92-65.59,0,0-12.18-17.28-25.92-15.71Z"/>
    <path class="cls-15" d="M511.44,98.71s19.94,38.37,2.4,121.96c0,0-6.22,19.81-5.5,31.05,.72,11.24-1.68,29.46-7.37,40.61-5.69,11.15-46.53,85.51-46.53,85.51,0,0-12.95,21.41-52.88,16.51-39.93-4.9-71.82-23.99-83.92-42.72-12.1-18.72-44.38-50.75-44.49-77.05,0,0-24.39,2.23-30.24-27.53,0,0-19.86-47.7,7.42-55.79,27.28-8.09,37.44,29.53,37.44,29.53,0,0-16.63-108.98,47.65-141.95,0,0,80.62-50.8,176.01,19.86Z"/>
    <path class="cls-20" d="M420.23,173.56s-34.65-5.54-62.35,10.46c0,0,11.47-24.42,61.95-20.49,0,0,8.94,5.25,.4,10.03Z"/>
    <path class="cls-20" d="M517.18,206.65c-20.38-13.45-34.07-11.84-34.07-11.84-6.7-7.14,3.4-9.45,3.4-9.45,15.37,3.57,26.3,8.63,34.06,13.89,0,0-2.27,8.13-3.39,7.39Z"/>
    <path class="cls-7" d="M451.72,228.18l14.64,52.86s2.78,15-12.7,12.57l-15.49-2.43"/>
    <path class="cls-20" d="M385.72,356.96l-23.41,28.64s38.6,17.8,70.21,10.78l5.23-27.02s-33.83,4.94-52.04-12.4Z"/>
    <path class="cls-7" d="M246.3,209.99s12.41-12.63,20.25,4.27c7.83,16.89,7.45,21.94,7.45,21.94,0,0-10.77-26.5-20.55-8.84"/>
    <path class="cls-20" d="M240.87,194.69s22-14.44,33.48,7.41c11.49,21.85,7.67,30.47,7.67,30.47l13.29,1.75s-7.85-116.57,42.92-153.92c0,0,87.7,72.13,185.18,26.89,0,0,7.67-69.65-97.74-101.37,0,0-70.19-20.13-96.87,13.84,0,0-53.5-9.62-76.29,52.38-22.79,62-11.64,122.55-11.64,122.55Z"/>
    <path class="cls-22" d="M404,393.68s-35.4-1.77-61.86-19.21c0,0-16.59-7.85-35.83-37.41,0,0,16.76,41.94,58.75,53.38,0,0,18.51,7.14,38.94,3.23,0,0-1.54,4.03,0,0Z"/>
    <g>
      <path class="cls-11" d="M374.06,201.67s.14-.92,.94-1.58c2.65-2.18,8.6-6.09,16.77-4.81,9.15,1.44,12.84,10.83,14.08,14.17,.21,.58,.11,1.04,.11,1.04,0,0-.05,.51-.41,.82-1.73,1.47-7.34,5.43-16.03,4.2-5.17-.73-11.98-4.65-15.36-12.35-.24-.54-.16-1.16-.1-1.49Z"/>
      <circle class="cls-22" cx="392.69" cy="206.26" r="9.58"/>
      <circle class="cls-11" cx="387.02" cy="203.39" r="2.63"/>
      <path class="cls-1" d="M406.41,209.56s-7.7-23.6-31.75-9.6"/>
    </g>
    <g>
      <path class="cls-11" d="M478.38,225.99s0-.88,.65-1.6c2.16-2.4,7.12-6.9,14.91-6.87,8.72,.03,13.49,8.24,15.12,11.16,.28,.5,.25,.95,.25,.95,0,0,.03,.49-.27,.82-1.4,1.61-6.05,6.1-14.31,6.2-4.91,.06-11.8-2.61-16.05-9.29-.3-.47-.31-1.06-.3-1.37Z"/>
      <circle class="cls-22" cx="496.36" cy="227.58" r="8.98"/>
      <circle class="cls-11" cx="490.39" cy="225.88" r="2.52"/>
      <path class="cls-1" d="M509.2,228.98s-9.86-22.08-30.45-4.24"/>
    </g>
    <path class="cls-1" d="M439.24,162.18s4.75,11.65-4.56,17.04"/>
    <path class="cls-3" d="M153.23,791.35s30.63-113.81,30.63-189.55"/>
    <path class="cls-15" d="M11.36,745.12c14.61,76.86,47.25,146.12,47.25,146.12,37.72,80.74,93.06,139.34,93.06,139.34l-15.68-138.77,17.25-100.46s-68.11,3.92-141.88-46.22"/>
    <path class="cls-15" d="M645.59,692.92l37.38,70.15s160.68-5.58,204.48,2.09l31.76-36.14s5.94-8.45,16.7-11.52l41.47-22.02s16.38,7.17-8.19,27.65l-15.36,9.73,52.74,5.63-38.91,93.19-75.78-4.1-242.18,57.35s-30.72,6.14-56.83-15.87c-26.11-22.02-63.49-67.59-63.49-67.59l3.07-43.03s59.07-22.15,113.16-65.52Z"/>
    <path class="cls-3" d="M529.36,801.47s16.7-190.21,12.46-249.54"/>
    <path class="cls-2" d="M682.97,763.07s-34.36,.96-40.4,32.18"/>
    <path class="cls-14" d="M376.87,302.24s21.03-3.55,44.17,6.49c0,0,21.34-1.39,39.5,5.26,0,0-6.55,33.28-39.02,36.51-32.47,3.23-47.86-28.74-44.65-48.27Z"/>
    <path class="cls-12" d="M381.6,305.28s-4.25,29.66,34.36,34.8c35.07,4.67,38.86-21.72,38.86-21.72,0,0-39.74-3.48-73.22-13.08Z"/>
    <path class="cls-11" d="M386.33,306.35s7.74,15.03,37.81,17.57c0,0,18.31,3.38,27.33-5.39,0,0-38.62-4.29-65.14-12.17Z"/>
  </g>
  <g>
    <path class="cls-15" d="M976.86,1115.51c-104.86-11.51-175.14-67.25-175.14-67.25l10.21-38.46c59.54,28.96,178.6,40.51,241.71,36.72,0,0-35.08,38.96-76.78,68.99"/>
    <path class="cls-15" d="M1036.87,524.93s6.52,60.74,22.6,96.3c0,0,14.72,166.36-120.45,170.58,0,0-100.77-27.15-39.64-157.73,0,0,24.32-9.49,24.84-33.02,.55-24.92-3.21,.42-3.21,.42l128.34-75.59"/>
    <path class="cls-21" d="M770.51,1216.06c-11.94,2.37,15.72-105.41,31.22-167.8,0,0,74.45,56.55,186.24,59.15,0,0-111.41,87.56-217.46,108.64Z"/>
    <path class="cls-15" d="M1060.82,502.29s20.42-124.33-87.97-155.9c0,0-93.64-18.04-96.91,101.6,0,0,1,13.06-3.94,21.89,0,0-14.2,12.17-7.89,51.04,6.31,38.87,24.01,64.43,24.01,64.43,0,0,10.13,17.43,37.5,23.43,0,0,21.16,7.14,48.95-3.54,0,0,66.12-19.12,70.47-56.24,0,0,23.4,23.66,44.42-16.98,0,0,22.88-57.55-28.64-29.73Z"/>
    <path class="cls-22" d="M968.44,435.4s39.31,7.86,48.74,27.3c0,0-1.89-23.85-45.19-35.76,0,0-9.55,1.42-3.54,8.47Z"/>
    <path class="cls-22" d="M874.65,427.4c.42-2.14,19.38-6.5,37.57-6.46,0,0,8.82,3.93,1.15,9.1,0,0-33.81-4.58-36.69,6.64,0,0-3.06-4.01-2.03-9.29Z"/>
    <circle class="cls-22" cx="890.46" cy="453.46" r="7.63"/>
    <path class="cls-7" d="M1089.95,519.04s-4.55-27.57-32.47,9.76c0,0,20.35-14.88,20.22,1.32"/>
    <path class="cls-22" d="M923.4,608.07s10.28,5.14,36.77,1.85c0,0,18.02-3.06,42.49-15.82,0,0-35.24,28.59-80.55,17.67"/>
    <path class="cls-9" d="M1037.06,1063.72c-11.78,11.02-147.54-.59-225.13-53.93l2.97-25.49c-4.85-1.03-9.96,14.11-35.27,19.5-5.43,1.16-36.54-2.54-46.06-5.81-86.1-29.54-202.4-77.48-205.58-101.57l1.57-99.07,12.2,1.68s3.88-24.72,170.8,52.96c0,0,38.95-52.32,68.8-115.14,0,0,19.13-85.17,118.02-102.77,0,0,79.79,81.85,160.09-12.85,0,0,58.93,36.56,88.06,45.07,0,0,24.53,21.86,61.51,78.87,0,0-16.32,95.36-65.48,178.33,0,0-39.79,77.8-106.5,140.22Z"/>
    <path class="cls-4" d="M811.93,1009.8s6.71-73.57,18.75-98.84c0,0-19.25-40.91,7.22-91.44"/>
    <ellipse class="cls-10" cx="1057.19" cy="546.65" rx="4.92" ry="4.06" transform="translate(314.44 1476.59) rotate(-78.73)"/>
    <path class="cls-8" d="M1059.47,621.23s-68.99,91.14-160.09,12.85"/>
    <path class="cls-6" d="M1097.68,657.78c1.37,13.37,14.24,201.8,21.72,304.62"/>
    <path class="cls-6" d="M1072.87,636.06c2.04,27.72,14.14,267.06,20.65,364.22"/>
    <path class="cls-6" d="M1049.06,647.1c2.62,51.1,12.05,306.29,19.44,383.61"/>
    <path class="cls-6" d="M1024.96,654.68s-7.23,200.48,18.21,390.96"/>
    <path class="cls-6" d="M999,670.32s-6.77,190.92,18.68,381.4"/>
    <path class="cls-6" d="M975.26,674.5s-6.1,189.16,19.34,379.64"/>
    <path class="cls-6" d="M950.13,672.41s-10.11,193.68,15.33,384.16"/>
    <path class="cls-6" d="M924.18,654.68s-10.87,206.55,14.57,397.03"/>
    <path class="cls-6" d="M895.68,642.39s-11.51,215.2,13.93,405.68"/>
    <path class="cls-6" d="M871.95,646.58s-20.56,201.3,4.88,391.78"/>
    <path class="cls-6" d="M846.48,654.68s-8.5,172.41,0,361.82"/>
    <path class="cls-7" d="M913.65,486.39s-19.87,19.73,6.32,27.75"/>
    <g>
      <path class="cls-11" d="M1001.26,473.79s.2-.81-.24-1.62c-1.45-2.7-5.03-7.95-12.22-9.67-8.05-1.92-14.28,4.59-16.44,6.92-.37,.4-.44,.82-.44,.82,0,0-.13,.44,.06,.82,.93,1.8,4.22,6.98,11.81,8.91,4.52,1.15,11.47,.23,16.88-4.99,.38-.36,.53-.9,.59-1.2Z"/>
      <circle class="cls-22" cx="984.32" cy="471.25" r="8.56"/>
      <circle class="cls-11" cx="989.97" cy="470.81" r="2.35"/>
      <path class="cls-1" d="M971.86,469.32s14.37-16.88,29.49,2.86"/>
    </g>
    <g>
      <path class="cls-11" d="M905.85,458.25s.3-.72,0-1.54c-.96-2.72-3.54-8.11-9.98-10.74-7.21-2.94-13.94,2.22-16.28,4.09-.4,.32-.53,.7-.53,.7,0,0-.19,.39-.06,.77,.61,1.8,2.93,7.09,9.71,9.98,4.04,1.72,10.63,1.85,16.41-2.22,.4-.28,.62-.77,.72-1.03Z"/>
      <circle class="cls-22" cx="890.46" cy="453.46" r="8.02"/>
      <circle class="cls-11" cx="895.97" cy="454.08" r="2.25"/>
      <path class="cls-1" d="M879.38,450.26s15.65-14.89,26.59,6.84"/>
    </g>
    <path class="cls-6" d="M516.91,863.42s107.98,91.64,253.61,121.48c0,0,37.65,6.39,54.7-88.09"/>
    <path class="cls-6" d="M527.56,844.95s147.76,98.74,233.01,106.56c0,0,42.62-8.52,62.51-107.98"/>
    <path class="cls-6" d="M541.77,820.8s155.09,96.34,199.55,96.88c58.96,.71,75.37-239.66,75.37-239.66"/>
    <path class="cls-6" d="M793.96,713.53s-28,131.76-55.71,158.75c-27.7,26.99-153.86-65.69-153.86-65.69"/>
    <g>
      <path class="cls-17" d="M962.1,547.76s-26.48-14.99-41.03-7.8c0,0-6.26-9.53-31.26-5.4,0,0-9.01,33.26,25.78,39.88,39.73,7.55,46.5-26.68,46.5-26.68Z"/>
      <path class="cls-12" d="M955.96,550.36s-8.09,21.33-35.66,16.36c-27.57-4.97-26.19-27.85-26.19-27.85,0,0,45.76,4.12,61.85,11.48Z"/>
      <path class="cls-11" d="M949.41,547.98s-7.73,5.46-28.96,1.88c-19.55-3.29-23.95-10.84-23.95-10.84,0,0,29.36,1.79,52.91,8.96Z"/>
      <rect class="cls-20" x="927.48" y="544.61" width="2.62" height="5.24" transform="translate(1739.1 1258.22) rotate(-169.24)"/>
      <rect class="cls-20" x="919.22" y="543.27" width="2.62" height="5.24" transform="translate(1722.98 1254.02) rotate(-169.24)"/>
      <rect class="cls-20" x="912.83" y="541.96" width="2.62" height="5.24" transform="translate(1710.55 1250.24) rotate(-169.24)"/>
      <rect class="cls-20" x="906.05" y="540.38" width="2.62" height="5.24" transform="translate(1697.41 1245.84) rotate(-169.24)"/>
      <path class="cls-5" d="M944.41,546.74s-15.45,3.73-42.97-6.55"/>
    </g>
    <path class="cls-6" d="M1118.25,669.74s32.54,115.49,51.49,199.58"/>
    <path class="cls-6" d="M1146.13,679.64s24.98,65.67,43.7,138.32"/>
    <path class="cls-6" d="M1191.11,739.9s4.91,11.97,11.58,31.32"/>
    <path class="cls-20" d="M1060.82,502.29s-46.29-54.2-34.14-125.08c0,0-54.47,29.76-143.63,24.86,0,0-5.06-49.96,56.3-67.59,61.36-17.63,120.34,15.51,120.34,15.51,0,0,3.12-9.22,14.48-6.1,0,0,57.36-32.09,107.4,25.27,0,0,54.76,55.16-6.88,186.56-61.64,131.4,23.44,234.51,23.44,234.51,0,0-119.65-91.2-100.37-244.1,0,0-10.34,50.87-60.62,37,0,0,1.06-17.37,7.91-34.12,0,0,26.27,23.19,44.42-16.98,0,0,11.64-30.7-3.15-37.49,0,0-10.49-2.55-25.49,7.76Z"/>
    <path class="cls-4" d="M1147.13,917.55s-28.91-73.38-33.35-121.19"/>
  </g>
</svg>