<?xml version="1.0" encoding="UTF-8"?>
<svg id="Layer_1" data-name="Layer 1" xmlns="http://www.w3.org/2000/svg" xmlns:xlink="http://www.w3.org/1999/xlink" viewBox="0 0 1291.3 1260.03">
  <defs>
    <style>
      .cls-1, .cls-2, .cls-3, .cls-4, .cls-5, .cls-6, .cls-7, .cls-8, .cls-9, .cls-10, .cls-11, .cls-12 {
        fill: none;
      }

      .cls-2, .cls-3 {
        stroke-width: 1.5px;
      }

      .cls-2, .cls-3, .cls-4, .cls-5, .cls-6, .cls-7, .cls-8, .cls-9, .cls-10, .cls-11, .cls-12 {
        stroke-miterlimit: 10;
      }

      .cls-2, .cls-6, .cls-9, .cls-12 {
        stroke: #231f20;
      }

      .cls-3, .cls-10 {
        stroke: #754c29;
      }

      .cls-13 {
        clip-path: url(#clippath);
      }

      .cls-14 {
        fill: #00a151;
      }

      .cls-15 {
        fill: #fff200;
      }

      .cls-16 {
        fill: #fff;
      }

      .cls-17 {
        fill: #803435;
      }

      .cls-18 {
        fill: #b6302e;
      }

      .cls-19 {
        fill: #8dd5e7;
      }

      .cls-20 {
        fill: #ae8578;
      }

      .cls-21 {
        fill: #be9e7d;
      }

      .cls-22 {
        fill: #c4e7f6;
      }

      .cls-23 {
        fill: #db7777;
      }

      .cls-24 {
        fill: #dc3b28;
      }

      .cls-25 {
        fill: #231f20;
      }

      .cls-26 {
        fill: #414042;
      }

      .cls-27 {
        fill: #26130f;
      }

      .cls-4, .cls-5 {
        opacity: .2;
        stroke-dasharray: 0 2;
      }

      .cls-4, .cls-5, .cls-7 {
        stroke: #476657;
      }

      .cls-4, .cls-8 {
        stroke-width: 4px;
      }

      .cls-5, .cls-6, .cls-7 {
        stroke-width: 2px;
      }

      .cls-8 {
        stroke: #1a7044;
      }

      .cls-11 {
        stroke: #be1e2d;
      }

      .cls-12 {
        stroke-width: .5px;
      }
    </style>
    <clipPath id="clippath">
      <path class="cls-1" d="M975.13,1137.75s198.22-120.64,238.4-401.26l-5.68-303.63-27.49-81.33-81.33-24.05-68.73,25.2-116.84,2.29-64.15,58.42-3.44,113.4,10.89,83.44,42.95,51.72-96.22,57.27-92.78,182.13-180.98-60.71-37.8,6.87-29.78-25.2-46.96-5.73-56.13-24.05-76.75,54.98,72.16,121.42,254.29,64.15,187.85,71.02,146.62,37.8,31.88-4.15Z"/>
    </clipPath>
  </defs>
  <circle class="cls-22" cx="610" cy="650.03" r="610"/>
  <g>
    <path class="cls-21" d="M270.84,294.58s-6.58,56.49-31.38,104.02c0,0-6.2,173.58,126.05,187.01,0,0,92.26-67.61,53.36-178.97l-148.03-112.06Z"/>
    <path class="cls-24" d="M27.26,830.67C-1.77,743.87,.09,650.61,.09,650.61c4.42-37.07,7.32-59.86,7.32-59.86,3.55-87.04,53.29-119.57,53.29-119.57,53.11-56.57,169.18-83.57,169.18-83.57,30.75,66.35,95.13,91.75,95.13,91.75l33.68,68.11,13.68-67.26,64.57-53.49c48.86,11.79,103.84,49.64,103.84,49.64,49.27,61.41,71.55,125.75,71.55,125.75l58.34,139.75c-18.99,31.21-126.18,74.62-126.18,74.62-14.92,225.23,13.7,398.84,13.7,398.84-85.27,0-175.98-.19-175.98-.19,0,0-165.46-50.33-278.27-224.51"/>
    <path class="cls-24" d="M27.26,830.67c28,10.96,66.67,21.82,109,21.24l-32.31,138.11"/>
    <path class="cls-18" d="M251.44,371.55s-15.64-3.68-21.56,16.07c-3.81,12.68-10.57,15.22-10.57,15.22,0,0-2.96,52.01,41.01,88.37,0,0,32.56-23.25,64.69-11.84,0,0-101.9-63-73.57-107.82Z"/>
    <path class="cls-18" d="M418.87,406.64s10.57,23.68-46.51,73.57c0,0,41.86-4.23,58.35,13.95,0,0,13.95-34.67,16.07-70.61,0,0-13.11-18.6-27.91-16.91Z"/>
    <path class="cls-21" d="M521.89,106.26s21.47,41.3,2.59,131.3c0,0-6.69,21.33-5.92,33.43,.77,12.1-1.81,31.71-7.93,43.72-6.12,12.01-50.09,92.06-50.09,92.06,0,0-13.95,23.05-56.93,17.78-42.98-5.27-77.31-25.83-90.35-45.99-13.03-20.16-47.78-54.63-47.9-82.95,0,0-26.25,2.41-32.55-29.64,0,0-21.39-51.35,7.99-60.06,29.37-8.71,40.31,31.79,40.31,31.79,0,0-17.9-117.32,51.3-152.81,0,0,86.79-54.69,189.48,21.38Z"/>
    <path class="cls-25" d="M423.03,195.57s-35.82-11.98-68.06,.16c0,0,16.47-23.92,69.4-10.88,0,0,8.57,7.14-1.34,10.73Z"/>
    <path class="cls-25" d="M528.07,222.46c-21.94-14.48-36.68-12.74-36.68-12.74-7.22-7.68,3.66-10.17,3.66-10.17,16.55,3.84,28.31,9.29,36.66,14.96,0,0-2.45,8.75-3.65,7.96Z"/>
    <path class="cls-6" d="M457.6,245.64l15.77,56.9s3,16.15-13.67,13.53l-16.67-2.62"/>
    <path class="cls-25" d="M386.55,384.28l-25.2,30.84s41.55,19.17,75.58,11.61l5.64-29.09s-36.42,5.32-56.02-13.35Z"/>
    <path class="cls-6" d="M236.46,226.07s13.36-13.59,21.79,4.59c8.43,18.19,8.02,23.62,8.02,23.62,0,0-11.6-28.53-22.13-9.52"/>
    <path class="cls-25" d="M230.61,209.59s23.68-15.54,36.05,7.98c12.36,23.52,8.25,32.8,8.25,32.8l14.31,1.88s-8.45-125.49,46.21-165.7c0,0,94.41,77.65,199.35,28.95,0,0,8.26-74.98-105.22-109.12,0,0-75.56-21.68-104.28,14.9,0,0-57.6-10.36-82.13,56.38-24.54,66.75-12.53,131.93-12.53,131.93Z"/>
    <path class="cls-27" d="M406.22,423.81s-38.11-1.91-66.59-20.68c0,0-17.86-8.45-38.58-40.27,0,0,18.04,45.15,63.25,57.47,0,0,19.93,7.69,41.92,3.48,0,0-1.65,4.33,0,0Z"/>
    <g>
      <path class="cls-16" d="M374,217.1s.15-.99,1.01-1.7c2.86-2.34,9.26-6.56,18.06-5.17,9.85,1.55,13.82,11.66,15.15,15.25,.23,.62,.12,1.12,.12,1.12,0,0-.05,.55-.44,.89-1.86,1.58-7.9,5.85-17.26,4.52-5.57-.79-12.89-5-16.54-13.3-.25-.58-.17-1.25-.1-1.61Z"/>
      <circle class="cls-27" cx="394.05" cy="222.04" r="10.31"/>
      <circle class="cls-16" cx="387.94" cy="218.96" r="2.83"/>
      <path class="cls-9" d="M408.82,225.6s-8.29-25.4-34.18-10.33"/>
    </g>
    <g>
      <path class="cls-16" d="M486.3,243.29s0-.94,.7-1.72c2.32-2.59,7.67-7.42,16.05-7.39,9.38,.03,14.52,8.87,16.27,12.02,.3,.54,.27,1.02,.27,1.02,0,0,.03,.52-.29,.89-1.5,1.73-6.51,6.57-15.4,6.67-5.29,.06-12.71-2.81-17.28-10-.32-.5-.34-1.14-.33-1.48Z"/>
      <circle class="cls-27" cx="505.66" cy="245" r="9.67"/>
      <circle class="cls-16" cx="499.23" cy="243.16" r="2.71"/>
      <path class="cls-9" d="M519.48,246.51s-10.62-23.77-32.78-4.56"/>
    </g>
    <path class="cls-2" d="M458.13,186.75s5.11,12.54-4.91,18.34"/>
    <path class="cls-2" d="M471.68,190.07s-8.58,9.44-3.32,19.29"/>
    <path class="cls-20" d="M378.51,341.25s23.42-21.71,54.11-10.25c0,0,28.09-2.93,36.65,23.82,0,0-7.56,15.69-43.82,9.54-36.26-6.15-46.94-23.11-46.94-23.11Z"/>
    <path class="cls-17" d="M385.31,341.03s45.72-22.16,79.65,12.13c0,0-24.27-.7-37.81,3.17,0,0-13.36-9.14-41.85-15.3Z"/>
    <path class="cls-11" d="M136.27,851.91s32.98-122.52,32.98-204.05"/>
    <path class="cls-21" d="M666.31,745.95l40.24,75.51s172.97-6,220.13,2.25l34.19-38.9s6.4-9.09,17.97-12.4l44.65-23.7s17.64,7.72-8.82,29.77l-16.54,10.47,56.77,6.06-41.89,100.32-81.58-4.41-260.72,61.73s-33.07,6.61-61.18-17.09c-28.11-23.7-68.35-72.76-68.35-72.76l3.31-46.32s59.58-16.83,121.82-70.53Z"/>
    <path class="cls-11" d="M541.18,862.81s17.97-204.77,13.41-268.64"/>
    <path class="cls-3" d="M706.55,821.47s-36.99,1.03-43.49,34.64"/>
    <path class="cls-16" d="M405.17,335.53s27.17-8.21,51.79,11.04l-51.79-11.04Z"/>
    <path class="cls-21" d="M27.26,830.67s52.35,19.93,109,21.24l-32.33,138.71s-52.3-71.67-76.68-159.95Z"/>
  </g>
  <g class="cls-13">
    <g>
      <path class="cls-21" d="M1060.46,563.46s7.01,65.39,24.33,103.67c0,0,15.85,179.09-129.67,183.64,0,0-108.49-29.23-42.68-169.81,0,0,26.18-10.22,26.74-35.55,.6-26.83-3.46,.46-3.46,.46l138.17-81.37"/>
      <path class="cls-21" d="M1069.59,527.69s-1.74-135.62-122.57-148.71c0,0-102.64-1.51-83.62,125.92,0,0,3.52,13.66-.06,23.94,0,0-12.77,15.57,1.23,55.59,14,40.01,37.57,63.78,37.57,63.78,0,0,14.01,16.58,44.16,17.78,0,0,23.77,3.59,51.23-12.96,0,0,66.49-32.69,64.13-72.86,0,0,29.25,20.68,43.89-26.35,0,0,13.43-65.3-35.95-26.13Z"/>
      <path class="cls-27" d="M959.1,474.16s43.14,.94,56.79,19.77c0,0-6.49-24.92-54.63-29.41,0,0-9.85,3.31-2.16,9.64Z"/>
      <path class="cls-27" d="M858.17,483.31c.04-2.34,19.32-10.53,38.61-13.91,0,0,10.09,2.5,2.93,9.43,0,0-36.7,1.5-37.64,13.94,0,0-3.99-3.68-3.9-9.47Z"/>
      <path class="cls-6" d="M1103.63,539.96s-10.01-28.37-32.59,16.45c0,0,18.78-19.6,21.68-2.4"/>
      <path class="cls-27" d="M933.67,664.22s19.69,4.59,47.15-3.89c0,0,20.85-6.27,44.39-24.4,0,0-31.7,38.9-95.95,33.46"/>
      <path class="cls-14" d="M1233.28,1097.48s-247.92,102.8-414.97-12.05l3.2-27.44c-5.22-1.1-10.72,15.19-37.97,21-5.84,1.25-39.34-2.74-49.59-6.25-92.69-31.8-237.8-105.38-241.22-131.31,0,0-1.83-5.49-22.86-10.47,0,0,20.73-51.6,31.75-75.07l25.85,2.66s4.18-26.61,183.87,57.01c0,0,41.93-56.33,74.06-123.96,0,0,20.59-91.68,127.05-110.64,0,0,85.9,88.11,172.34-13.83,0,0,63.44,39.36,94.8,48.52,0,0,28.6,25.49,71.15,92.59,0,0,52.6,103.66,38.01,219.29,0,0-17.94,55.63-58.18,49.63l2.72,20.33Z"/>
      <path class="cls-7" d="M818.31,1085.43s7.23-79.21,20.18-106.41c0,0-20.72-44.04,7.77-98.44"/>
      <ellipse class="cls-15" cx="1074.09" cy="575.39" rx="5.3" ry="4.37" transform="translate(476.1 1637.06) rotate(-88.79)"/>
      <path class="cls-8" d="M1084.79,667.13s-74.27,98.12-172.34,13.83"/>
      <path class="cls-5" d="M1147.94,1045.87c1.97,19.32,4.25,38.89,6.88,58.54"/>
      <path class="cls-4" d="M1137.82,703.14s-.91,17.79-1.45,52.92"/>
      <path class="cls-4" d="M1160.48,749.56s.81-18.93,.21,44.47"/>
      <path class="cls-5" d="M1113.76,1008.22c2.63,35.69,6.2,72.11,10.99,107.97"/>
      <path class="cls-4" d="M1109.86,687.65s-.63,11.32-1.3,31.21"/>
      <path class="cls-4" d="M1079.87,939.04c3,58.52,8,121.52,16.13,182.37"/>
      <path class="cls-4" d="M1047.63,703.14s-7.78,215.83,19.61,420.88"/>
      <path class="cls-4" d="M1019.69,719.97s-7.28,205.53,20.11,410.59"/>
      <path class="cls-4" d="M994.14,724.48s-6.57,203.64,20.82,408.7"/>
      <path class="cls-4" d="M967.08,722.22s-10.88,208.51,16.5,413.56"/>
      <path class="cls-4" d="M939.14,703.14s-11.7,222.36,15.69,427.42"/>
      <path class="cls-4" d="M908.47,689.91s-12.39,231.67,14.99,436.73"/>
      <path class="cls-4" d="M882.92,694.42s-22.14,216.7,5.25,421.76"/>
      <path class="cls-4" d="M855.49,703.14s-9.15,185.61,0,389.51"/>
      <path class="cls-6" d="M910.61,538.51s-17.35,24.65,11.91,28.23"/>
      <path class="cls-9" d="M921.91,463.44s11.22,9.94,.61,19.67"/>
      <path class="cls-9" d="M940.25,462.81s-11.87,10.02-.19,20.51"/>
      <path class="cls-23" d="M896.79,607.33s10.05-22.32,32.62-17.46c0,0,18-13,47.2,14.74,0,0-10.63,20.33-40.67,24.72s-39.15-22-39.15-22Z"/>
      <path class="cls-17" d="M899.25,607.39s17.63-24.43,72.97-2.18c0,0-30.35,10.12-39.8,15.09,0,0-17.6-7.43-33.18-12.91Z"/>
      <path class="cls-16" d="M907.07,601.36s16.73-11.77,49.21-1.45c0,0-37.72,1.23-49.21,1.45Z"/>
      <path class="cls-7" d="M1230.55,1077.15s-172.24-17.02-182.43-278.02l5.52-8.28-11.04-32.21,60.75-45.1,10.12,23.01,6.44-3.68s75.47,97.5,89.83,177.9"/>
      <path class="cls-21" d="M473.79,921.02l-9.74-4.33-37.36,8.39-79.94-23.32-46.63-40.92s-3.33-25.22,30.45-5.23c0,0,9.52-12.85,34.26,14.28,0,0,3.81-27.6,29.5-5.71,0,0,11.42-8.57,4.28-15.7-7.14-7.14-26.17-14.28-26.17-14.28,0,0-16.18-13.32-4.76-24.74,11.42-11.42,43.78,18.08,43.78,18.08l49.01,8.09,30.93,24.27,7.61,1.9-25.23,59.23Z"/>
      <path class="cls-3" d="M353.57,895.47l-27.99-33.51s7.68-25.73,39.25,7.92l28.18,32.8,6.36,4.24"/>
      <path class="cls-3" d="M438.31,900.01c-11.29-13.66-26.13-11.88-26.13-11.88l-17.84-23.96s-22.95-21.66-29.5,5.71"/>
      <path class="cls-3" d="M400.21,855.41s2.52-11.64,13.85-11.33"/>
      <path class="cls-3" d="M394.33,864.17s18.31-12.46-4.92-21.75c-23.23-9.29-16.97-8.23-16.97-8.23,0,0-16.26-13.57-4.76-24.74,11.51-11.17,43.78,18.08,43.78,18.08l49.01,8.09,30.93,24.27s3.52,16.61-12.84,26.05"/>
      <line class="cls-10" x1="491.4" y1="859.89" x2="499.02" y2="861.79"/>
      <polyline class="cls-3" points="371.56 908.72 426.69 925.08 464.04 916.69 473.79 921.02"/>
      <path class="cls-3" d="M316.77,848.92s9.62,2.72,13.79,6.68"/>
      <path class="cls-4" d="M500.7,927.86s116.24,98.65,273.02,130.77c0,0,40.53,6.88,58.89-94.83"/>
      <path class="cls-4" d="M512.17,907.97s159.07,106.3,250.84,114.71c0,0,45.89-9.18,67.3-116.24"/>
      <path class="cls-4" d="M527.46,881.97s166.96,103.71,214.82,104.29c63.47,.76,81.14-258.01,81.14-258.01"/>
      <path class="cls-4" d="M798.95,766.49s-30.14,141.84-59.97,170.9-165.63-70.72-165.63-70.72"/>
      <path class="cls-4" d="M1186.74,733.69s5.91,77.63,0,97.04"/>
      <path class="cls-5" d="M1209.53,753.94s23.63,105.48,6.75,156.95"/>
      <path class="cls-4" d="M1059.32,796.98s37.97,222.77,176.36,269.18c0,0,52.32,10.97,43.88-135.86"/>
      <path class="cls-4" d="M1077.89,786.85s63.29,217.71,156.11,251.46c0,0,39.66,14.35,36.28-159.48"/>
      <path class="cls-4" d="M1109.11,775.04s63.29,198.3,113.92,208.43c50.63,10.13,28.69-124.89,28.69-124.89"/>
      <path class="cls-4" d="M1130.21,766.6s64.97,160.33,91.98,175.52"/>
      <path class="cls-25" d="M1069.59,527.69s-59.26-48.75-59.71-126.17c0,0-52.14,41.78-147.58,53.36,0,0-14.75-52.01,46.97-82.23,61.73-30.22,130.48-6.18,130.48-6.18,0,0,1.57-10.36,14.2-9.19,0,0,54.76-44.8,118.6,6.58,0,0,46.26,43.89,27.79,199.04-19.82,166.46-23.89,137.24-7.81,230.5,0,0-67.23-60.51-75.54-226.21,0,0-1.4,55.86-57.3,50.62,0,0-2.14-18.61,1.96-37.65,0,0,32.21,19.64,43.89-26.35,0,0,6.57-34.73-10.39-39.15,0,0-11.59-.73-25.56,13.02Z"/>
      <path class="cls-21" d="M1043.82,754.8s-23.26-21.89-14.59-69.32,3.65-47.43,3.65-47.43c0,0-27.82-35.12-6.84-44.69l22.8,29.64,2.74,14.59,1.82-24.17-17.79-28.73s-9.12-14.14,2.28-22.35l15.96,14.59s-12.77-15.96-1.37-25.08l12.77,10.95s-1.37-1.82,4.1-6.38l33.29,39.68,1.82,62.48-7.3,59.29-53.36,36.94Z"/>
      <path class="cls-3" d="M1027.86,708.28s-1.82-39.22,5.02-70.23c0,0-25.08-29.19-6.84-44.69l22.8,29.64,2.74,14.59,1.82-24.17s-33.29-37.85-15.51-51.08l15.96,14.59s-13.68-17.79-1.37-25.08l12.77,10.95s-2.74-5.02,4.1-6.38l33.29,39.68"/>
      <polyline class="cls-3" points="1053.85 576.94 1074.83 605.67 1074.83 640.33"/>
      <polyline class="cls-3" points="1065.25 562.8 1091.25 594.27 1089.88 625.28"/>
      <rect class="cls-25" x="936.83" y="596.24" width="1.87" height="3.73" transform="translate(1892.58 1168.61) rotate(178.33)"/>
      <rect class="cls-25" x="929.22" y="596.23" width="1.87" height="3.73" transform="translate(1877.36 1168.81) rotate(178.33)"/>
      <rect class="cls-25" x="921.54" y="596.57" width="1.87" height="3.73" transform="translate(1862 1169.72) rotate(178.33)"/>
      <path class="cls-12" d="M946.77,597.82s-14.85,.45-33.12,.81"/>
      <path class="cls-6" d="M867.33,508.07s9.52,19.31,31.93,3.53"/>
      <path class="cls-6" d="M966.9,511.94s15.98,17.54,35.93-1.55"/>
      <path class="cls-19" d="M892.97,521.15s-4.44,5.58-3.11,9.5c1.33,3.92,6.47,.45,6.47,.45,0,0,1.73-2.86-3.36-9.95Z"/>
      <path class="cls-19" d="M966.51,517.7s-4.44,5.58-3.11,9.5c1.33,3.92,6.47,.45,6.47,.45,0,0,1.73-2.86-3.36-9.95Z"/>
      <path class="cls-19" d="M970.51,532.41s-3.32,4.17-2.32,7.1,4.83,.34,4.83,.34c0,0,1.29-2.14-2.51-7.43Z"/>
      <path class="cls-26" d="M807.32,1126.84s-18.96,66.05-6.16,104.44c0,0,63.72-17.72,111.49-51.84,0,0-46.86-12.2-105.33-52.59Z"/>
      <path class="cls-21" d="M807.32,1126.84s69.3,48.74,105.33,52.59c0,0,35.41-18.91,62.48-41.68,0,0-89.23-4.44-154.58-50.99,0,0-8.56,18.39-13.23,40.08Z"/>
    </g>
  </g>
  <path class="cls-26" d="M807.27,1126.79s-18.96,66.05-6.16,104.44c0,0,59.3-17.63,111.78-50.23,0,0-47.15-13.81-105.62-54.21Z"/>
  <path class="cls-21" d="M807.27,1126.79s69.59,50.36,105.62,54.21c0,0,36.26-20.52,63.33-43.28,0,0-90.36-4.45-155.72-51.01,0,0-8.56,18.39-13.23,40.08Z"/>
</svg>