<?xml version="1.0" encoding="UTF-8"?>
<svg id="Layer_1" data-name="Layer 1" xmlns="http://www.w3.org/2000/svg" viewBox="0 0 1220 1257.69">
  <defs>
    <style>
      .cls-1, .cls-2, .cls-3, .cls-4, .cls-5, .cls-6, .cls-7 {
        stroke-miterlimit: 10;
      }

      .cls-1, .cls-3, .cls-4, .cls-5, .cls-7 {
        fill: none;
      }

      .cls-1, .cls-4 {
        stroke: #603913;
      }

      .cls-1, .cls-6 {
        stroke-width: 1.5px;
      }

      .cls-8, .cls-6 {
        fill: #00979c;
      }

      .cls-9 {
        fill: #fff;
      }

      .cls-10 {
        fill: #803435;
      }

      .cls-11 {
        fill: #ae8578;
      }

      .cls-12, .cls-2 {
        fill: #d1d3d4;
      }

      .cls-13 {
        fill: #c4e7f6;
      }

      .cls-14 {
        fill: #dcbf97;
      }

      .cls-15 {
        fill: #077370;
      }

      .cls-16 {
        fill: #26130f;
      }

      .cls-2 {
        stroke: #58595b;
        stroke-width: .2px;
      }

      .cls-3, .cls-4 {
        stroke-width: 2px;
      }

      .cls-3, .cls-5, .cls-7 {
        stroke: #231f20;
      }

      .cls-6 {
        stroke: #2e3192;
      }

      .cls-7 {
        stroke-width: .5px;
      }
    </style>
  </defs>
  <circle class="cls-13" cx="610" cy="647.69" r="610"/>
  <g>
    <path class="cls-8" d="M617.61,501.1c-123.61,53.42-85.9,470.33-85.9,470.33-19.52-1.35-197.85,44.69-197.85,44.69l-2.24,134.83s316.36,35.22,351.97-64.29c35.62-99.51,38.76-135.13,38.76-135.13"/>
    <path class="cls-14" d="M869.15,289.16s14.38,62.61,50.78,109.14c0,0,10.62,177.85-125.52,208.15,0,0-104.47-59.07-77.67-179.9l152.41-137.39Z"/>
    <path class="cls-9" d="M747.88,478.45s53.01,28.06,117.71-14.81l-45.21,187.09-72.5-172.28Z"/>
    <path class="cls-8" d="M1196.96,813.66c-4.72-12.34-7.83-18.46-7.83-18.46,16.01-127.78-5.13-208.53-5.13-208.53-5.7-68.46-64.46-132.37-64.46-132.37-62.31-52.39-195.33-56.33-195.33-56.33-33.6,62.3-87.37,92.77-87.37,92.77l-19.82,127.16-42.74-120.44-84.52-49.86c-37.83,21.65-95.07,63.74-95.07,63.74-43.36,47.92-44.5,147.19-44.5,147.19l-1.91,204.21c22.02,6.5,139.94,41.25,139.94,41.25-32,137.32,4.73,347.88,4.73,347.88,0,0,178.3-16.95,321.26-148.86,145.4-134.16,182.75-289.36,182.75-289.36Z"/>
    <path class="cls-15" d="M900.2,369.34s15.84-5.76,24.45,14.08c5.53,12.75,12.89,14.56,12.89,14.56,0,0,9.5,53.82-31.84,97.13,0,0-36.79-20.22-68.86-4.36,0,0,98.4-78.21,63.36-121.41Z"/>
    <path class="cls-15" d="M716.58,433.26s-7.93,19.26,57.7,64.2c0,0-44.14,.76-59.07,21.73,0,0-18.81-34.4-25.45-71.59,0,0,11.2-14.28,26.82-14.35Z"/>
    <path class="cls-14" d="M561.54,125.62s-17.1,48.02,16.87,142.83c0,0,10.46,22.13,11.43,35.38,.97,13.24,10.87,32.12,15.16,46.24,24.26,79.88,68.14,92.36,68.14,92.36,0,0,18.58,22.92,64.42,10.75,45.84-12.16,86.38-39.43,97.49-63.25,11.12-23.82,37.28-66.6,33.16-97.34,0,0,28.84-1.32,30.87-37.03,0,0,15.51-58.91-17.67-63.96-33.17-5.05-38.96,40.53-38.96,40.53,0,0,12.89-131.58-67.51-159.72,0,0-113.4-44.7-213.41,53.22Z"/>
    <path class="cls-11" d="M742.52,339.4s-24.79,.77-48.88,17.51c0,0-24.65,3.3-43.83,15.04,0,0,15.09,36.45,52.85,32.7,37.76-3.75,47.98-43.73,39.86-65.26Z"/>
    <path class="cls-10" d="M737.82,343.96s11.64,32.84-31.2,47.55c-38.91,13.36-49.29-15.87-49.29-15.87,0,0,44.51-13.07,80.49-31.68Z"/>
    <path class="cls-12" d="M684.51,212.81s33.68-24.02,71.32-21.65c0,0-24.92-19.78-76.16,10.84,0,0-6.69,10.23,4.84,10.8Z"/>
    <path class="cls-12" d="M569.09,247.85c25.56-13.23,41.42-9.64,41.42-9.64,8.75-7.53-2.81-11.5-2.81-11.5-18.46,2.28-31.9,6.85-41.66,12.06,0,0,1.65,9.81,3.05,9.09Z"/>
    <path class="cls-9" d="M732.67,346.26s-6.19,15.75-39.89,25.53c0,0-19.29,11.21-31.59,3.27,0,0,43.05-13.74,71.48-28.8Z"/>
    <path class="cls-3" d="M889.16,212.81s-16.53-12.75-22.96,8.25c-6.42,20.99-5.16,26.82-5.16,26.82,0,0,8.3-32.69,22.58-13.64"/>
    <path class="cls-2" d="M893.03,194.06s-28.02-13.31-37.91,14.06c-9.89,27.37-4.04,36.83-4.04,36.83l-15.24,4.19s26.39-94.01-33.57-111.26c0,0-6.22-63.35-54.4-58.79-48.19,4.56-83.35-34.13-189.83,57.47,0,0-30.97-65.09,87.03-119.14,0,0,79.51-37.51,116.15-2.13,0,0,56.94-10.66,93.56,58.08,36.62,68.73,38.26,120.7,38.26,120.7Z"/>
    <path class="cls-16" d="M726.17,455.63s52.19-11.66,79.85-34.07c0,0,23.26-13.42,39.61-50.98,0,0-18.74,54.61-65.69,74.87-.23,.1-.44,.17-.68,.27-2.17,.9-28.65,12.39-48.04,16.35,0,0-5.77-4.95-5.04-6.43Z"/>
    <path class="cls-5" d="M699.29,142.18s-34.02,15.83-49.46,25.28c-15.44,9.45-68.2,13.03-68.2,13.03"/>
    <path class="cls-12" d="M703.48,323.34s28.52,9.38,48.21,6.45c0,0-.88,8.29-9.18,9.61,0,0-33.69,3.77-48.88,17.51,0,0-24.54,2.43-43.83,15.04,0,0-1.9,2.44-6.86,3.04,0,0,16.69-23.45,13.08-31.81,0,0,21.78,3.23,31.33-15.18,0,0,6.62,.94,16.13-4.67Z"/>
    <path class="cls-3" d="M652.29,267.59l-5.55,53.52s-.38,28.59,20.9,21.99c17.65-5.48,16.89-11.29,16.89-11.29"/>
    <path class="cls-5" d="M763.97,340.27s-3.11-20.93-16.52-22.03c-13.41-1.1-26.52-22.67-26.52-22.67"/>
    <g>
      <circle class="cls-4" cx="712.39" cy="231.97" r="41.07"/>
      <circle class="cls-4" cx="589.21" cy="275.41" r="41.07"/>
      <path class="cls-4" d="M628.06,262.07s12.86-28.97,45.48-16.77"/>
      <line class="cls-4" x1="751.24" y1="218.63" x2="864.19" y2="188.96"/>
    </g>
    <g>
      <path class="cls-9" d="M738.51,223.43s-.31-1.05-1.34-1.68c-3.43-2.1-10.96-5.7-20.25-2.89-10.4,3.14-13.17,14.64-14.07,18.71-.16,.7,.04,1.22,.04,1.22,0,0,.14,.59,.61,.89,2.24,1.42,9.4,5.13,19.29,2.31,5.89-1.68,13.16-7.32,15.85-16.81,.19-.66,0-1.37-.13-1.75Z"/>
      <circle class="cls-16" cx="717.62" cy="231.74" r="11.23"/>
      <circle class="cls-9" cx="720.48" cy="223.92" r="3.08"/>
      <path class="cls-7" d="M702.21,237.78s5.15-28.64,35.33-16.24"/>
    </g>
    <g>
      <path class="cls-9" d="M620.1,269.04s-.14-1.02-1.01-1.75c-2.89-2.45-9.38-6.86-18.41-5.58-10.12,1.43-14.34,11.73-15.76,15.39-.24,.63-.14,1.14-.14,1.14,0,0,.04,.57,.44,.92,1.88,1.65,8.01,6.11,17.61,4.9,5.71-.72,13.29-4.92,17.15-13.36,.27-.59,.2-1.28,.13-1.64Z"/>
      <circle class="cls-16" cx="599.48" cy="273.77" r="10.53"/>
      <circle class="cls-9" cx="603.62" cy="266.06" r="2.95"/>
      <path class="cls-7" d="M584.8,277.46s7.91-27.23,34.67-9.8"/>
    </g>
    <path class="cls-8" d="M668.74,1000.71c23.66-116.81,26.49-112.11,26.49-112.11"/>
    <path class="cls-6" d="M651.68,714.16c-7.73,88.1,36.54,189.84,36.54,189.84,0,0-12.83,96.81-11.93,133.6"/>
    <path class="cls-6" d="M988.16,475.48s-60.74,78.32,3.2,342.06c0,0-159.76,102.72-234.88,179.45,0,0,42.15,72.76,67.73,93.54,0,0,253.85-89.92,313.08-167.03,35.57-46.31,51.85-128.3,51.85-128.3"/>
    <g>
      <path class="cls-14" d="M723.03,1118.99s-65.96,38.87-121.04,34.91c0,0,8.85,26.24-5.8,31.52,0,0-7.73,2.2-27.21-17.33,0,0-10.06,16.51-29.86-14.9,0,0-13.52,18.05-28.51-7.21l-6.09-15.53s-13.56,18.89-21.76,12.59c-8.2-6.3,2.13-28.73,2.13-28.73,0,0,4.2-37.12,23.08-42.21,18.88-5.09,61.55-30.32,61.55-30.32l136.23-3.24,45.85-40.79s31.02,39.18,54.69,75.91l-83.29,45.31Z"/>
      <path class="cls-1" d="M504.54,1130.45s.34-33.27,8.57-42.32c8.23-9.06,25.27-19.94,25.27-19.94"/>
      <path class="cls-1" d="M539.13,1153.19s-11.55-39.58,11.96-59.16"/>
      <path class="cls-1" d="M568.99,1168.09s-25.16-39.94-7.84-47.65c17.32-7.7,49.56-6.98,49.56-6.98"/>
    </g>
    <rect class="cls-6" x="693.3" y="1027.67" width="136.02" height="68.68" rx="12.59" ry="12.59" transform="translate(1172.16 -178.42) rotate(53.96)"/>
    <path class="cls-14" d="M252.01,1109.07c-75.94,52.42-146.08,24.66-146.08,24.66-16.37,11.52-67.52,10.29-67.52,10.29,0,0-21.4,20.09-29.52,2.83-8.12-17.25,159.17-113.99,159.17-113.99,0,0-93.42-8.27-80.12-34.04,10.58-20.5,70.64,2.14,70.64,2.14,84.44-24.37,113.16,30.36,113.16,30.36l7.28,4.62-2.54,69.64-14.31,7.95-10.16-4.46Z"/>
    <path class="cls-1" d="M196.03,1064.94s-16.59-29.32-2.06-51.04"/>
    <path class="cls-1" d="M105.92,1133.73s-19.27,.48-12.37-15.55,45.77-7.94,45.77-7.94c0,0,25.12,6.91,44.04-3.94"/>
    <path class="cls-1" d="M38.4,1144.02s-14.9-4.86-3.14-17.4c11.76-12.55,25.21-7.11,25.21-7.11"/>
    <path class="cls-1" d="M75.59,1141.83s-22.55-.07-18.98-15.23c3.57-15.16,22.58-16.54,22.58-16.54,0,0,21.04-2.7,33.41-9.87"/>
    <path class="cls-8" d="M269.13,1019.72s34.78-19.41,64.73-3.6c0,0,42.78,75.69-2.24,134.83,0,0-53.94-4.55-75.68-32.44,0,0,34.63-33.24,13.19-98.8Z"/>
    <path class="cls-6" d="M333.87,1016.12s27.63,74.1-2.24,134.83"/>
  </g>
</svg>