<?xml version="1.0" encoding="UTF-8"?>
<svg id="Layer_1" data-name="Layer 1" xmlns="http://www.w3.org/2000/svg" viewBox="0 0 1220 1259.87">
  <defs>
    <style>
      .cls-1 {
        stroke-width: 1.5px;
      }

      .cls-1, .cls-2, .cls-3, .cls-4, .cls-5, .cls-6, .cls-7 {
        stroke-miterlimit: 10;
      }

      .cls-1, .cls-2, .cls-4, .cls-6 {
        stroke: #231f20;
      }

      .cls-1, .cls-4, .cls-5, .cls-7 {
        fill: none;
      }

      .cls-8 {
        fill: #01a04c;
      }

      .cls-9, .cls-2, .cls-3 {
        fill: #fff;
      }

      .cls-10 {
        fill: #803435;
      }

      .cls-11 {
        fill: #ae8578;
      }

      .cls-12 {
        fill: #be9e7d;
      }

      .cls-13 {
        fill: #c4e7f6;
      }

      .cls-14 {
        fill: #231f20;
      }

      .cls-15 {
        fill: #26130f;
      }

      .cls-2, .cls-3, .cls-4, .cls-5 {
        stroke-width: 2px;
      }

      .cls-3, .cls-5 {
        stroke: #006838;
      }

      .cls-6 {
        fill: #bcbec0;
        stroke-width: .8px;
      }

      .cls-7 {
        stroke: #603913;
      }
    </style>
  </defs>
  <circle class="cls-13" cx="610" cy="649.87" r="610"/>
  <g>
    <path class="cls-12" d="M869.01,339.99s-19.34,61.28,11.9,121.15c0,0,7.81,218.68-158.8,235.6,0,0-116.23-85.17-67.23-225.47l214.13-131.28Z"/>
    <path class="cls-8" d="M1046.69,1075.65c-15.16-76.72-33.5-167.96-33.5-167.96,89.55,22.39,157.12-71.2,157.12-71.2,0,0-17.89-149.5-96.89-251.64-75.08-97.08-200.2-140.44-200.2-140.44-47.01,118.65-177.23,104.72-177.23,104.72-78.36-17.91-31.34-82.83-31.34-82.83-150,35.82-210.2,157.47-210.2,157.47l-66.2,157.75c22.39,51.49,116.9,81.69,116.9,81.69,2.08,116.55,19.6,357.86,22.05,391.22,0,0,155.54,22.64,300.89-35.73,0,0,135.3-52.85,218.59-143.05"/>
    <path class="cls-12" d="M597.73,83.98s-38.68,36.47-28.74,132.62c0,0,8.84,24.31,4.42,51.94,0,0-14.37,49.73,3.32,89.52,17.68,39.79,44.21,80.68,44.21,80.68,0,0,22.1,22.1,51.94,16.58,0,0,45.31,15.47,85.1-9.95,39.79-25.42,108.31-104.99,108.31-104.99,0,0,36.47,9.95,47.52-27.63,11.05-37.58,27.63-66.31,4.42-88.42-23.21-22.1-51.94,38.68-51.94,38.68,0,0-15.47-18.79-11.05-46.42,0,0,11.7-55.43-21-120.47,0,0-102.53-44.51-236.51-12.16Z"/>
    <path class="cls-11" d="M722.65,353.4s-26.09-8.06-57.17,.77c0,0-26.86-5.37-51.03,0,0,0,2.69,43.35,43.35,52.95,40.67,9.59,65.61-28.39,64.84-53.71Z"/>
    <path class="cls-10" d="M716.12,356.47s.38,38.37-49.49,38.37c-45.3,0-45.66-34.15-45.66-34.15,0,0,51.03,2.3,95.15-4.22Z"/>
    <path class="cls-14" d="M703.79,204.46s50.75-15.6,95.32,3.55c0,0-21.94-35.45-96.69-19.14,0,0-12.34,9.93,1.37,15.6Z"/>
    <path class="cls-14" d="M568.85,200.38c35.44-5.35,52.66,5.48,52.66,5.48,13.34-5.44,1.33-14.95,1.33-14.95-22.66-4.87-40.33-4.93-53.92-2.69,0,0-2.02,12.45-.08,12.16Z"/>
    <path class="cls-9" d="M709.94,357.02s-12.36,17.77-50.96,15.9c0,0-23.81,1.2-33.78-11.46,0,0,49.75,1.08,84.74-4.44Z"/>
    <path class="cls-15" d="M675.83,458.24s55.36,8.44,78.64-11.03c0,0,27.1-13.74,58.79-49.25,0,0-38.58,63.54-89.71,69.48,0,0-24.05,4.2-47.72-9.2,0,0,.95,5.51,0,0Z"/>
    <path class="cls-4" d="M630.33,280.8s-24,51.92,26.57,44.87"/>
    <path class="cls-4" d="M915.3,263.58s-21.93-33.97-37.48,31.66c0,0,18.44-31.48,27.6-9.89"/>
    <path class="cls-9" d="M1046.69,1075.65l-33.5-167.96s75.95,28.72,157.12-71.2l6.35,38.5s-38.51,108.63-129.97,200.65Z"/>
    <g>
      <path class="cls-9" d="M755.23,235.07s.06-1.23-.82-2.28c-2.89-3.5-9.6-10.08-20.52-10.49-12.23-.46-19.4,10.78-21.85,14.8-.42,.69-.41,1.32-.41,1.32,0,0-.07,.68,.33,1.17,1.87,2.34,8.14,8.91,19.72,9.52,6.89,.36,16.71-2.98,23.05-12.12,.44-.64,.5-1.46,.5-1.91Z"/>
      <circle class="cls-15" cx="729.92" cy="236.29" r="12.66"/>
      <circle class="cls-9" cx="738" cy="234.02" r="3.47"/>
      <path class="cls-1" d="M711.3,237.09s15.97-28.64,43.6-4.38"/>
    </g>
    <g>
      <path class="cls-9" d="M618.52,240.12s.23-1.13-.43-2.24c-2.19-3.66-7.49-10.75-17.59-12.69-11.31-2.17-19.58,7.25-22.43,10.63-.49,.58-.57,1.16-.57,1.16,0,0-.16,.62,.14,1.14,1.4,2.44,6.3,9.45,16.97,11.67,6.35,1.32,15.96-.39,23.17-7.97,.5-.53,.68-1.29,.74-1.7Z"/>
      <circle class="cls-15" cx="594.81" cy="237.62" r="11.86"/>
      <circle class="cls-9" cx="602.99" cy="236.93" r="3.32"/>
      <path class="cls-1" d="M577.81,236.18s18.4-26.13,40.55,2.23"/>
    </g>
    <path class="cls-14" d="M866.29,263.02s-55.58-26.35-56.74-149.42c0,0-46.89,42-93.34,43.16,0,0,.71,9.37,16.97-33.59,0,0-24.12,27.69-74.05,41.62,0,0,7.08,.77,12.89-37.55,0,0-4.76,16.65-41.91,35.22,0,0,1.14-.87,1.14-34.54,0,0-9.12,17.16-34.66,38.06,0,0,4.85-17.43,.2-38.33,0,0-14.47,7.07-28.22,49.91,0,0-17.25-15,5.97-89.31,0,0-5.31-.52-10.1,2.96,0,0-1.14-26.39,39.58-55.45,0,0,121.38-77.39,224.64-4.51,0,0,120.16,21.81,89.59,193.08,0,0-30.56-14.03-51.94,38.68Z"/>
    <circle class="cls-6" cx="880.28" cy="325.73" r="8.22"/>
    <path class="cls-9" d="M390.23,788.47l-35.31,69.87-152.52-214.13-103.68,58.6s128.16,349.93,285.9,413.31c0,0,53.52,33.8,129.57-83.09l-9.01-169.81-114.94-74.75Z"/>
    <path class="cls-2" d="M354.91,858.34s56.45,33.85,59.27,102.86"/>
    <line class="cls-3" x1="505.16" y1="863.22" x2="490.23" y2="693.61"/>
    <path class="cls-5" d="M1013.19,907.69s-45.52-142.25-17.35-229.57"/>
    <path class="cls-12" d="M118.99,690.98l-15.92-28.65S-5.96,589.12,29.86,567.63c0,0-19.1-31.83,17.51-31.83,0,0-15.92-24.67,15.12-29.45,0,0,3.18-35.02,35.81-22.28l43.77,28.65,15.92,6.37s48.55-67.64,68.44-43.77c0,0,11.94,6.37-13.53,23.87l-12.73,15.12-15.12,46.16,3.98,66.05,7.96,20.69-77.99,43.77Z"/>
    <path class="cls-7" d="M101.53,492.53l31.64,32.83s22.09,40-16.71,29.85l-47.76-47.16"/>
    <path class="cls-7" d="M51.66,537.56l43.87,36.49s23.8,8.64,20.92-18.85"/>
    <path class="cls-7" d="M38.95,565.45l45.1,28.7s20.5,3.69,13.94-17.22"/>
    <path class="cls-7" d="M28.29,590.46l46.74,15.58s12.3,0,9.02-8.61"/>
    <path class="cls-7" d="M98.81,590.05s21.73-6.97,34.44,3.28"/>
    <path class="cls-7" d="M109.06,668.36s31.16,7.38,38.54-18.86"/>
  </g>
</svg>