<?xml version="1.0" encoding="UTF-8"?>
<svg id="Layer_1" data-name="Layer 1" xmlns="http://www.w3.org/2000/svg" viewBox="0 0 1220 1259.53">
  <defs>
    <style>
      .cls-1, .cls-2 {
        stroke-width: 1.5px;
      }

      .cls-1, .cls-2, .cls-3, .cls-4, .cls-5, .cls-6 {
        fill: none;
        stroke-miterlimit: 10;
      }

      .cls-1, .cls-4 {
        stroke: #231f20;
      }

      .cls-2 {
        stroke: #754c29;
      }

      .cls-3 {
        stroke: #dc3b28;
        stroke-width: 3px;
      }

      .cls-7 {
        fill: #fff;
      }

      .cls-8 {
        fill: #803435;
      }

      .cls-9 {
        fill: #be9e7d;
      }

      .cls-10 {
        fill: #bf6b6b;
      }

      .cls-11 {
        fill: #c4e7f6;
      }

      .cls-12 {
        fill: #dc3b28;
      }

      .cls-13 {
        fill: #3e3e3e;
      }

      .cls-14 {
        fill: #517569;
      }

      .cls-15 {
        fill: #26130f;
      }

      .cls-4, .cls-5 {
        stroke-width: 2px;
      }

      .cls-5 {
        stroke: #808285;
      }

      .cls-6 {
        stroke: #fbb040;
        stroke-width: 4px;
      }
    </style>
  </defs>
  <circle class="cls-11" cx="610" cy="649.53" r="610"/>
  <g>
    <path class="cls-9" d="M540.36,649.47s-16.78,143.1-11.84,193.43c0,0-153.95-34.54-289.16-37.5,0,0-10.86-53.29-84.87-51.32,0,0-40.46-33.55-57.24-15.79-16.78,17.76,57.24,46.38,57.24,46.38,0,0-156.92,43.42-153.95,59.21,2.96,15.79,24.67,3.95,24.67,3.95,0,0,41.45,11.84,57.24,5.92,0,0,51.32,37.5,124.35,10.86,0,0,247.71,105.6,337.52,123.36,0,0,114.48,34.54,138.16-89.81l11.66-203.4"/>
    <path class="cls-9" d="M830.63,271.19s19.28,69.51,83.35,73.89c0,0-15.11,250.97-184.12,275.42,0,0-130.3-19.8-72.08-192.31,0,0,12.02-11.47,11.7-32.83"/>
    <path class="cls-9" d="M811.83,216.3s-23.2-157.4-165.72-153.74c0,0-100.73,10.94-79.27,152.54,0,0,7.96,22.24,5.4,34.76,0,0-4.55,31.99,13.77,59.7,27.42,41.48,52.94,70.59,52.94,70.59,0,0,15.93,19.51,51.16,16.2,0,0,24.65-3.33,53.98-26.85,0,0,75.74-44.61,66.72-90.94,0,0,37.24,19.47,46.9-37.49,0,0,5.42-78.02-45.87-24.77Z"/>
    <path class="cls-15" d="M676.99,181.63s46.1-20.9,70.09-7.91c0,0-19.51-23.07-72.7-3.38,0,0-8.74,8.5,2.6,11.29Z"/>
    <path class="cls-15" d="M560.37,183.01c.87-2.61,25.31-5.03,48.09-2.06,0,0,10.42,6.33-.02,11.59,0,0-41.61-11.16-47.02,2.44,0,0-3.18-5.52-1.05-11.96Z"/>
    <path class="cls-4" d="M630.23,254.1s-16.32,31.37,18.26,30.96"/>
    <path class="cls-4" d="M851.26,225.96s-16.07-31.42-35.31,24.21c0,0,18.77-25.72,24.83-6.17"/>
    <path class="cls-15" d="M669.47,395.36s11.99,8.81,48.24-8.7c0,0,31.75-14.76,56.28-39.51,0,0-29.95,41.85-75.63,52.8,0,0-11.94,5.07-30.14,.8,0,0,2.64-.59,1.24-5.39Z"/>
    <path class="cls-10" d="M720.27,301.3s-23.96-4.54-50.64,6.41c0,0-24.37-2.08-45.28,5.11,0,0,6.73,38.2,43.77,42.64,37.04,4.44,55.37-31.76,52.15-54.15Z"/>
    <path class="cls-8" d="M714.79,304.67s4.18,34-40.07,39c-40.19,4.54-43.93-25.72-43.93-25.72,0,0,45.51-3.07,84-13.27Z"/>
    <path class="cls-7" d="M709.36,305.78s-9.19,17-43.62,19.21c0,0-21,3.45-31.12-6.79,0,0,44.25-4.02,74.74-12.43Z"/>
    <g>
      <path class="cls-7" d="M730.77,205.28s-.07-1.05-.91-1.86c-2.78-2.69-9.11-7.63-18.41-6.93-10.42,.78-15.42,11-17.12,14.64-.29,.63-.22,1.15-.22,1.15,0,0,0,.58,.39,.96,1.81,1.8,7.76,6.78,17.64,6.18,5.88-.35,13.89-4.13,18.39-12.49,.31-.58,.29-1.29,.24-1.67Z"/>
      <circle class="cls-15" cx="709.42" cy="208.75" r="10.8"/>
      <circle class="cls-7" cx="716.05" cy="206.04" r="2.96"/>
      <path class="cls-1" d="M693.69,211.2s10.81-25.82,36.57-7.89"/>
    </g>
    <g>
      <path class="cls-7" d="M610.03,223.25s.08-.98-.58-1.86c-2.2-2.9-7.38-8.4-16.13-9.08-9.8-.76-15.92,8.03-18.01,11.17-.36,.54-.37,1.04-.37,1.04,0,0-.08,.54,.22,.95,1.42,1.94,6.25,7.41,15.52,8.27,5.52,.51,13.5-1.86,18.89-8.98,.37-.5,.45-1.16,.46-1.52Z"/>
      <circle class="cls-15" cx="589.67" cy="223.4" r="10.13"/>
      <circle class="cls-7" cx="596.55" cy="222.03" r="2.84"/>
      <path class="cls-1" d="M575.12,223.81s13.1-23.92,34.61-1.99"/>
    </g>
    <path class="cls-7" d="M1161.72,909.88l-55.79-241.57c-31.51-41.47,1.79-108.44,1.79-108.44,0,0,4.3-151.57-101.69-174.82-63.99-14.03-99.73-25.18-99.73-25.18-7.44,95.77-35.08,122.81-35.08,122.81-104.18,78.32-199.59,12.37-199.59,12.37-12.46-32.5-12.51-67.73-12.51-67.73-21.23,5.31-37.16,13.27-37.16,13.27-79.44,41.62-80.51,88.47-80.51,88.47l-7.96,112.35,37.36,59.55c10.41,78.54,50.8,119.42,50.8,119.42,30.58,102.66,33.88,294.19,33.88,294.19,0,0,269.2,18.95,408.67-58.36,0,0,60.28-63.72,97.53-146.33Z"/>
    <path class="cls-3" d="M926.99,362.74s-.49,74.85-35.03,132.55c0,0-83.98,85.02-236.97,20.87,0,0-18.14-40.38-11.6-82.89"/>
    <path class="cls-3" d="M623.96,822.01s175.62,59.45,351.14-62.47c0,0,26.21-25.67,44.16-49.59"/>
    <g>
      <circle class="cls-12" cx="737.49" cy="630.53" r="12.7"/>
      <circle class="cls-12" cx="748.29" cy="653" r="12.7"/>
      <circle class="cls-12" cx="747.45" cy="676.69" r="12.7"/>
      <circle class="cls-12" cx="727.18" cy="656.48" r="12.7"/>
      <circle class="cls-12" cx="772.38" cy="662.2" r="12.7"/>
      <circle class="cls-12" cx="763.9" cy="636.68" r="12.7"/>
    </g>
    <g>
      <circle class="cls-12" cx="659.6" cy="626.18" r="12.7"/>
      <circle class="cls-12" cx="670.4" cy="648.65" r="12.7"/>
      <circle class="cls-12" cx="669.56" cy="672.34" r="12.7"/>
      <circle class="cls-12" cx="649.29" cy="652.13" r="12.7"/>
      <circle class="cls-12" cx="694.49" cy="657.85" r="12.7"/>
      <circle class="cls-12" cx="686.01" cy="632.33" r="12.7"/>
    </g>
    <g>
      <circle class="cls-12" cx="815.6" cy="628.78" r="12.7"/>
      <circle class="cls-12" cx="826.39" cy="651.25" r="12.7"/>
      <circle class="cls-12" cx="825.55" cy="674.94" r="12.7"/>
      <circle class="cls-12" cx="805.29" cy="654.73" r="12.7"/>
      <circle class="cls-12" cx="850.49" cy="660.45" r="12.7"/>
      <circle class="cls-12" cx="842" cy="634.93" r="12.7"/>
    </g>
    <g>
      <circle class="cls-12" cx="891.12" cy="603.65" r="12.7"/>
      <circle class="cls-12" cx="901.92" cy="626.12" r="12.7"/>
      <circle class="cls-12" cx="901.08" cy="649.81" r="12.7"/>
      <circle class="cls-12" cx="880.81" cy="629.6" r="12.7"/>
      <circle class="cls-12" cx="926.01" cy="635.32" r="12.7"/>
      <circle class="cls-12" cx="917.53" cy="609.8" r="12.7"/>
    </g>
    <g>
      <circle class="cls-12" cx="603.69" cy="596.37" r="9.49"/>
      <circle class="cls-12" cx="615.52" cy="610.79" r="9.49"/>
      <circle class="cls-12" cx="619.12" cy="628.14" r="9.49"/>
      <circle class="cls-12" cx="600.81" cy="617.05" r="9.49"/>
      <circle class="cls-12" cx="634.66" cy="613.19" r="9.49"/>
      <circle class="cls-12" cx="623.96" cy="596.16" r="9.49"/>
    </g>
    <g>
      <circle class="cls-14" cx="896.76" cy="557.01" r="6.82"/>
      <circle class="cls-14" cx="896.23" cy="570.4" r="6.82"/>
      <circle class="cls-14" cx="889.86" cy="581.44" r="6.82"/>
      <circle class="cls-14" cx="885.33" cy="566.74" r="6.82"/>
      <circle class="cls-14" cx="905.35" cy="580.84" r="6.82"/>
      <circle class="cls-14" cx="907.75" cy="566.58" r="6.82"/>
    </g>
    <g>
      <circle class="cls-14" cx="855.13" cy="587.7" r="6.82"/>
      <circle class="cls-14" cx="854.6" cy="601.09" r="6.82"/>
      <circle class="cls-14" cx="848.24" cy="612.13" r="6.82"/>
      <circle class="cls-14" cx="843.7" cy="597.43" r="6.82"/>
      <circle class="cls-14" cx="863.72" cy="611.53" r="6.82"/>
      <circle class="cls-14" cx="866.12" cy="597.27" r="6.82"/>
    </g>
    <g>
      <circle class="cls-14" cx="875.04" cy="674.27" r="6.82"/>
      <circle class="cls-14" cx="874.51" cy="687.67" r="6.82"/>
      <circle class="cls-14" cx="868.14" cy="698.7" r="6.82"/>
      <circle class="cls-14" cx="863.61" cy="684" r="6.82"/>
      <circle class="cls-14" cx="883.63" cy="698.1" r="6.82"/>
      <circle class="cls-14" cx="886.03" cy="683.85" r="6.82"/>
    </g>
    <g>
      <circle class="cls-14" cx="790.06" cy="686.14" r="6.82"/>
      <circle class="cls-14" cx="789.53" cy="699.53" r="6.82"/>
      <circle class="cls-14" cx="783.16" cy="710.57" r="6.82"/>
      <circle class="cls-14" cx="778.63" cy="695.87" r="6.82"/>
      <circle class="cls-14" cx="798.65" cy="709.97" r="6.82"/>
      <circle class="cls-14" cx="801.05" cy="695.71" r="6.82"/>
    </g>
    <g>
      <circle class="cls-14" cx="707.54" cy="682.37" r="6.82"/>
      <circle class="cls-14" cx="707.01" cy="695.76" r="6.82"/>
      <circle class="cls-14" cx="700.65" cy="706.79" r="6.82"/>
      <circle class="cls-14" cx="696.12" cy="692.09" r="6.82"/>
      <circle class="cls-14" cx="716.14" cy="706.19" r="6.82"/>
      <circle class="cls-14" cx="718.53" cy="691.94" r="6.82"/>
    </g>
    <g>
      <circle class="cls-14" cx="616.87" cy="662.81" r="6.82"/>
      <circle class="cls-14" cx="616.33" cy="676.2" r="6.82"/>
      <circle class="cls-14" cx="609.97" cy="687.24" r="6.82"/>
      <circle class="cls-14" cx="605.44" cy="672.53" r="6.82"/>
      <circle class="cls-14" cx="625.46" cy="686.63" r="6.82"/>
      <circle class="cls-14" cx="627.85" cy="672.38" r="6.82"/>
    </g>
    <g>
      <circle class="cls-14" cx="790.9" cy="599.2" r="6.82"/>
      <circle class="cls-14" cx="785.71" cy="611.56" r="6.82"/>
      <circle class="cls-14" cx="775.89" cy="619.67" r="6.82"/>
      <circle class="cls-14" cx="776.79" cy="604.31" r="6.82"/>
      <circle class="cls-14" cx="790.61" cy="624.53" r="6.82"/>
      <circle class="cls-14" cx="797.84" cy="612.02" r="6.82"/>
    </g>
    <g>
      <circle class="cls-14" cx="712.25" cy="591.27" r="6.82"/>
      <circle class="cls-14" cx="715.56" cy="604.25" r="6.82"/>
      <circle class="cls-14" cx="712.61" cy="616.65" r="6.82"/>
      <circle class="cls-14" cx="704.07" cy="603.85" r="6.82"/>
      <circle class="cls-14" cx="727.28" cy="611.65" r="6.82"/>
      <circle class="cls-14" cx="725.51" cy="597.3" r="6.82"/>
    </g>
    <g>
      <circle class="cls-14" cx="653.32" cy="573.07" r="6.82"/>
      <circle class="cls-14" cx="654.01" cy="586.46" r="6.82"/>
      <circle class="cls-14" cx="648.68" cy="598.03" r="6.82"/>
      <circle class="cls-14" cx="642.83" cy="583.8" r="6.82"/>
      <circle class="cls-14" cx="664.05" cy="596.02" r="6.82"/>
      <circle class="cls-14" cx="665.14" cy="581.6" r="6.82"/>
    </g>
    <path class="cls-15" d="M619.56,85.2s107.48,156.35,236.71,144.06c0,0-8.56,57.13-48.19,49.23,0,0,13.43,73.89,65.1,91.22,0,0,26.34,20.88,66.68-13.3,46.85-39.71,50.45-97.45,8.53-154.93,0,0-68.64-52.36-115.43-136.44,0,0-97.68-117.77-215.81-36.34,0,0-77.5-4.58-99.48,63.04-12.71,39.11,7.76,122.7,16.45,177.67,0,0-2.4,141.42,130.37,150.06,0,0,6.99-7.64,7.54-23.72,0,0-25.85-1.68-43.12-28.27-17.27-26.59-25.68-31.4-42.9-57.92,0,0-18.5-26.38-13.26-64.15,0,0,1.01-19.67-5.91-30.3,0,0-17.39-79.97,52.72-129.9"/>
    <path class="cls-6" d="M820.98,266.46s12.9,15.47,2.35,27.03c-10.55,11.56-7.27-14.08-7.27-14.08"/>
    <path class="cls-2" d="M154.52,830.87s-71.32-16.46-71.32,22.86"/>
    <path class="cls-2" d="M124.35,818.99s34.74-14.63,37.49-15.54"/>
    <path class="cls-2" d="M169.15,820.82s-7.31-27.43,9.14-42.06"/>
    <path class="cls-5" d="M953.09,671.07s-18.48-40.67-16.39-91.27"/>
    <path class="cls-5" d="M570.84,700.96s-7.22-33.21,6.34-72.95"/>
    <path class="cls-9" d="M1104.6,568.09s11.68,230.77,3.89,285.32c-8.06,56.4-35.07,67.21-102.27,86.39-71.92,20.52-316.07,39.23-316.07,39.23,0,0-60.55,20.61-104.93,8.04,0,0,2.79,22.96-10.09,24.8,0,0-6.7,.49-19.32-18.78,0,0-11.03,11.8-21.9-17.25,0,0-14.12,12.47-22.1-10.73l-2.35-13.74s-14.3,13.16-19.93,6.61c-5.64-6.54,6.62-23.14,6.62-23.14,0,0,9.73-29.65,26.04-30.61,16.31-.96,55.49-14.36,55.49-14.36l111.99,20.45s126.07-59.06,263.97-119.85c0,0-2.94-68.53-.55-119.37,0,0,84.3-37.72,151.51-102.98Z"/>
    <path class="cls-2" d="M637.12,901l-59.44-11.15-55.49,14.36s-11.21,1.19-19.1,14.23c-7.9,13.05-14.76,29.87-14.76,29.87,0,0-5.08,23.25,21.15,3.04,0,0-.21,28.2,15.59,27.51,0,0,5.7-.94,8.86-3.04,0,0,10.42,30.09,21.9,17.25,0,0-12.02-24.05-1.74-32.85s25.68-7.34,25.68-7.34"/>
    <path class="cls-2" d="M509.47,951.36s5.92-27.15,14.19-33.17c8.27-6.01,24.05-12.03,24.05-12.03"/>
    <path class="cls-2" d="M533.91,975.82s-2.74-34.34,19.81-46.36"/>
    <path class="cls-13" d="M656.45,1114.71s-10.2,106.93-7.3,142.77c0,0,107.53-.12,220.8-56.26,0,0,101.83-42.12,194.24-145.01,0,0-125.26,76.77-407.74,58.5Z"/>
    <line class="cls-2" x1="25.69" y1="846.92" x2="86.22" y2="826.12"/>
  </g>
</svg>