<?xml version="1.0" encoding="UTF-8"?>
<svg id="Layer_1" data-name="Layer 1" xmlns="http://www.w3.org/2000/svg" viewBox="0 0 1220.24 1259.42">
  <defs>
    <style>
      .cls-1 {
        stroke-width: 1.5px;
      }

      .cls-1, .cls-2, .cls-3, .cls-4, .cls-5, .cls-6, .cls-7, .cls-8 {
        stroke-miterlimit: 10;
      }

      .cls-1, .cls-3, .cls-4, .cls-5, .cls-7, .cls-8 {
        fill: none;
      }

      .cls-1, .cls-3, .cls-6 {
        stroke: #231f20;
      }

      .cls-2 {
        stroke: #808285;
        stroke-width: .3px;
      }

      .cls-2, .cls-9 {
        fill: #d1d3d4;
      }

      .cls-10 {
        fill: #01a04c;
      }

      .cls-11 {
        fill: #00979c;
      }

      .cls-12 {
        fill: #fff;
      }

      .cls-13 {
        fill: #803435;
      }

      .cls-14 {
        fill: #939598;
      }

      .cls-15 {
        fill: #b19074;
      }

      .cls-16 {
        fill: #ae8578;
      }

      .cls-17 {
        fill: #af6862;
      }

      .cls-18 {
        fill: #be9e7d;
      }

      .cls-19 {
        fill: #c4e7f6;
      }

      .cls-20 {
        fill: #dcbf97;
      }

      .cls-21 {
        fill: #231f20;
      }

      .cls-22 {
        fill: #077370;
      }

      .cls-23 {
        fill: #26130f;
      }

      .cls-3, .cls-4, .cls-5 {
        stroke-width: 2px;
      }

      .cls-4 {
        stroke: #603913;
      }

      .cls-5 {
        stroke: #2b3990;
      }

      .cls-6 {
        fill: #bcbec0;
        stroke-width: .8px;
      }

      .cls-7 {
        stroke: #006838;
      }

      .cls-8 {
        stroke: #754c29;
      }
    </style>
  </defs>
  <circle class="cls-19" cx="610.24" cy="649.42" r="610"/>
  <g>
    <path class="cls-20" d="M263.56,285.41s1.57,48.63-23.23,96.15c0,0-6.2,173.55,126.03,186.98,0,0,85.25-54.51,71.9-146.58-1.49-10.26-14.64-21.2-18.54-32.36l-156.16-104.19Z"/>
    <path class="cls-12" d="M256.11,423.15s83.22,81.95,170.98,18.6l-65.92,193.19-105.06-211.79Z"/>
    <path class="cls-11" d="M317.02,1184.42c20.64,9.44,40.16,2.33,63.14,2.64,0,0,133.95,.56,179.93-55.56,2.33-2.84-6.35-241.93-1.44-248.07,0,0,88.11,81.71,142.56,71.28,57.76-11.06,243.99-82.38,294.96-131.5,78.54-75.69,8.6-147.48,8.6-147.48-174.52,41.79-293.73,84.8-293.73,84.8l-93.85-177.52s-31.5-68.28-71.39-117.87c0,0-59.95-42.37-98.18-58.62l-21.4,44.7-24.94,16.34-46.45,138.48-66.48-136.79s-35.54-33.45-68.17-83.44c0,0-148.36,57.13-201.46,113.69,0,0-20.86,74.42-18.56,172.06,0,0,4.92,95.24,30.65,170.03,0,0,43.22,121.05,100.7,184.62,0,0,83.89,111.74,185.49,158.23Z"/>
    <path class="cls-22" d="M252.32,354.51s-30.16-4.32-36.08,15.42c-3.8,12.68-37.64,31.97-37.64,31.97,0,0,2.56,47.18,46.53,83.54,0,0,31.11-27.62,63.24-16.2,0,0-64.36-69.91-36.04-114.72Z"/>
    <path class="cls-22" d="M423.81,404.68s35.39,16.97-22.52,62.87c0,0,36.84,3.32,53.33,21.5,0,0,18.92-47.31,7.26-75.74,0,0-14.85-12.57-38.07-8.63Z"/>
    <path class="cls-5" d="M380.15,1187.06c29.67-206.32-5.58-428.87-14.46-451.69-8.87-22.82-10.86-129.34-10.86-129.34,0,0,29.48-91.59,46.45-138.48"/>
    <line class="cls-5" x1="288.36" y1="469.24" x2="354.84" y2="606.03"/>
    <path class="cls-20" d="M484.81,82.22s25.29,39.07,15.04,130.44c0,0-4.64,21.86-2.72,33.83,1.92,11.97-2.9,30.82-3.74,44.27-4.76,76.07-41.12,96.38-41.12,96.38,0,0-11.69,24.27-54.98,23.1-43.28-1.17-85.03-16.87-99.91-35.7-14.88-18.83-47.12-51.33-49.93-79.51,0,0-25.9,4.89-35.21-26.41,0,0-26.16-49.08,2.25-60.54,28.41-11.46,43.14,27.81,43.14,27.81,0,0-39.11-114.19,26.4-156.09,0,0,91.35-63.55,200.78,2.41Z"/>
    <path class="cls-17" d="M368.98,310.19s22.18-4.53,47.11,5.28c0,0,22.6-2.25,42.1,4.15,0,0-5.74,35.55-40.08,40.16-34.34,4.61-51.82-28.76-49.13-49.59Z"/>
    <path class="cls-13" d="M374.11,313.25s-3.44,31.63,37.72,35.68c37.38,3.68,40.45-24.46,40.45-24.46,0,0-42.29-2.25-78.17-11.22Z"/>
    <path class="cls-9" d="M393.9,185.53s-34.97-14.26-67.91-4.24c0,0,17.98-22.81,69.94-6.38,0,0,8.09,7.68-2.03,10.61Z"/>
    <path class="cls-9" d="M503.8,192.4c-25.49-6.38-38.82,.14-38.82,.14-9.35-4.85,.08-10.81,.08-10.81,16.88-1.86,29.78-.63,39.54,1.95,0,0,.59,9.06-.8,8.71Z"/>
    <path class="cls-12" d="M379.17,314.21s8.81,12.69,40.81,14.29c0,0,19.49,5.9,28.75-3.73,0,0-41.13-3.16-69.56-10.56Z"/>
    <path class="cls-3" d="M212.09,228.56s12.01-14.8,22.13,2.5c10.12,17.3,10.22,22.74,10.22,22.74,0,0-14.25-27.3-22.93-7.37"/>
    <path class="cls-2" d="M206.72,212.93s20.08-17.94,34.62,4.3c14.54,22.24,11.33,31.87,11.33,31.87l14.42,.52s-43.21-77.97,6.44-105.9c0,0-7.79-57.59,35.97-63.66,43.77-6.08,66.87-47.85,180.73,11.15,0,0,13.83-64.34-102.37-87.55,0,0-78.52-16.6-103.64,22.52,0,0-52.83,2.5-70.91,71.27-18.08,68.76-6.6,115.49-6.6,115.49Z"/>
    <path class="cls-23" d="M287.21,362.25c22.41,29.93,42.62,34.28,42.62,34.28,63.26,23.55,96.86,9.94,96.86,9.94,.96,1.16,4.39,4.25,4.39,4.25-18.43,8.22-60.39,6.64-73.62,.92,0,0-26.28-7.66-44.25-19.75-17.97-12.09-26-29.65-26-29.65Z"/>
    <path class="cls-1" d="M365.92,125.89s33.55,6.91,49.26,12.06c15.71,5.15,63.33-2.76,63.33-2.76"/>
    <path class="cls-9" d="M400.28,287.72s-23.36,14.33-41.47,15.87c0,0,2.53,7.18,10.17,6.61,0,0,30.72-3.73,47.11,5.28,0,0,22.31-3,42.1,4.15,0,0,2.2,1.77,6.74,1.26,0,0-19.75-17.32-18.3-25.51,0,0-18.67,7.45-31.03-6.9,0,0-5.68,2.22-15.31-.76Z"/>
    <path class="cls-3" d="M434.04,227.42l16.18,46.39s6.35,25.32-13.94,23.93c-16.83-1.15-17.38-6.48-17.38-6.48"/>
    <path class="cls-1" d="M350.1,315.47s-1.64-19.25,10.05-23.05c11.69-3.8,18.8-25.72,18.8-25.72"/>
    <circle class="cls-4" cx="373.16" cy="208.41" r="37.5"/>
    <circle class="cls-4" cx="491.72" cy="221.11" r="37.5"/>
    <path class="cls-4" d="M454.4,217.43s-17.52-23.03-43.93-5.34"/>
    <line class="cls-4" x1="335.84" y1="204.74" x2="229.25" y2="202.11"/>
    <g>
      <path class="cls-12" d="M348.16,206.31s.05-.99,.84-1.77c2.61-2.59,8.54-7.36,17.38-6.82,9.9,.6,14.78,10.23,16.44,13.66,.29,.59,.22,1.09,.22,1.09,0,0,0,.55-.36,.92-1.69,1.74-7.27,6.53-16.65,6.1-5.58-.26-13.23-3.73-17.62-11.6-.31-.55-.29-1.22-.25-1.58Z"/>
      <circle class="cls-23" cx="368.47" cy="209.31" r="10.25"/>
      <circle class="cls-12" cx="362.13" cy="206.84" r="2.81"/>
      <path class="cls-1" d="M383.42,211.43s-10.6-24.36-34.8-7"/>
    </g>
    <g>
      <path class="cls-12" d="M462.94,221.95s-.09-.93,.53-1.77c2.05-2.78,6.89-8.07,15.19-8.83,9.29-.85,15.21,7.4,17.24,10.36,.35,.51,.36,.98,.36,.98,0,0,.08,.51-.2,.91-1.32,1.86-5.83,7.11-14.61,8.06-5.23,.56-12.84-1.58-18.04-8.27-.36-.47-.44-1.09-.46-1.43Z"/>
      <circle class="cls-23" cx="482.26" cy="221.81" r="9.61"/>
      <circle class="cls-12" cx="475.72" cy="220.6" r="2.69"/>
      <path class="cls-1" d="M496.07,222s-12.75-22.52-32.87-1.42"/>
    </g>
    <path class="cls-5" d="M558.65,883.43s-7.77-218.92,1.3-259.09"/>
    <path class="cls-5" d="M711.04,760.53s-59.09,6.36-73.34,50.42"/>
    <path class="cls-5" d="M112.95,688.96s5.71,231.18-2.85,303.96"/>
    <path class="cls-15" d="M560.09,1131.5s-59.49,63.62-243.07,52.92c0,0,115.07,64.49,231.39,70.13,0,0,11.62-53.09,11.68-123.06Z"/>
  </g>
  <g>
    <path class="cls-18" d="M894.56,1189.34s-.22-15.97,.24-23.31c0,0-3.72-36.62-25.05-55.35l-11.75-2.32-55.9-15.42s8.45,35-.97,55.05c0,0-12.62,43.05,6.97,65.91,0,0,1.32,3.96,4.35,10.11,0,0,47.93-15.42,82.11-34.67Z"/>
    <path class="cls-12" d="M880.05,821.1s-50.31,16.02-99.55-51.67l5.43,137.61s-14.85,72.34,7.5,203.04c0,0,54.3,21.95,80.25-5.41l-21.43-174.33,27.8-109.24Z"/>
    <path class="cls-18" d="M1073.92,445.76s-13.65,43.26,8.4,85.53c0,0,5.51,154.38-112.11,166.32,0,0-82.06-60.13-47.46-159.17l151.17-92.68Z"/>
    <path class="cls-10" d="M1218.22,618.63c-3.88-39.27-141.33-99.14-141.33-99.14-33.19,83.76-125.11,73.93-125.11,73.93-55.32-12.64-22.13-58.48-22.13-58.48-105.89,25.29-129.6,115.37-129.6,115.37l-30.03,134.34c15.8,36.35,58.48,30.03,58.48,30.03,1.58,88.51,4.32,279.37,4.32,279.37,49.21,22.83,102.07,32.58,152.35,34.93,0,0,57.64-39.15,120.84-123.15,0,0,72-104.01,94.41-200.01,0,0,26.68-97.28,17.8-187.18Z"/>
    <path class="cls-18" d="M882.4,265.03s-27.31,25.75-20.29,93.63c0,0,6.24,17.16,3.12,36.67,0,0-10.14,35.11,2.34,63.2,12.48,28.09,31.21,56.96,31.21,56.96,0,0,15.6,15.6,36.67,11.7,0,0,31.99,10.92,60.08-7.02,28.09-17.94,76.46-74.12,76.46-74.12,0,0,25.75,7.02,33.55-19.51,7.8-26.53,19.51-46.81,3.12-62.42-16.38-15.6-36.67,27.31-36.67,27.31,0,0-10.92-13.26-7.8-32.77,0,0,8.26-39.13-14.82-85.04,0,0-72.38-31.42-166.97-8.58Z"/>
    <path class="cls-16" d="M970.59,455.23s-18.42-5.69-40.36,.54c0,0-18.96-3.79-36.02,0,0,0,1.9,30.61,30.61,37.38,28.71,6.77,46.31-20.04,45.77-37.92Z"/>
    <path class="cls-13" d="M965.99,457.4s.27,27.08-34.94,27.08c-31.98,0-32.23-24.11-32.23-24.11,0,0,36.02,1.63,67.17-2.98Z"/>
    <path class="cls-21" d="M957.28,350.09s35.83-11.01,67.29,2.5c0,0-15.49-25.03-68.26-13.51,0,0-8.71,7.01,.97,11.01Z"/>
    <path class="cls-21" d="M862.02,347.21c25.02-3.78,37.17,3.87,37.17,3.87,9.42-3.84,.94-10.56,.94-10.56-15.99-3.44-28.47-3.48-38.06-1.9,0,0-1.42,8.79-.05,8.58Z"/>
    <path class="cls-12" d="M961.62,457.79s-8.73,12.54-35.98,11.23c0,0-16.81,.85-23.85-8.09,0,0,35.12,.76,59.82-3.13Z"/>
    <path class="cls-23" d="M937.54,529.24s39.08,5.96,55.52-7.79c0,0,19.13-9.7,41.5-34.77,0,0-27.24,44.85-63.33,49.05,0,0-16.98,2.96-33.69-6.49,0,0,.67,3.89,0,0Z"/>
    <path class="cls-3" d="M905.42,403.98s-16.94,36.65,18.76,31.67"/>
    <path class="cls-3" d="M1106.6,391.82s-15.48-23.98-26.46,22.35c0,0,13.02-22.22,19.48-6.98"/>
    <g>
      <path class="cls-12" d="M993.6,371.69s.04-.87-.58-1.61c-2.04-2.47-6.78-7.12-14.49-7.41-8.64-.32-13.69,7.61-15.42,10.45-.3,.49-.29,.93-.29,.93,0,0-.05,.48,.23,.83,1.32,1.65,5.75,6.29,13.92,6.72,4.86,.26,11.8-2.11,16.27-8.55,.31-.45,.35-1.03,.35-1.35Z"/>
      <circle class="cls-23" cx="975.73" cy="372.56" r="8.93"/>
      <circle class="cls-12" cx="981.43" cy="370.95" r="2.45"/>
      <path class="cls-1" d="M962.58,373.12s11.28-20.22,30.78-3.09"/>
    </g>
    <g>
      <path class="cls-12" d="M897.08,375.26s.16-.8-.3-1.58c-1.54-2.59-5.28-7.59-12.42-8.96-7.98-1.53-13.82,5.12-15.84,7.51-.35,.41-.4,.82-.4,.82,0,0-.11,.44,.1,.8,.99,1.72,4.45,6.67,11.98,8.24,4.49,.93,11.27-.27,16.36-5.63,.35-.37,.48-.91,.52-1.2Z"/>
      <circle class="cls-23" cx="880.34" cy="373.49" r="8.37"/>
      <circle class="cls-12" cx="886.12" cy="373" r="2.35"/>
      <path class="cls-1" d="M868.34,372.47s12.99-18.45,28.63,1.58"/>
    </g>
    <path class="cls-21" d="M1072,391.42s-39.24-18.6-40.06-105.48c0,0-33.11,29.65-65.89,30.47,0,0,.5,6.62,11.98-23.71,0,0-17.03,19.55-52.28,29.38,0,0,5,.54,9.1-26.51,0,0-3.36,11.75-29.59,24.87,0,0,.8-.62,.8-24.39,0,0-6.43,12.11-24.47,26.87,0,0,3.42-12.31,.14-27.06,0,0-10.22,4.99-19.92,35.23,0,0-12.18-10.59,4.22-63.05,0,0-3.75-.37-7.13,2.09,0,0-.81-18.63,27.94-39.14,0,0,85.69-54.63,158.58-3.18,0,0,84.83,15.4,63.24,136.3,0,0-21.57-9.9-36.67,27.31Z"/>
    <circle class="cls-6" cx="1081.87" cy="435.7" r="5.8"/>
    <path class="cls-7" d="M828.5,814.67s-6.5-68.6,3.95-124.78"/>
    <path class="cls-7" d="M1175.7,846.53s-34.92-61.26-51.9-139.65"/>
    <path class="cls-8" d="M806.78,1211.61s7.8,10.34,13.16,9.15,3.57-11.31-.6-18.46c-4.17-7.14-4.17-29.17-4.17-29.17"/>
    <path class="cls-14" d="M832.82,1094.04s-2.72,76.87,4.56,120.54c0,0,83.12-28.38,147.78-85.61,0,0-90.46-4.46-152.35-34.93Z"/>
  </g>
</svg>