<?xml version="1.0" encoding="UTF-8"?>
<svg id="Layer_1" data-name="Layer 1" xmlns="http://www.w3.org/2000/svg" viewBox="0 0 1220 1258.51">
  <defs>
    <style>
      .cls-1 {
        stroke-width: 1.5px;
      }

      .cls-1, .cls-2, .cls-3, .cls-4, .cls-5, .cls-6, .cls-7, .cls-8 {
        stroke-miterlimit: 10;
      }

      .cls-1, .cls-5, .cls-6, .cls-7, .cls-8 {
        fill: none;
      }

      .cls-1, .cls-5, .cls-8 {
        stroke: #231f20;
      }

      .cls-9, .cls-2 {
        fill: #00979c;
      }

      .cls-10 {
        fill: #f6ac1b;
      }

      .cls-11 {
        fill: #fff;
      }

      .cls-12 {
        fill: #803435;
      }

      .cls-13 {
        fill: #b19074;
      }

      .cls-14 {
        fill: #ae8578;
      }

      .cls-15, .cls-3 {
        fill: #d1d3d4;
      }

      .cls-16 {
        fill: #c4e7f6;
      }

      .cls-17, .cls-4 {
        fill: #dcbf97;
      }

      .cls-18 {
        fill: #077370;
      }

      .cls-19 {
        fill: #26130f;
      }

      .cls-2, .cls-5, .cls-6, .cls-7 {
        stroke-width: 2px;
      }

      .cls-2, .cls-7 {
        stroke: #2e3192;
      }

      .cls-3 {
        stroke: #58595b;
        stroke-width: .2px;
      }

      .cls-4 {
        stroke: #754c29;
      }

      .cls-6 {
        stroke: #603913;
      }
    </style>
  </defs>
  <circle class="cls-16" cx="610" cy="648.51" r="610"/>
  <g>
    <path class="cls-13" d="M1038.63,1082.39c-228.87,73.97-454.99-25.2-454.99-25.2l-108.01,185.98s140.94,39.23,306.4-9.27c0,0,142.7-36.44,256.6-151.51"/>
    <path class="cls-9" d="M388.04,799.13l33.76,96.61-23.07,42.15s43.03,131.26,120.41,120.71l-5.76-178.55"/>
    <path class="cls-4" d="M398.73,937.89s-66.71-7.64-91.39,5.63c-24.69,13.28-60.64,15.86-31.09,30.79l21.44,4.2s-55.2,17.21-77.93,46.24c0,0-34.95,21.65-27.17,31.21,7.78,9.55,12.6,15.38,91.49-34.17,0,0-88.63,55.33-75.83,66.93,12.8,11.61,100.47-40.41,100.47-40.41,0,0-90.54,46.4-71.63,61.7,18.91,15.3,64.7-26.04,64.7-26.04,0,0-33.09,23.75-27.17,31.21,5.92,7.46,26.17-3.64,108.83-42.16,0,0,71.96-34.5,92.16-67.97"/>
    <path class="cls-4" d="M442.33,960.65s-65.91-12.79-91.56-1.46c-25.64,11.32-61.69,11.12-33.38,28.29l21.05,5.84s-56.37,12.88-81.28,40.06c0,0-36.53,18.88-29.51,29.01,7.02,10.13,11.38,16.31,93.86-26.98,0,0-92.65,48.29-80.79,60.86,11.86,12.57,103.3-32.5,103.3-32.5,0,0-93.86,39.25-76.19,55.97,17.67,16.72,66.53-20.96,66.53-20.96,0,0-34.83,21.11-29.51,29.01,5.32,7.9,26.37-1.6,111.76-33.61,0,0,74.41-28.82,97.15-60.63"/>
    <path class="cls-17" d="M634.1,288.69s14.36,62.51,50.7,108.96c0,0,10.6,177.56-125.32,207.82,0,0-104.3-58.97-77.55-179.61l152.16-137.17Z"/>
    <path class="cls-11" d="M513.01,477.68s52.92,28.02,117.52-14.79l-45.14,186.79-72.38-172Z"/>
    <path class="cls-9" d="M1038.63,1082.39c-30.93,30.6-261.96,75.22-437.51-6.97,0,0-101.76-13.47-105.53-162.74,0,0-92.1-101.18-107.55-113.54l-28.7-135.83s-19.41-113.8,23.88-161.64c0,0,33.99-33.15,71.77-54.77l84.39,49.78,42.67,120.25,19.79-126.96s60.34-30.17,80.2-115.35c0,0,137.68,14.88,223.27,81.86,0,0,93.03,59.54,127.48,120.07,0,0,59.81,100.05,135.39,267.19,0,0,4.8,11.61,10.54,25.49,0,0-36.63,110.84-140.08,213.17Z"/>
    <path class="cls-18" d="M662.55,362.58s20.94-2.47,30.97,7.56c11.12,11.12,20.69,10.03,20.69,10.03,0,0,1.37,75.76-45.42,124.78,0,0-30.64-32.95-66.95-15,0,0,100.39-78.47,60.72-127.38Z"/>
    <path class="cls-18" d="M481.76,432.56s-7.91,19.23,57.61,64.1c0,0-44.06,.75-58.98,21.7,0,0-18.78-34.35-25.41-71.47,0,0,11.18-14.26,26.78-14.32Z"/>
    <path class="cls-17" d="M326.98,125.42s-17.07,47.95,16.84,142.6c0,0,10.44,22.1,11.41,35.32,.97,13.22,10.85,32.07,15.13,46.17,24.23,79.76,68.03,92.21,68.03,92.21,0,0,18.55,22.88,64.32,10.74,45.77-12.14,86.24-39.37,97.33-63.15,11.1-23.78,37.22-66.5,33.11-97.18,0,0,28.79-1.32,30.82-36.97,0,0,15.48-58.82-17.64-63.86-33.12-5.04-38.9,40.46-38.9,40.46,0,0,12.87-131.37-67.4-159.46,0,0-113.22-44.63-213.07,53.13Z"/>
    <path class="cls-14" d="M507.66,338.85s-24.75,.77-48.8,17.49c0,0-24.61,3.3-43.76,15.02,0,0,15.06,36.39,52.77,32.64,37.7-3.75,47.91-43.66,39.8-65.15Z"/>
    <path class="cls-12" d="M502.97,343.41s11.62,32.79-31.15,47.47c-38.85,13.33-49.21-15.84-49.21-15.84,0,0,44.44-13.05,80.36-31.63Z"/>
    <path class="cls-15" d="M449.75,212.47s33.62-23.99,71.21-21.61c0,0-24.88-19.74-76.04,10.83,0,0-6.68,10.21,4.83,10.79Z"/>
    <path class="cls-15" d="M334.52,247.45c25.52-13.21,41.35-9.63,41.35-9.63,8.73-7.52-2.81-11.48-2.81-11.48-18.43,2.27-31.85,6.83-41.59,12.04,0,0,1.65,9.79,3.05,9.07Z"/>
    <path class="cls-11" d="M497.83,345.7s-6.18,15.72-39.83,25.48c0,0-19.26,11.19-31.54,3.27,0,0,42.98-13.72,71.37-28.75Z"/>
    <path class="cls-8" d="M654.06,212.47s-16.5-12.72-22.92,8.23c-6.41,20.96-5.15,26.78-5.15,26.78,0,0,8.29-32.64,22.54-13.62"/>
    <path class="cls-3" d="M657.93,193.75s-27.98-13.29-37.85,14.03c-9.87,27.32-4.03,36.77-4.03,36.77l-15.22,4.18s26.35-93.86-33.52-111.08c0,0-6.21-63.25-54.32-58.69-48.11,4.56-83.22-34.08-189.53,57.38,0,0-30.92-64.99,86.89-118.95,0,0,79.38-37.45,115.96-2.13,0,0,56.85-10.64,93.41,57.98,36.56,68.62,38.2,120.5,38.2,120.5Z"/>
    <path class="cls-19" d="M491.34,454.89s52.11-11.64,79.72-34.02c0,0,23.23-13.4,39.54-50.9,0,0-18.71,54.52-65.59,74.74-.23,.1-.44,.17-.68,.27-2.16,.9-28.6,12.37-47.97,16.33,0,0-5.77-4.94-5.03-6.42Z"/>
    <path class="cls-8" d="M464.5,141.95s-33.96,15.8-49.38,25.24c-15.42,9.44-68.09,13.01-68.09,13.01"/>
    <path class="cls-15" d="M468.69,322.82s28.47,9.36,48.13,6.44c0,0-.88,8.28-9.16,9.59,0,0-33.63,3.76-48.8,17.49,0,0-24.5,2.43-43.76,15.02,0,0-1.9,2.44-6.85,3.04,0,0,16.66-23.41,13.06-31.75,0,0,21.75,3.22,31.28-15.16,0,0,6.61,.93,16.1-4.66Z"/>
    <path class="cls-5" d="M417.58,267.16l-5.54,53.44s-.38,28.54,20.87,21.95c17.62-5.47,16.87-11.27,16.87-11.27"/>
    <path class="cls-8" d="M529.08,339.72s-3.11-20.9-16.5-22c-13.39-1.1-26.48-22.64-26.48-22.64"/>
    <g>
      <circle class="cls-6" cx="477.58" cy="231.6" r="41.01"/>
      <circle class="cls-6" cx="354.61" cy="274.96" r="41.01"/>
      <path class="cls-6" d="M393.39,261.65s12.84-28.92,45.41-16.74"/>
      <line class="cls-6" x1="516.37" y1="218.28" x2="629.14" y2="188.65"/>
    </g>
    <g>
      <path class="cls-11" d="M503.66,223.07s-.31-1.04-1.34-1.68c-3.43-2.1-10.94-5.69-20.21-2.89-10.38,3.14-13.15,14.61-14.05,18.68-.15,.7,.04,1.22,.04,1.22,0,0,.14,.59,.61,.89,2.24,1.42,9.38,5.12,19.26,2.3,5.88-1.68,13.14-7.31,15.83-16.78,.19-.66,0-1.37-.13-1.74Z"/>
      <circle class="cls-19" cx="482.8" cy="231.37" r="11.21"/>
      <circle class="cls-11" cx="485.66" cy="223.56" r="3.08"/>
      <path class="cls-1" d="M467.42,237.39s5.15-28.59,35.27-16.21"/>
    </g>
    <g>
      <path class="cls-11" d="M385.45,268.61s-.14-1.02-1.01-1.75c-2.88-2.44-9.36-6.85-18.38-5.57-10.1,1.43-14.32,11.71-15.74,15.36-.24,.63-.14,1.14-.14,1.14,0,0,.04,.57,.44,.91,1.88,1.64,7.99,6.1,17.58,4.89,5.7-.72,13.26-4.91,17.12-13.34,.27-.59,.2-1.27,.13-1.64Z"/>
      <circle class="cls-19" cx="364.85" cy="273.33" r="10.51"/>
      <circle class="cls-11" cx="368.99" cy="265.63" r="2.94"/>
      <path class="cls-1" d="M350.2,277.01s7.9-27.18,34.62-9.79"/>
    </g>
    <path class="cls-7" d="M462.69,718.29c-7.72,87.95,66.76,265.8,66.76,265.8"/>
    <path class="cls-2" d="M736.6,541.34s-29.06,138.44-15.48,297.98c0,0-228.5,41.81-277.34,106.29,0,0,10.35,117.81,63.11,129.54,0,0,324.14-77.66,355.4-124.56,31.26-46.89,67.21-211.32,67.21-211.32"/>
    <polygon class="cls-10" points="224.23 785.28 232.46 782.18 289.35 934.08 224.23 785.28"/>
    <polygon class="cls-10" points="141.56 813.87 149.26 809.63 227.2 951.88 141.56 813.87"/>
    <polygon class="cls-10" points="64.67 871.35 71.2 865.48 179.59 986.14 64.67 871.35"/>
    <polygon class="cls-10" points="3.55 989.69 6.81 981.54 157.32 1041.98 3.55 989.69"/>
    <polygon class="cls-10" points="8.88 1119.7 8.21 1110.94 169.95 1098.76 8.88 1119.7"/>
    <polygon class="cls-10" points="94.07 1246.35 88.83 1239.31 219.13 1142.71 94.07 1246.35"/>
  </g>
</svg>