<?xml version="1.0" encoding="UTF-8"?>
<svg id="Layer_1" data-name="Layer 1" xmlns="http://www.w3.org/2000/svg" xmlns:xlink="http://www.w3.org/1999/xlink" viewBox="0 0 1221 1259.57">
  <defs>
    <style>
      .cls-1, .cls-2, .cls-3, .cls-4, .cls-5, .cls-6, .cls-7, .cls-8 {
        fill: none;
      }

      .cls-2 {
        stroke-width: 1.5px;
      }

      .cls-2, .cls-9, .cls-10, .cls-11, .cls-12, .cls-13, .cls-3, .cls-4, .cls-5, .cls-6, .cls-7, .cls-8 {
        stroke-miterlimit: 10;
      }

      .cls-2, .cls-3, .cls-8 {
        stroke: #231f20;
      }

      .cls-14 {
        clip-path: url(#clippath);
      }

      .cls-15, .cls-9 {
        fill: #00979c;
      }

      .cls-16 {
        fill: #e6e7e8;
      }

      .cls-17 {
        fill: #fff;
      }

      .cls-18 {
        fill: #803435;
      }

      .cls-19, .cls-10 {
        fill: #9054a2;
      }

      .cls-20 {
        fill: #ba8abe;
      }

      .cls-21 {
        fill: #b19074;
      }

      .cls-22 {
        fill: #ae8578;
      }

      .cls-23, .cls-13 {
        fill: #be9e7d;
      }

      .cls-24 {
        fill: #be8c8c;
      }

      .cls-25, .cls-11 {
        fill: #d1d3d4;
      }

      .cls-26 {
        fill: #c4e7f6;
      }

      .cls-27 {
        fill: #d4bada;
      }

      .cls-28, .cls-12 {
        fill: #dcbf97;
      }

      .cls-29 {
        fill: #231f20;
      }

      .cls-30 {
        fill: #077370;
      }

      .cls-31 {
        fill: #546b82;
      }

      .cls-32 {
        fill: #5c4d6b;
      }

      .cls-33 {
        fill: #576b81;
      }

      .cls-34 {
        fill: #26130f;
      }

      .cls-9, .cls-10, .cls-3, .cls-4, .cls-5, .cls-6, .cls-7 {
        stroke-width: 2px;
      }

      .cls-9, .cls-7 {
        stroke: #2e3192;
      }

      .cls-10, .cls-4 {
        stroke: #662d91;
      }

      .cls-11 {
        stroke: #58595b;
        stroke-width: .2px;
      }

      .cls-12 {
        stroke-width: .5px;
      }

      .cls-12, .cls-13 {
        stroke: #754c29;
      }

      .cls-5 {
        stroke: #603913;
      }

      .cls-6 {
        stroke: #2b3990;
      }
    </style>
    <clipPath id="clippath">
      <path class="cls-1" d="M87.43,964.32c53.41,88.45,128.63,162.25,218.23,213.93l26.78-35.66-4.46-298.54,113.62-6.68,57.93-75.75,53.47-20.05-33.42-73.52-113.62-109.17-160.41-91.34s-80.05-66.02-109.17-20.05l-82.43,62.38-26.73,140.36,8.91,95.8-8.91,66.84,39.68,104.6,20.54,46.86Z"/>
    </clipPath>
  </defs>
  <circle class="cls-26" cx="610" cy="649.57" r="610"/>
  <g>
    <path class="cls-21" d="M1200.98,844.29c-193.67,74.69-369.81,2.08-369.81,2.08l-152.87,262.25c-46.13,57.99-42.17,135.74-42.17,135.74l1.15,14.77,231.89-20.79,106.44-135.61-24.47,111.68,208.18-3.57"/>
    <line class="cls-5" x1="975.3" y1="1102.48" x2="1011.07" y2="1028.1"/>
    <path class="cls-15" d="M674.58,639.78l27.03,77.34-18.47,33.75s34.45,105.08,96.4,96.63l-4.61-142.94"/>
    <path class="cls-12" d="M683.14,750.86s-53.4-6.12-73.17,4.51c-19.76,10.63-48.55,12.7-24.89,24.65l17.16,3.36s-44.19,13.77-62.39,37.01c0,0-27.98,17.33-21.75,24.98,6.23,7.65,10.09,12.31,73.25-27.35,0,0-70.95,44.29-60.71,53.59,10.24,9.29,80.43-32.35,80.43-32.35,0,0-72.48,37.15-57.34,49.39,15.14,12.25,51.8-20.85,51.8-20.85,0,0-26.49,19.01-21.75,24.98,4.74,5.97,20.95-2.91,87.12-33.75,0,0,57.61-27.62,73.78-54.41"/>
    <path class="cls-12" d="M718.04,769.09s-52.77-10.24-73.3-1.17c-20.53,9.07-49.39,8.9-26.72,22.65l16.85,4.68s-45.13,10.31-65.07,32.07c0,0-29.24,15.11-23.62,23.22,5.62,8.11,9.11,13.06,75.14-21.6,0,0-74.17,38.66-64.68,48.72,9.49,10.06,82.7-26.02,82.7-26.02,0,0-75.14,31.42-61,44.8,14.14,13.38,53.26-16.78,53.26-16.78,0,0-27.89,16.9-23.62,23.22,4.26,6.32,21.11-1.28,89.47-26.91,0,0,59.57-23.07,77.77-48.53"/>
    <path class="cls-28" d="M871.56,231.13s11.5,50.04,40.59,87.23c0,0,8.49,142.15-100.33,166.37,0,0-83.5-47.21-62.08-143.79l121.82-109.81Z"/>
    <path class="cls-17" d="M774.63,382.43s42.37,22.43,94.08-11.84l-36.14,149.54-57.95-137.7Z"/>
    <path class="cls-15" d="M1221,860.94c-84.58,36.69-234.13,66.37-375.83,.02,0,0-81.47-10.79-84.48-130.29,0,0-73.73-81-86.1-90.9l-22.98-108.74s-15.54-91.1,19.12-129.4c0,0,27.21-26.54,57.45-43.85l67.56,39.85,34.16,96.27,15.85-101.64s48.51-36.22,64.21-92.35c0,0,110.22,11.92,178.74,65.54,0,0,74.47,47.66,102.06,96.12,0,0,14.88,27.38,29.77,54.88"/>
    <path class="cls-30" d="M893.52,290.6s13.46-4.9,20.78,11.97c4.7,10.83,10.95,12.37,10.95,12.37,0,0,8.07,45.74-27.05,82.54,0,0-25.21-18.69-52.46-5.22,0,0,77.57-64.95,47.79-101.66Z"/>
    <path class="cls-30" d="M749.61,346.32s-6.34,15.39,46.12,51.32c0,0-35.28,.6-47.22,17.37,0,0-15.04-27.5-20.34-57.22,0,0,8.95-11.42,21.44-11.47Z"/>
    <path class="cls-28" d="M625.7,100.42s-13.67,38.39,13.48,114.16c0,0,8.36,17.69,9.13,28.27,.78,10.58,8.69,25.67,12.11,36.96,19.39,63.85,54.46,73.82,54.46,73.82,0,0,14.85,18.32,51.49,8.6,36.64-9.72,69.04-31.52,77.92-50.56,8.88-19.04,29.8-53.23,26.5-77.8,0,0,23.05-1.06,24.68-29.6,0,0,12.39-47.09-14.12-51.12-26.51-4.03-31.14,32.39-31.14,32.39,0,0,10.3-105.17-53.96-127.66,0,0-90.64-35.73-170.57,42.53Z"/>
    <path class="cls-22" d="M770.35,271.29s-19.81,.62-39.07,14c0,0-19.7,2.64-35.03,12.02,0,0,12.06,29.13,42.24,26.13,30.18-3,38.35-34.95,31.86-52.16Z"/>
    <path class="cls-18" d="M766.59,274.94s9.3,26.25-24.94,38c-31.1,10.67-39.39-12.68-39.39-12.68,0,0,35.58-10.44,64.33-25.32Z"/>
    <path class="cls-25" d="M723.98,170.12s26.92-19.2,57-17.3c0,0-19.92-15.81-60.87,8.67,0,0-5.35,8.17,3.87,8.63Z"/>
    <path class="cls-25" d="M631.73,198.12c20.43-10.58,33.1-7.71,33.1-7.71,6.99-6.02-2.25-9.19-2.25-9.19-14.76,1.82-25.5,5.47-33.3,9.64,0,0,1.32,7.84,2.44,7.26Z"/>
    <path class="cls-17" d="M762.47,276.77s-4.95,12.59-31.89,20.4c0,0-15.42,8.96-25.25,2.62,0,0,34.41-10.98,57.14-23.02Z"/>
    <path class="cls-3" d="M887.55,170.12s-13.21-10.19-18.35,6.59c-5.14,16.78-4.13,21.44-4.13,21.44,0,0,6.64-26.13,18.05-10.91"/>
    <path class="cls-11" d="M890.55,157.24s-22.3-12.75-30.21,9.12c-7.9,21.87-3.23,29.43-3.23,29.43l-12.18,3.35s21.09-75.14-26.83-88.93c0,0-4.97-50.63-43.48-46.99-38.51,3.65-66.62-27.28-151.73,45.94,0,0-24.75-52.03,69.56-95.23,0,0,63.55-29.98,92.83-1.7,0,0,45.51-8.52,74.78,46.42,29.27,54.94,30.49,98.58,30.49,98.58Z"/>
    <path class="cls-34" d="M757.28,364.19s41.72-9.32,63.82-27.23c0,0,18.59-10.73,31.66-40.75,0,0-14.98,43.65-52.51,59.84-.19,.08-.35,.13-.54,.21-1.73,.72-22.9,9.9-38.4,13.07,0,0-4.62-3.95-4.03-5.14Z"/>
    <path class="cls-8" d="M735.79,113.66s-27.19,12.65-39.53,20.21c-12.34,7.56-54.51,10.41-54.51,10.41"/>
    <path class="cls-25" d="M739.15,258.46s22.79,7.5,38.53,5.16c0,0-.7,6.63-7.33,7.68,0,0-26.93,3.01-39.07,14,0,0-19.61,1.94-35.03,12.02,0,0-1.52,1.95-5.48,2.43,0,0,13.34-18.74,10.45-25.42,0,0,17.41,2.58,25.04-12.14,0,0,5.29,.75,12.89-3.73Z"/>
    <path class="cls-3" d="M698.23,213.9l-4.43,42.78s-.3,22.85,16.7,17.58c14.11-4.38,13.5-9.02,13.5-9.02"/>
    <path class="cls-8" d="M787.49,271.99s-2.49-16.73-13.21-17.61c-10.72-.88-21.2-18.12-21.2-18.12"/>
    <g>
      <circle class="cls-5" cx="746.27" cy="185.43" r="32.83"/>
      <circle class="cls-5" cx="647.81" cy="220.15" r="32.83"/>
      <path class="cls-5" d="M678.87,209.49s10.28-23.15,36.35-13.4"/>
      <line class="cls-5" x1="777.32" y1="174.77" x2="867.6" y2="151.05"/>
    </g>
    <g>
      <path class="cls-17" d="M767.14,178.6s-.25-.84-1.07-1.34c-2.74-1.68-8.76-4.55-16.18-2.31-8.31,2.51-10.53,11.7-11.25,14.95-.12,.56,.03,.98,.03,.98,0,0,.11,.47,.49,.71,1.79,1.14,7.51,4.1,15.42,1.84,4.7-1.34,10.52-5.85,12.67-13.43,.15-.53,0-1.1-.1-1.4Z"/>
      <circle class="cls-34" cx="750.44" cy="185.25" r="8.98"/>
      <circle class="cls-17" cx="752.74" cy="178.99" r="2.46"/>
      <path class="cls-8" d="M738.13,190.07s4.12-22.89,28.24-12.98"/>
    </g>
    <g>
      <path class="cls-17" d="M672.5,215.06s-.11-.81-.8-1.4c-2.31-1.96-7.5-5.49-14.72-4.46-8.09,1.15-11.46,9.37-12.6,12.3-.2,.5-.11,.91-.11,.91,0,0,.04,.45,.35,.73,1.5,1.31,6.4,4.89,14.07,3.92,4.57-.58,10.62-3.93,13.7-10.68,.21-.47,.16-1.02,.1-1.31Z"/>
      <circle class="cls-34" cx="656.02" cy="218.84" r="8.41"/>
      <circle class="cls-17" cx="659.33" cy="212.68" r="2.36"/>
      <path class="cls-8" d="M644.29,221.79s6.32-21.76,27.71-7.84"/>
    </g>
    <path class="cls-7" d="M734.35,575.06c-6.18,70.41,53.44,212.79,53.44,212.79"/>
    <path class="cls-9" d="M953.63,433.4s-23.27,110.83-12.4,238.55c0,0-182.93,33.47-222.03,85.09,0,0,8.29,94.32,50.52,103.7,0,0,259.49-62.17,284.52-99.71,25.03-37.54,53.81-169.18,53.81-169.18"/>
    <polygon class="cls-17" points="543.44 628.69 550.03 626.21 595.58 747.81 543.44 628.69"/>
    <polygon class="cls-17" points="477.26 651.57 483.42 648.18 545.82 762.06 477.26 651.57"/>
    <polygon class="cls-17" points="415.7 697.6 420.93 692.89 507.7 789.49 415.7 697.6"/>
    <polygon class="cls-17" points="365.63 791.2 368.24 784.67 488.74 833.05 365.63 791.2"/>
    <polygon class="cls-17" points="365.36 896.41 364.82 889.4 494.3 879.65 365.36 896.41"/>
    <polygon class="cls-17" points="429.01 1001.22 424.81 995.58 529.12 918.24 429.01 1001.22"/>
  </g>
  <g class="cls-14">
    <g>
      <path class="cls-31" d="M218.21,1213.04l-.08-21.3-6.16,20.68s-35.12,20.66-86.69,.65l-6.31-69.03c-11.35-19.07-30.99-113.28-30.99-113.28-7.04-53.68-.1-63.83-.1-63.83,154.66,56.94,217.48-23.03,217.48-23.03l9.4,178.5c2.16,16.72-6.05,45.48-6.05,45.48l-14.27,48.85s-45.94,9.64-76.23-3.67Z"/>
      <path class="cls-23" d="M136.59,648.07s6.94,37.23-3.55,63.87c0,0,28.58,66.92,83.48,62.88,0,0,38.75,1.61,28.26-58.94,0,0-15.34-2.42-16.15-18.57l-92.04-49.25Z"/>
      <path class="cls-23" d="M121.44,618.34s-16.83-21.82-29.66-12.4c-12.84,9.42,1.35,37.19,1.35,37.19,0,0,18.52,22.46,35.04,9.42,0,0,24.72,45.68,90.7,45.95,0,0,27.83,1.88,47.45-27.58,18.92-28.41,5.3-73.09,5.3-73.09,0,0,2.74-8.03-.12-36.14-2.86-28.11-14.24-60.22-51.61-68.59-37.37-8.37-60.35-10.9-92.19,19.12-31.84,30.02-6.24,106.13-6.24,106.13Z"/>
      <path class="cls-24" d="M211.85,649.49s9.29-3.69,21.47-2.42c0,0,9.41-1.73,19.15-.59,0,0,2.68,12.83-12.97,18.24-15.65,5.41-26.94-5.22-27.66-15.23Z"/>
      <path class="cls-18" d="M213.45,650.01s1.39,15.14,21.06,13.14c17.86-1.82,16.63-15.3,16.63-15.3,0,0-20.03,2.96-37.69,2.15Z"/>
      <path class="cls-29" d="M195.31,572.96s-15.96-2.54-28.1,7.35c0,0-7.59-2.11,1.8-7.55,9.38-5.44,16.39-9.04,26.39-5.25,0,0,4.48,3.07-.09,5.46Z"/>
      <path class="cls-29" d="M247.72,568.26s9.29-6.39,23.16,.85c0,0,4.85-3.34-.61-6.03-8.1-3.98-13.55-4.07-23.73-.15,0,0-3.77,3.91,1.18,5.33Z"/>
      <path class="cls-17" d="M216.17,650.02s5.71,6.65,21.19,4.32c0,0,9.65-.49,13.15-6.01,0,0-20.01,2.48-34.34,1.69Z"/>
      <path class="cls-34" d="M226.11,697.97s-14.83,3.61-38.86-3.38c0,0-8.71-1.06-26.62-10.62,0,0,13.33,10.49,38.12,17.22,0,0,10.46,3.13,29.27,1.19,0,0-1.32-1.41-1.91-4.41Z"/>
      <path class="cls-2" d="M96.78,625.85s5.31-10.15,13.34-1.17c8.03,8.99,8.74,12.19,8.74,12.19,0,0-11.65-14.39-14.39-1.61"/>
      <path class="cls-2" d="M241.11,608.77s14.11,16.97-7.03,21.29"/>
      <g>
        <path class="cls-17" d="M178.63,598.86s-.09-.64,.31-1.24c1.33-1.98,4.49-5.79,10.18-6.58,6.38-.89,10.73,4.61,12.22,6.58,.26,.34,.28,.67,.28,.67,0,0,.07,.35-.11,.63-.85,1.32-3.79,5.1-9.81,6.03-3.59,.56-8.9-.67-12.71-5.11-.26-.31-.34-.74-.36-.97Z"/>
        <circle class="cls-34" cx="191.94" cy="598.15" r="6.66"/>
        <circle class="cls-17" cx="187.84" cy="602.53" r="1.83"/>
        <path class="cls-8" d="M201.74,597.58s-9.89-14.14-23.06,.03"/>
      </g>
      <g>
        <path class="cls-17" d="M246.05,593.21s-.18-.57,.11-1.18c.94-2.01,3.3-5.94,8.41-7.47,5.72-1.72,10.49,2.72,12.14,4.31,.28,.28,.35,.57,.35,.57,0,0,.12,.31-.01,.59-.6,1.33-2.75,5.21-8.15,6.91-3.21,1.02-8.26,.64-12.38-2.9-.29-.25-.42-.63-.47-.84Z"/>
        <circle class="cls-34" cx="258.16" cy="590.67" r="6.15"/>
        <circle class="cls-17" cx="254.54" cy="593.85" r="1.72"/>
        <path class="cls-8" d="M266.86,589.03s-10.87-12.52-20.81,3.28"/>
      </g>
      <path class="cls-23" d="M394.88,752.41s18.72-26.03,49.72-49.72c0,0-3.51-35.1,11.7-47.67l42.99,56.16s-7.9,14.33-22.52,17.55c0,0-23.98,57.33-51.48,71.66-27.49,14.33-71.36,16.38-71.36,16.38"/>
      <path class="cls-13" d="M463.91,679.59s16.09,10.53,10.24,26.32"/>
      <path class="cls-32" d="M409.76,593.4l28.63,34.3,15.45,27.06,64.78,80.91s9.25,1.79,8.05-7.46l-67.71-78.44-4.77-13.72s-1.49-5.67-8.95-13.42l-27.44-34.3s-7.75-2.09-8.05,5.07Z"/>
      <polygon class="cls-16" points="411.52 595.76 397 607.78 424.37 640.18 438.37 628.21 411.52 595.76"/>
      <path class="cls-23" d="M475.33,657.27s-6.27,4.61-6.64,9.04c-.37,4.43,.18,6.64,5.72,6.27s9.23-8.49,9.23-8.49c0,0,2.03-9.04-8.3-6.83Z"/>
      <path class="cls-23" d="M484.54,663.04s-7.12,5.24-7.54,10.26c-.42,5.03,.21,7.54,6.49,7.12s10.47-9.63,10.47-9.63c0,0,2.3-10.26-9.43-7.75Z"/>
      <path class="cls-23" d="M492.48,672.26s-7.12,5.24-7.54,10.26c-.42,5.03,.21,7.54,6.49,7.12s10.47-9.63,10.47-9.63c0,0,2.3-10.26-9.43-7.75Z"/>
      <path class="cls-23" d="M498.67,682.99s-5.45,4.21-5.77,8.26,.16,6.07,4.96,5.73,8.01-7.75,8.01-7.75c0,0,1.76-8.26-7.21-6.23Z"/>
      <path class="cls-19" d="M138.58,712.31s20.53,49.67,65.56,46.35c0,0,41.52,1.86,40.63-42.78,0,0,28.43-.95,56.05,16.95,0,0,71.67,21.77,82.76,25.03,0,0,52.99-58.46,55.15-50.96,.27,.93,4.18-5.14,5.12-3.84,4.92,6.79,23.91,20.21,30.57,28.59,2.28,2.87-4.13,10.25-3.97,13.05,.52,8.77-39.46,64.57-74.24,82.09-11.99,6.04-99.43,3.41-99.43,3.41l8.57,113.68s-65.24,86.35-217.48,23.03l-15.3-91.94-16.45,1.98s-29.01-78.8,21.21-127.72c48.29-47.04,61.25-36.93,61.25-36.93Z"/>
      <path class="cls-20" d="M138.58,712.31s25.61,52.35,65.56,46.35c0,0,41.31,1.48,40.63-42.78l7.69,.28s9.23,45.8-45.42,50.93c0,0-30.48,3.98-53.54-15.11,0,0-20.93-15.39-28.3-38.16"/>
      <path class="cls-23" d="M210.7,943.94l10.61,1.57s15.72-6.79,41.56-7.89c0,0,19.75-1.86,24.35,2.79,4.09,4.13,.02,10.1-4.97,10.63-5,.54-22.14-5.94-23.21,.1,0,0-3.38,11.43,27.98,20.09,0,0,15.04,1.75,19.65-2.49,0,0,15.26-1.04,7.46,10.2,0,0,4.49,10.76-9.23,12.14,0,0-5.03,18.77-25.13,14.26,0,0,.02,8.94-9.21,4.84-9.23-4.1-26.62-11.66-26.62-11.66,0,0-13.33-3.57-25.91-12.8l-68.55-5.24s-38.54-.67-58.99-39.89c-20.45-39.22-30.84-62.01-30.84-62.01l70.28-23.34s16.19,33.39,23.57,59.54l57.2,29.16Z"/>
      <path class="cls-13" d="M314.12,978.94s-25.53,13.46-49.24-2.61"/>
      <path class="cls-13" d="M304.9,991.09s-23.93,13.42-43.28-5.66"/>
      <path class="cls-13" d="M279.77,1005.34s-15.33-2.4-19.28-6.67"/>
      <path class="cls-4" d="M297.02,830.34s-2.83-24.32-6.88-42.85"/>
      <path class="cls-34" d="M145.74,514.86s18.49,70.77-26.67,104.05c0,0-4.39-15.02-23.22-11.06,0,0-22.47,12.42,7.95,39.33,0,0,21.24,11.79,29.83,.65,0,0,33.47,61.6,.04,94.66,0,0-10.95-11.29-31.81-5,0,0-19.64,15.6-39.68-7.63,0,0-41.12-199.04,45.08-236.4,0,0,74.58-75.13,142.84-1.14,0,0,60.52,53.39,29.76,218.1,0,0-7.39,0-19.33-3.8,0,0-5.91-8.81-13.64-3.02,0,0-19.75,2.03-20.84-5.6,0,0,32.34-3.29,45.82-38.02,0,0,9.28-28.69-.27-62.16,0,0-1.03-8.26-.73-28.71,0,0-.91-30.14-10.93-39.91,0,0-57.17,26.64-114.22-14.34Z"/>
      <path class="cls-33" d="M102.34,607.21s-17.4-63.36,25.31-104.02c42.71-40.66,91.18-19.11,101.82-10.64,25.22,20.05,28.43,29.99,28.43,29.99,0,0-.27-6.71-41.33-24.01,0,0-54.07-10.96-84.07,27.35-30,38.31-13.43,93.03-13.43,93.03,0,0-3.09-10.13-16.73-11.7Z"/>
      <path class="cls-6" d="M218.13,1191.74l8.51-60.6s4.07-58-6.1-91.57"/>
      <path class="cls-10" d="M56.12,876.96s26.19,67.23,48.35,86.92c0,0,16.16,26.47,100.45,20.68l13.11,1.16,3.29-40.21-10.61-1.57s-44.37-25.81-57.2-29.16c0,0-19.01-162.08-59.28-153.42"/>
      <path class="cls-27" d="M171.46,814.23l6.15-4.21c1.79-1.23,4.21,.14,4.1,2.3l-.4,7.44c-.05,.86,.33,1.69,1.02,2.22l5.9,4.55c1.72,1.33,1.17,4.05-.93,4.61l-7.2,1.92c-.83,.22-1.5,.84-1.79,1.65l-2.5,7.02c-.73,2.05-3.49,2.37-4.67,.54l-4.05-6.25c-.47-.72-1.26-1.17-2.13-1.2l-7.45-.21c-2.17-.06-3.33-2.59-1.96-4.27l4.7-5.78c.54-.67,.72-1.56,.48-2.39l-2.1-7.15c-.61-2.08,1.43-3.97,3.46-3.18l6.95,2.68c.8,.31,1.71,.2,2.42-.28Z"/>
      <path class="cls-27" d="M233.68,852.15l6.15-4.21c1.79-1.23,4.21,.14,4.1,2.3l-.4,7.44c-.05,.86,.33,1.69,1.02,2.22l5.9,4.55c1.72,1.33,1.17,4.05-.93,4.61l-7.2,1.92c-.83,.22-1.5,.84-1.79,1.65l-2.5,7.02c-.73,2.05-3.49,2.37-4.67,.54l-4.05-6.25c-.47-.72-1.26-1.17-2.13-1.2l-7.45-.21c-2.17-.06-3.33-2.59-1.96-4.27l4.7-5.78c.54-.67,.72-1.56,.48-2.39l-2.1-7.15c-.61-2.08,1.43-3.97,3.46-3.18l6.95,2.68c.8,.31,1.71,.2,2.42-.28Z"/>
      <path class="cls-27" d="M260.93,792.31l6.15-4.21c1.79-1.23,4.21,.14,4.1,2.3l-.4,7.44c-.05,.86,.33,1.69,1.02,2.22l5.9,4.55c1.72,1.33,1.17,4.05-.93,4.61l-7.2,1.92c-.83,.22-1.5,.84-1.79,1.65l-2.5,7.02c-.73,2.05-3.49,2.37-4.67,.54l-4.05-6.25c-.47-.72-1.26-1.17-2.13-1.2l-7.45-.21c-2.17-.06-3.33-2.59-1.96-4.27l4.7-5.78c.54-.67,.72-1.56,.48-2.39l-2.1-7.15c-.61-2.08,1.43-3.97,3.46-3.18l6.95,2.68c.8,.31,1.71,.2,2.42-.28Z"/>
      <path class="cls-27" d="M281.08,886.52l6.15-4.21c1.79-1.23,4.21,.14,4.1,2.3l-.4,7.44c-.05,.86,.33,1.69,1.02,2.22l5.9,4.55c1.72,1.33,1.17,4.05-.93,4.61l-7.2,1.92c-.83,.22-1.5,.84-1.79,1.65l-2.5,7.02c-.73,2.05-3.49,2.37-4.67,.54l-4.05-6.25c-.47-.72-1.26-1.17-2.13-1.2l-7.45-.21c-2.17-.06-3.33-2.59-1.96-4.27l4.7-5.78c.54-.67,.72-1.56,.48-2.39l-2.1-7.15c-.61-2.08,1.43-3.97,3.46-3.18l6.95,2.68c.8,.31,1.71,.2,2.42-.28Z"/>
      <path class="cls-27" d="M186.87,889.48l6.15-4.21c1.79-1.23,4.21,.14,4.1,2.3l-.4,7.44c-.05,.86,.33,1.69,1.02,2.22l5.9,4.55c1.72,1.33,1.17,4.05-.93,4.61l-7.2,1.92c-.83,.22-1.5,.84-1.79,1.65l-2.5,7.02c-.73,2.05-3.49,2.37-4.67,.54l-4.05-6.25c-.47-.72-1.26-1.17-2.13-1.2l-7.45-.21c-2.17-.06-3.33-2.59-1.96-4.27l4.7-5.78c.54-.67,.72-1.56,.48-2.39l-2.1-7.15c-.61-2.08,1.43-3.97,3.46-3.18l6.95,2.68c.8,.31,1.71,.2,2.42-.28Z"/>
      <path class="cls-27" d="M90.88,778.68l6.15-4.21c1.79-1.23,4.21,.14,4.1,2.3l-.4,7.44c-.05,.86,.33,1.69,1.02,2.22l5.9,4.55c1.72,1.33,1.17,4.05-.93,4.61l-7.2,1.92c-.83,.22-1.5,.84-1.79,1.65l-2.5,7.02c-.73,2.05-3.49,2.37-4.67,.54l-4.05-6.25c-.47-.72-1.26-1.17-2.13-1.2l-7.45-.21c-2.17-.06-3.33-2.59-1.96-4.27l4.7-5.78c.54-.67,.72-1.56,.48-2.39l-2.1-7.15c-.61-2.08,1.43-3.97,3.46-3.18l6.95,2.68c.8,.31,1.71,.2,2.42-.28Z"/>
      <path class="cls-27" d="M80.81,840.9l6.15-4.21c1.79-1.23,4.21,.14,4.1,2.3l-.4,7.44c-.05,.86,.33,1.69,1.02,2.22l5.9,4.55c1.72,1.33,1.17,4.05-.93,4.61l-7.2,1.92c-.83,.22-1.5,.84-1.79,1.65l-2.5,7.02c-.73,2.05-3.49,2.37-4.67,.54l-4.05-6.25c-.47-.72-1.26-1.17-2.13-1.2l-7.45-.21c-2.17-.06-3.33-2.59-1.96-4.27l4.7-5.78c.54-.67,.72-1.56,.48-2.39l-2.1-7.15c-.61-2.08,1.43-3.97,3.46-3.18l6.95,2.68c.8,.31,1.71,.2,2.42-.28Z"/>
      <path class="cls-27" d="M125.25,882.96l6.15-4.21c1.79-1.23,4.21,.14,4.1,2.3l-.4,7.44c-.05,.86,.33,1.69,1.02,2.22l5.9,4.55c1.72,1.33,1.17,4.05-.93,4.61l-7.2,1.92c-.83,.22-1.5,.84-1.79,1.65l-2.5,7.02c-.73,2.05-3.49,2.37-4.67,.54l-4.05-6.25c-.47-.72-1.26-1.17-2.13-1.2l-7.45-.21c-2.17-.06-3.33-2.59-1.96-4.27l4.7-5.78c.54-.67,.72-1.56,.48-2.39l-2.1-7.15c-.61-2.08,1.43-3.97,3.46-3.18l6.95,2.68c.8,.31,1.71,.2,2.42-.28Z"/>
      <path class="cls-27" d="M143.02,942.81l6.15-4.21c1.79-1.23,4.21,.14,4.1,2.3l-.4,7.44c-.05,.86,.33,1.69,1.02,2.22l5.9,4.55c1.72,1.33,1.17,4.05-.93,4.61l-7.2,1.92c-.83,.22-1.5,.84-1.79,1.65l-2.5,7.02c-.73,2.05-3.49,2.37-4.67,.54l-4.05-6.25c-.47-.72-1.26-1.17-2.13-1.2l-7.45-.21c-2.17-.06-3.33-2.59-1.96-4.27l4.7-5.78c.54-.67,.72-1.56,.48-2.39l-2.1-7.15c-.61-2.08,1.43-3.97,3.46-3.18l6.95,2.68c.8,.31,1.71,.2,2.42-.28Z"/>
      <path class="cls-27" d="M294.11,746.69l6.15-4.21c1.79-1.23,4.21,.14,4.1,2.3l-.4,7.44c-.05,.86,.33,1.69,1.02,2.22l5.9,4.55c1.72,1.33,1.17,4.05-.93,4.61l-7.2,1.92c-.83,.22-1.5,.84-1.79,1.65l-2.5,7.02c-.73,2.05-3.49,2.37-4.67,.54l-4.05-6.25c-.47-.72-1.26-1.17-2.13-1.2l-7.45-.21c-2.17-.06-3.33-2.59-1.96-4.27l4.7-5.78c.54-.67,.72-1.56,.48-2.39l-2.1-7.15c-.61-2.08,1.43-3.97,3.46-3.18l6.95,2.68c.8,.31,1.71,.2,2.42-.28Z"/>
      <path class="cls-27" d="M331.44,788.16l6.15-4.21c1.79-1.23,4.21,.14,4.1,2.3l-.4,7.44c-.05,.86,.33,1.69,1.02,2.22l5.9,4.55c1.72,1.33,1.17,4.05-.93,4.61l-7.2,1.92c-.83,.22-1.5,.84-1.79,1.65l-2.5,7.02c-.73,2.05-3.49,2.37-4.67,.54l-4.05-6.25c-.47-.72-1.26-1.17-2.13-1.2l-7.45-.21c-2.17-.06-3.33-2.59-1.96-4.27l4.7-5.78c.54-.67,.72-1.56,.48-2.39l-2.1-7.15c-.61-2.08,1.43-3.97,3.46-3.18l6.95,2.68c.8,.31,1.71,.2,2.42-.28Z"/>
      <path class="cls-27" d="M377.65,771.57l6.15-4.21c1.79-1.23,4.21,.14,4.1,2.3l-.4,7.44c-.05,.86,.33,1.69,1.02,2.22l5.9,4.55c1.72,1.33,1.17,4.05-.93,4.61l-7.2,1.92c-.83,.22-1.5,.84-1.79,1.65l-2.5,7.02c-.73,2.05-3.49,2.37-4.67,.54l-4.05-6.25c-.47-.72-1.26-1.17-2.13-1.2l-7.45-.21c-2.17-.06-3.33-2.59-1.96-4.27l4.7-5.78c.54-.67,.72-1.56,.48-2.39l-2.1-7.15c-.61-2.08,1.43-3.97,3.46-3.18l6.95,2.68c.8,.31,1.71,.2,2.42-.28Z"/>
      <path class="cls-27" d="M432.17,752.02l6.15-4.21c1.79-1.23,4.21,.14,4.1,2.3l-.4,7.44c-.05,.86,.33,1.69,1.02,2.22l5.9,4.55c1.72,1.33,1.17,4.05-.93,4.61l-7.2,1.92c-.83,.22-1.5,.84-1.79,1.65l-2.5,7.02c-.73,2.05-3.49,2.37-4.67,.54l-4.05-6.25c-.47-.72-1.26-1.17-2.13-1.2l-7.45-.21c-2.17-.06-3.33-2.59-1.96-4.27l4.7-5.78c.54-.67,.72-1.56,.48-2.39l-2.1-7.15c-.61-2.08,1.43-3.97,3.46-3.18l6.95,2.68c.8,.31,1.71,.2,2.42-.28Z"/>
    </g>
  </g>
</svg>