<?xml version="1.0" encoding="UTF-8"?>
<svg id="Layer_1" data-name="Layer 1" xmlns="http://www.w3.org/2000/svg" xmlns:xlink="http://www.w3.org/1999/xlink" viewBox="0 0 1220 1258.82">
  <defs>
    <style>
      .cls-1, .cls-2, .cls-3, .cls-4, .cls-5, .cls-6, .cls-7, .cls-8 {
        fill: none;
      }

      .cls-2, .cls-3, .cls-4 {
        stroke-width: 1.5px;
      }

      .cls-2, .cls-3, .cls-4, .cls-9, .cls-5, .cls-6, .cls-7, .cls-8 {
        stroke-miterlimit: 10;
      }

      .cls-2, .cls-5, .cls-8 {
        stroke: #231f20;
      }

      .cls-3 {
        stroke: #006838;
      }

      .cls-4 {
        stroke: #603913;
      }

      .cls-10 {
        clip-path: url(#clippath);
      }

      .cls-11 {
        fill: #00a151;
      }

      .cls-12, .cls-9 {
        fill: #fff;
      }

      .cls-13 {
        fill: #f16225;
      }

      .cls-14 {
        fill: #803435;
      }

      .cls-15 {
        fill: #be9e7d;
      }

      .cls-16 {
        fill: #be8c8c;
      }

      .cls-17 {
        fill: #bf6b6b;
      }

      .cls-18 {
        fill: #c4e7f6;
      }

      .cls-19 {
        fill: #dcbf97;
      }

      .cls-20 {
        fill: #dc3b28;
      }

      .cls-21 {
        fill: #231f20;
      }

      .cls-22 {
        fill: #1fa8df;
      }

      .cls-23 {
        fill: #3e3e3e;
      }

      .cls-24 {
        fill: #401c0f;
      }

      .cls-25 {
        fill: #517569;
      }

      .cls-26 {
        fill: #79c79d;
      }

      .cls-27 {
        fill: #26130f;
      }

      .cls-28 {
        clip-path: url(#clippath-1);
      }

      .cls-9 {
        stroke: #939598;
      }

      .cls-5, .cls-6 {
        stroke-width: 2px;
      }

      .cls-6 {
        stroke: #fbb040;
      }

      .cls-7 {
        stroke: #dc3b28;
        stroke-width: 4px;
      }
    </style>
    <clipPath id="clippath">
      <path class="cls-1" d="M694.65,1253.59c256.47-35.52,461.98-230.5,513.22-481.6l-20.54-378.59-97.43-213.67L890.38,0h-120.53l-105.99,56.65-9,119.99,61,212.99-54,85.99-11,217.98-329.14-93.62-128.83,234.79,392.71,14.54-216.09,114.28,62.33,178.69,218.17,37.4,44.63,73.88Z"/>
    </clipPath>
    <clipPath id="clippath-1">
      <path class="cls-1" d="M444.99,1236.75c-143.45-40.26-265.51-131.66-345.27-253.29L31.56,618.88,.03,559.21l27.04-155.48,125.73-56.78,137.9,29.74,89.23,124.38,67.6,283.91,25.69,117.62,10.82,254.17-9.46,70.3-29.58,9.67Z"/>
    </clipPath>
  </defs>
  <circle class="cls-18" cx="610" cy="648.65" r="610"/>
  <g class="cls-10">
    <g>
      <path class="cls-23" d="M674.77,848.11l-195.4,82.59s-56.4,26.19-42.3,116.84c14.1,90.65,191.37,98.71,191.37,98.71l288.81,29.08s102.88-26.31,108.92-80.7l-351.4-246.51Z"/>
      <path class="cls-15" d="M689.76,563.1s-14.53,123.97-10.26,167.57c0,0-133.38-29.92-250.51-32.49,0,0-9.4-46.17-73.53-44.46,0,0-35.05-29.07-49.59-13.68-14.53,15.39,49.59,40.18,49.59,40.18,0,0-135.94,37.62-133.38,51.3,2.56,13.68,21.37,3.42,21.37,3.42,0,0,35.91,10.26,49.59,5.13,0,0,44.46,32.49,107.73,9.4,0,0,214.6,91.48,292.4,106.87,0,0,99.18,29.92,119.7-77.8l10.1-176.21"/>
      <path class="cls-15" d="M941.23,235.38s16.7,60.22,72.21,64.01c0,0-13.09,217.43-159.51,238.61,0,0-112.88-17.15-62.45-166.6,0,0,10.42-9.94,10.14-28.44"/>
      <path class="cls-15" d="M924.94,187.83s-20.1-136.36-143.57-133.19c0,0-87.26,9.48-68.68,132.15,0,0,6.89,19.26,4.68,30.11,0,0-3.94,27.72,11.93,51.72,23.76,35.93,45.86,61.15,45.86,61.15,0,0,13.8,16.9,44.32,14.04,0,0,21.35-2.88,46.76-23.26,0,0,65.61-38.64,57.8-78.78,0,0,32.26,16.87,40.63-32.48,0,0,4.69-67.59-39.74-21.46Z"/>
      <path class="cls-27" d="M808.12,157.79s39.94-18.11,60.73-6.85c0,0-16.9-19.98-62.98-2.93,0,0-7.58,7.36,2.26,9.78Z"/>
      <path class="cls-27" d="M707.09,158.98c.75-2.26,21.93-4.36,41.66-1.79,0,0,9.03,5.49-.02,10.04,0,0-36.05-9.67-40.74,2.11,0,0-2.76-4.78-.91-10.36Z"/>
      <path class="cls-5" d="M767.62,220.58s-14.14,27.18,15.82,26.82"/>
      <path class="cls-5" d="M959.1,196.19s-13.92-27.22-30.59,20.98c0,0,16.26-22.28,21.51-5.35"/>
      <path class="cls-27" d="M801.61,342.95s10.39,7.63,41.79-7.54c0,0,27.51-12.79,48.76-34.23,0,0-25.95,36.26-65.52,45.74,0,0-10.34,4.4-26.11,.69,0,0,2.29-.51,1.08-4.67Z"/>
      <path class="cls-17" d="M845.62,261.46s-20.75-3.93-43.88,5.55c0,0-21.11-1.8-39.22,4.43,0,0,5.83,33.09,37.92,36.94,32.09,3.84,47.97-27.52,45.18-46.91Z"/>
      <path class="cls-14" d="M840.87,264.39s3.62,29.46-34.71,33.79c-34.82,3.93-38.06-22.29-38.06-22.29,0,0,39.42-2.66,72.77-11.5Z"/>
      <path class="cls-12" d="M836.17,265.34s-7.96,14.73-37.79,16.65c0,0-18.2,2.99-26.96-5.88,0,0,38.33-3.49,64.75-10.76Z"/>
      <g>
        <path class="cls-12" d="M854.72,178.28s-.06-.91-.79-1.61c-2.41-2.33-7.89-6.61-15.95-6.01-9.03,.68-13.36,9.53-14.83,12.69-.25,.54-.19,1-.19,1,0,0,0,.51,.34,.83,1.57,1.56,6.72,5.87,15.28,5.36,5.09-.3,12.03-3.58,15.93-10.82,.27-.5,.25-1.12,.21-1.45Z"/>
        <circle class="cls-27" cx="836.22" cy="181.28" r="9.36"/>
        <circle class="cls-12" cx="841.13" cy="176.2" r="2.57"/>
        <path class="cls-2" d="M822.6,183.41s9.36-22.37,31.68-6.84"/>
      </g>
      <g>
        <path class="cls-12" d="M750.12,193.85s.07-.85-.5-1.61c-1.91-2.51-6.39-7.28-13.98-7.87-8.49-.66-13.79,6.95-15.6,9.68-.31,.47-.32,.9-.32,.9,0,0-.07,.47,.19,.82,1.23,1.68,5.41,6.42,13.44,7.17,4.78,.44,11.7-1.61,16.36-7.78,.32-.43,.39-1,.4-1.31Z"/>
        <circle class="cls-27" cx="732.48" cy="193.97" r="8.77"/>
        <circle class="cls-12" cx="737.26" cy="189.72" r="2.46"/>
        <path class="cls-2" d="M719.87,194.33s11.35-20.73,29.98-1.72"/>
      </g>
      <path class="cls-12" d="M1202.96,831.6c-48.11,32.71-166.52,103.39-296.29,107.19,0,0-63.8,1.86-122.84-39.34,0,0,2.84-99.35-23.65-188.29,0,0-34.99-35.42-44.01-103.46l-32.37-51.59,6.9-97.34s.92-40.59,69.74-76.64c0,0,13.8-6.9,32.19-11.5,0,0,.04,30.52,10.84,58.68,0,0,82.66,57.14,172.91-10.71,0,0,23.95-23.43,30.39-106.39,0,0,30.97,9.66,86.4,21.82,91.83,20.14,88.1,151.45,88.1,151.45,0,0-23.44,44.66-78.14,96.14l102.75,195.88"/>
      <path class="cls-7" d="M1024.71,314.69s-.43,64.85-30.35,114.83c0,0-72.75,73.66-205.3,18.08,0,0-15.72-34.98-10.05-71.81"/>
      <path class="cls-7" d="M762.19,712.57s152.15,51.51,304.21-54.12c0,0,22.7-22.24,38.25-42.96"/>
      <g>
        <circle class="cls-20" cx="848.39" cy="553.35" r="11"/>
        <circle class="cls-20" cx="859.46" cy="571.9" r="11"/>
        <circle class="cls-20" cx="860.59" cy="592.41" r="11"/>
        <circle class="cls-20" cx="841.53" cy="576.55" r="11"/>
        <circle class="cls-20" cx="880.97" cy="577.95" r="11"/>
        <circle class="cls-20" cx="871.65" cy="556.6" r="11"/>
      </g>
      <g>
        <circle class="cls-20" cx="780.95" cy="546.12" r="11"/>
        <circle class="cls-20" cx="792.02" cy="564.67" r="11"/>
        <circle class="cls-20" cx="793.15" cy="585.17" r="11"/>
        <circle class="cls-20" cx="774.08" cy="569.32" r="11"/>
        <circle class="cls-20" cx="813.53" cy="570.72" r="11"/>
        <circle class="cls-20" cx="804.21" cy="549.36" r="11"/>
      </g>
      <g>
        <circle class="cls-20" cx="915.64" cy="545.73" r="11"/>
        <circle class="cls-20" cx="926.71" cy="564.28" r="11"/>
        <circle class="cls-20" cx="927.84" cy="584.78" r="11"/>
        <circle class="cls-20" cx="908.78" cy="568.93" r="11"/>
        <circle class="cls-20" cx="948.22" cy="570.33" r="11"/>
        <circle class="cls-20" cx="938.9" cy="548.97" r="11"/>
      </g>
      <g>
        <circle class="cls-20" cx="978.83" cy="518.14" r="11"/>
        <circle class="cls-20" cx="989.91" cy="536.69" r="11"/>
        <circle class="cls-20" cx="991.04" cy="557.19" r="11"/>
        <circle class="cls-20" cx="971.97" cy="541.34" r="11"/>
        <circle class="cls-20" cx="1011.42" cy="542.74" r="11"/>
        <circle class="cls-20" cx="1002.1" cy="521.38" r="11"/>
      </g>
      <g>
        <circle class="cls-20" cx="1008.61" cy="479.1" r="8.23"/>
        <circle class="cls-20" cx="1019.95" cy="490.61" r="8.23"/>
        <circle class="cls-20" cx="1024.41" cy="505.3" r="8.23"/>
        <circle class="cls-20" cx="1007.74" cy="497.17" r="8.23"/>
        <circle class="cls-20" cx="1036.65" cy="491.18" r="8.23"/>
        <circle class="cls-20" cx="1026.09" cy="477.32" r="8.23"/>
      </g>
      <g>
        <circle class="cls-20" cx="734.23" cy="520.74" r="8.23"/>
        <circle class="cls-20" cx="745.57" cy="532.25" r="8.23"/>
        <circle class="cls-20" cx="750.03" cy="546.94" r="8.23"/>
        <circle class="cls-20" cx="733.36" cy="538.81" r="8.23"/>
        <circle class="cls-20" cx="762.26" cy="532.82" r="8.23"/>
        <circle class="cls-20" cx="751.7" cy="518.96" r="8.23"/>
      </g>
      <g>
        <circle class="cls-25" cx="980.05" cy="477.46" r="5.91"/>
        <circle class="cls-25" cx="980.64" cy="489.06" r="5.91"/>
        <circle class="cls-25" cx="976.01" cy="499.08" r="5.91"/>
        <circle class="cls-25" cx="970.95" cy="486.75" r="5.91"/>
        <circle class="cls-25" cx="989.33" cy="497.35" r="5.91"/>
        <circle class="cls-25" cx="990.28" cy="484.86" r="5.91"/>
      </g>
      <g>
        <circle class="cls-25" cx="946.54" cy="507.2" r="5.91"/>
        <circle class="cls-25" cx="947.12" cy="518.8" r="5.91"/>
        <circle class="cls-25" cx="942.5" cy="528.82" r="5.91"/>
        <circle class="cls-25" cx="937.44" cy="516.49" r="5.91"/>
        <circle class="cls-25" cx="955.81" cy="527.08" r="5.91"/>
        <circle class="cls-25" cx="956.77" cy="514.6" r="5.91"/>
      </g>
      <g>
        <circle class="cls-25" cx="970.49" cy="580.34" r="5.91"/>
        <circle class="cls-25" cx="971.08" cy="591.93" r="5.91"/>
        <circle class="cls-25" cx="966.45" cy="601.95" r="5.91"/>
        <circle class="cls-25" cx="961.39" cy="589.62" r="5.91"/>
        <circle class="cls-25" cx="979.77" cy="600.22" r="5.91"/>
        <circle class="cls-25" cx="980.72" cy="587.73" r="5.91"/>
      </g>
      <g>
        <circle class="cls-25" cx="898.1" cy="597.23" r="5.91"/>
        <circle class="cls-25" cx="898.68" cy="608.82" r="5.91"/>
        <circle class="cls-25" cx="894.06" cy="618.84" r="5.91"/>
        <circle class="cls-25" cx="889" cy="606.51" r="5.91"/>
        <circle class="cls-25" cx="907.37" cy="617.11" r="5.91"/>
        <circle class="cls-25" cx="908.33" cy="604.62" r="5.91"/>
      </g>
      <g>
        <circle class="cls-25" cx="826.61" cy="600.42" r="5.91"/>
        <circle class="cls-25" cx="827.19" cy="612.02" r="5.91"/>
        <circle class="cls-25" cx="822.57" cy="622.04" r="5.91"/>
        <circle class="cls-25" cx="817.51" cy="609.71" r="5.91"/>
        <circle class="cls-25" cx="835.88" cy="620.31" r="5.91"/>
        <circle class="cls-25" cx="836.84" cy="607.82" r="5.91"/>
      </g>
      <g>
        <circle class="cls-25" cx="746.25" cy="579.05" r="5.91"/>
        <circle class="cls-25" cx="746.84" cy="590.64" r="5.91"/>
        <circle class="cls-25" cx="742.21" cy="600.66" r="5.91"/>
        <circle class="cls-25" cx="737.15" cy="588.33" r="5.91"/>
        <circle class="cls-25" cx="755.53" cy="598.93" r="5.91"/>
        <circle class="cls-25" cx="756.48" cy="586.45" r="5.91"/>
      </g>
      <g>
        <circle class="cls-25" cx="892.02" cy="522.15" r="5.91"/>
        <circle class="cls-25" cx="888.51" cy="533.22" r="5.91"/>
        <circle class="cls-25" cx="880.67" cy="540.98" r="5.91"/>
        <circle class="cls-25" cx="880.24" cy="527.66" r="5.91"/>
        <circle class="cls-25" cx="893.75" cy="544.02" r="5.91"/>
        <circle class="cls-25" cx="899.01" cy="532.66" r="5.91"/>
      </g>
      <g>
        <circle class="cls-25" cx="823.54" cy="521.45" r="5.91"/>
        <circle class="cls-25" cx="827.41" cy="532.4" r="5.91"/>
        <circle class="cls-25" cx="825.84" cy="543.32" r="5.91"/>
        <circle class="cls-25" cx="817.47" cy="532.95" r="5.91"/>
        <circle class="cls-25" cx="838.1" cy="537.86" r="5.91"/>
        <circle class="cls-25" cx="835.45" cy="525.62" r="5.91"/>
      </g>
      <g>
        <circle class="cls-25" cx="780.49" cy="505.31" r="5.91"/>
        <circle class="cls-25" cx="782.14" cy="516.8" r="5.91"/>
        <circle class="cls-25" cx="778.44" cy="527.2" r="5.91"/>
        <circle class="cls-25" cx="772.28" cy="515.39" r="5.91"/>
        <circle class="cls-25" cx="791.55" cy="524.27" r="5.91"/>
        <circle class="cls-25" cx="791.36" cy="511.75" r="5.91"/>
      </g>
      <path class="cls-27" d="M758.37,74.25s93.11,135.45,205.07,124.8c0,0-7.41,49.5-41.75,42.65,0,0,11.64,64.01,56.39,79.03,0,0,22.82,18.09,57.76-11.53,40.59-34.4,43.71-84.42,7.39-134.22,0,0-59.46-45.36-100-118.2,0,0-84.62-102.03-186.96-31.48,0,0-67.14-3.96-86.18,54.62-11.01,33.88,6.72,106.3,14.25,153.92,0,0-2.08,122.52,112.94,130,0,0,6.06-6.62,6.53-20.55,0,0-22.4-1.46-37.36-24.49-14.96-23.03-22.24-27.2-37.16-50.18,0,0-16.03-22.85-11.48-55.58,0,0,.87-17.05-5.12-26.25,0,0-15.06-69.28,45.68-112.54"/>
      <path class="cls-6" d="M932.87,231.28s11.18,13.4,2.04,23.42c-9.14,10.02-6.29-12.2-6.29-12.2"/>
      <path class="cls-4" d="M330.53,706.44s30.1-12.67,32.48-13.47"/>
      <path class="cls-4" d="M369.34,708.03s-6.34-23.76,7.92-36.44"/>
      <path class="cls-23" d="M1061.03,790.31l-226.34-130.08s-166.5-62.44-169.1,96.26c-2.6,158.69,52.33,400.88,31.52,502.34,0,0,56.37-7.57,137.76-12.55,0,0,25.48-91.72,33.29-146.36s24.17-94.68,24.17-94.68c0,0,112.29,140.88,238.94,68.64,86.54-49.36,81.71-259.34,81.71-259.34,0,0-55.69,48.62-151.95-24.23Z"/>
      <g>
        <path class="cls-15" d="M1176.88,489.99s11.81,202.52,5.06,249.78c-6.98,48.86-30.38,58.23-88.6,74.84-62.3,17.78-273.82,33.98-273.82,33.98,0,0-52.45,17.86-90.91,6.96,0,0,2.42,19.89-8.74,21.48,0,0-5.8,.42-16.73-16.27,0,0-9.56,10.22-18.97-14.94,0,0-12.24,10.8-19.14-9.3l-2.03-11.9s-12.39,11.4-17.27,5.73c-4.88-5.67,5.73-20.05,5.73-20.05,0,0,8.43-25.69,22.56-26.52,14.13-.83,48.07-12.44,48.07-12.44l97.02,17.71s109.22-51.16,228.68-103.83c0,0-2.55-59.37-.47-103.42,0,0,71.34-35.28,129.56-91.82Z"/>
        <path class="cls-4" d="M773.58,781l-51.49-9.66-48.07,12.44s-9.71,1.03-16.55,12.33c-6.84,11.3-12.79,25.87-12.79,25.87,0,0-4.4,20.14,18.32,2.64,0,0-.18,24.43,13.5,23.83,0,0,4.94-.81,7.67-2.64,0,0,9.03,26.06,18.97,14.94,0,0-10.41-20.83-1.51-28.46,8.9-7.63,22.25-6.36,22.25-6.36"/>
        <path class="cls-4" d="M663,824.63s5.13-23.52,12.29-28.73,20.84-10.42,20.84-10.42"/>
        <path class="cls-4" d="M684.17,845.83s-2.37-29.75,17.16-40.16"/>
      </g>
      <path class="cls-8" d="M666.14,852.55s34.62,247.77,34.62,298.78"/>
      <path class="cls-8" d="M855.68,1167.56s18.7-135.34,36.64-162.32c0,0,59.84,55.01,86.26,57.74"/>
      <path class="cls-9" d="M1028.03,465.81c-4.85,45.25,19.04,116.94,19.04,116.94,0,0,86.89-34.06,134.2-97.27"/>
      <path class="cls-9" d="M716.17,607.7s-3.06-36.77,.98-56.97"/>
    </g>
  </g>
  <g class="cls-28">
    <g>
      <path class="cls-19" d="M92.43,877.94s14.52,117.43,17.28,143.69c0,0-5.53,62.19-2.76,84.31l55-40.26-28.74-162.9-40.78-24.84Z"/>
      <path class="cls-19" d="M259.42,621.28s-2.91,57.95,51.19,76.63c0,0-14.92,64.02-14.92,87.29,0,0-110.11,37.8-191.77,5.56,0,0,47.69-61.97,54.96-96.16,0,0,6.29-26.77,1.93-38.41l98.61-34.91Z"/>
      <path class="cls-19" d="M265.81,453.44s38.13,23.37,40.59,83.64c0,0-3.23,16.1-.65,25.7,2.59,9.6,1.82,40.33-2.24,58.06-4.06,17.73-16.41,47.65-44.12,61.31-27.7,13.67-71.47-9.3-71.47-9.3,0,0-44.69-21.79-54.66-49.49,0,0-16.62,17.73-33.24,3.32-16.62-14.4-34.72-51.34-16.25-61.31,15.85-8.56,30.34,12.54,34.13,18.69,.63,1.02,.96,1.62,.96,1.62,0,0,6.65-121.15,46.17-125.58,0,0,36.16-33.39,100.78-6.66Z"/>
      <path class="cls-21" d="M218.52,535.36s-27.96-5.04-51.72,4.47c0,0,11.07-15.73,52.09-11.13,0,0,6.95,3.83-.37,6.66Z"/>
      <path class="cls-21" d="M306.29,537.41c-19.56-4.08-33.71-2.01-33.71-2.01-7.23-3.05-.17-6.67-.17-6.67,12.82-1.06,27.07,1.1,34.57,2.74,0,0,.39,6.16-.68,5.94Z"/>
      <path class="cls-16" d="M214.29,625.16s14.69-4.54,32.18,.43c0,0,15.12-3.02,28.73,0,0,0-1.51,24.41-24.41,29.81-22.9,5.4-36.94-15.98-36.5-30.24Z"/>
      <path class="cls-14" d="M217.96,626.89s-.22,21.6,27.86,21.6c25.5,0,25.7-19.22,25.7-19.22,0,0-28.73,1.3-53.57-2.38Z"/>
      <path class="cls-12" d="M221.44,627.2s6.96,10,28.69,8.95c0,0,13.4,.67,19.02-6.45,0,0-28.01,.61-47.71-2.5Z"/>
      <path class="cls-5" d="M256.8,572.39s17.01,16.27-.74,26.63"/>
      <path class="cls-21" d="M305.29,561.84l-2.15-24.99c.41-42.25-21.7-60.42-21.7-60.42-42.4,20.23-119.73-1.86-119.73-1.86-6.72,87.41-41.05,115.46-41.05,115.46-7.9-22.36-32.73-27.56-32.73-27.56-13.5-48.95,10.52-79.69,10.52-79.69C84.77,545.73,.95,558.97,.95,558.97c37.22-13.68,35.66-94.79,35.66-94.79,0,0-10.4-49.26,43.24-70.6,53.64-21.35,64.04,36.67,64.04,36.67,15.32-12.04,87.57-38.86,142.85,22.99,0,0,31.51,34.41,18.56,108.61Z"/>
      <path class="cls-11" d="M98.74,447.12s-3.53,19.63,14.14,25.52c17.67,5.89,14.53-21.6,14.53-21.6,0,0,27.49,.79,26.31-9.82-1.18-10.6-16.88-26.7-21.99-20.03-5.1,6.68-7.07,20.42-7.07,20.42,0,0-21.6-1.18-25.92,5.5Z"/>
      <path class="cls-5" d="M84.67,590.73s8.51-12.9,18.05,.26c9.54,13.15,10.06,17.54,10.06,17.54,0,0-13.67-20.89-19.09-4.13"/>
      <g>
        <path class="cls-13" d="M107.26,573.67s11.89,15.49,0,22.69c-11.89,7.2,7.93,2.88,7.93,2.88,0,0,13.69-5.79-2.88-30.81l-5.05,5.24Z"/>
        <path class="cls-12" d="M107.26,596.37s-6.48-17.65-18.73-14.05c-12.25,3.6,.72,25.22,.72,25.22,0,0,3.6,5.04,10.45,4.68,0,0-6.48-11.89,7.56-15.85Z"/>
        <path class="cls-22" d="M77.77,573.94s-10.08,5.5-6.72-6.42c3.36-11.92,20.78-12.22,26.28-11.31,5.5,.92,13.45,3.67,14.97,12.22,1.53,8.56-10.39,.92-10.39,.92,0,0-14.36-11-24.14,4.58Z"/>
      </g>
      <g>
        <path class="cls-12" d="M185.09,558.12s-.04-.79,.52-1.46c1.85-2.24,6.14-6.45,13.13-6.71,7.83-.29,12.41,6.9,13.98,9.47,.27,.44,.26,.84,.26,.84,0,0,.04,.44-.21,.75-1.2,1.5-5.21,5.7-12.62,6.09-4.41,.23-10.69-1.91-14.75-7.75-.28-.41-.32-.94-.32-1.22Z"/>
        <path class="cls-27" d="M209.38,558.9c0-4.47-3.63-8.1-8.1-8.1-4.47,0-8.1,3.63-8.1,8.1s3.63,8.1,8.1,8.1,8.1-3.63,8.1-8.1Z"/>
        <circle class="cls-12" cx="196.86" cy="562.9" r="2.22"/>
        <path class="cls-8" d="M213.2,559.41s-10.22-18.33-27.9-2.8"/>
      </g>
      <g>
        <path class="cls-12" d="M270.19,558.91s-.14-.72,.27-1.41c1.38-2.31,4.72-6.78,11.1-8.01,7.14-1.37,12.35,4.58,14.15,6.71,.31,.37,.36,.73,.36,.73,0,0,.1,.39-.09,.72-.89,1.54-3.97,5.96-10.71,7.36-4.01,.83-10.07-.24-14.62-5.03-.32-.33-.43-.81-.47-1.08Z"/>
        <circle class="cls-27" cx="285.15" cy="557.33" r="7.48"/>
        <circle class="cls-12" cx="281.04" cy="561.11" r="2.1"/>
        <path class="cls-8" d="M295.88,556.43s-11.61-16.49-25.58,1.41"/>
      </g>
      <path class="cls-24" d="M78.31,1236.91s-54.36,0-62.41-36.24c0,0,100.67-122.81,159.05-142.95,0,0,20.13,54.36,247.64-54.36,0,0,75.8,142.01,18.74,244.9"/>
      <path class="cls-11" d="M162.07,1063.61s-31.09-93.38-40.54-164.19c0,0-13.58,3.62-28.98-23.54v-68.82s10.92-86.15,66.32-112.46c0,0-3.27,43.46,42.24,48.48,0,0,67.26,2.01,86.11-68.21,0,0,66.07,2.48,104.86,60.66s40.86,103.11,40.86,103.11c0,0-14.77,7.43-14.59,22.37,.57,47.85,17.44,154.86,24.91,193.29,0,0-245.08,101.92-281.19,9.33Z"/>
      <path class="cls-26" d="M277.38,673.71s4.55,56.68-66.79,69.09c0,0-51.98,5.66-51.72-48.2,0,0-4.74,1.4-7.53,3.76,0,0,4.31,54.13,59.79,51.71,0,0,51.71-6.73,64.62-42.69,0,0,8.9-19.47,11.48-32.51l-9.85-1.15Z"/>
      <path class="cls-3" d="M121.94,900.34s-7.87-38.68-4.16-64.63"/>
      <path class="cls-19" d="M432.18,841.29s37.65,151.14-34.52,212.39c-72.17,61.24-103.18,92.84-103.18,92.84l-12.75,26.89-34.14,41.17s-7.17,4.18-12.89,.44c0,0-13.71,5.98-21.67-5.06,0,0-7.42,.29-9.28-7.23,0,0-14.47-5.72-2.14-14.94,12.32-9.22,22.07-15.92,29.99-32.68,0,0-.98-12.07-8.52-7.67-7.55,4.41-17.23,12.08-19.87,7.55s5.84-12.52,5.84-12.52c0,0,12.42-16.86,24.8-19.03,12.39-2.17,29.53-6.61,29.53-6.61l93.06-137.8-16.42-111.31"/>
      <circle class="cls-26" cx="186.06" cy="764.32" r="12.37"/>
      <circle class="cls-26" cx="210.73" cy="766.14" r="12.37"/>
      <circle class="cls-26" cx="235.77" cy="761.62" r="12.37"/>
      <circle class="cls-26" cx="259.94" cy="753.1" r="12.37"/>
      <circle class="cls-26" cx="280.03" cy="738.01" r="12.37"/>
      <circle class="cls-26" cx="292.07" cy="718.69" r="12.37"/>
      <circle class="cls-26" cx="162.75" cy="755.63" r="12.37"/>
      <circle class="cls-26" cx="147.13" cy="739.11" r="11.41"/>
      <circle class="cls-26" cx="195.79" cy="786.15" r="12.37"/>
      <circle class="cls-26" cx="226.59" cy="784.87" r="12.37"/>
      <circle class="cls-26" cx="255.41" cy="777.13" r="12.37"/>
      <circle class="cls-26" cx="282.1" cy="762.82" r="12.37"/>
      <circle class="cls-26" cx="300.91" cy="741.15" r="12.37"/>
      <circle class="cls-26" cx="167.08" cy="779.16" r="12.37"/>
      <circle class="cls-26" cx="142.37" cy="760.88" r="10.91"/>
      <path class="cls-27" d="M160.8,656.19s40.64,29.99,77.43,30.31c0,0,20.18,1.11,36.09-14.8l1.29,1.45s-12.55,13.97-36.79,14.94c0,0-12.85,.64-27.64-4.34-14.78-4.98-32.46-12.55-50.37-27.56Z"/>
    </g>
  </g>
</svg>