<?xml version="1.0" encoding="UTF-8"?>
<svg id="Layer_1" data-name="Layer 1" xmlns="http://www.w3.org/2000/svg" viewBox="0 0 1220.08 1258.4">
  <defs>
    <style>
      .cls-1 {
        stroke-width: 1.5px;
      }

      .cls-1, .cls-2 {
        stroke: #231f20;
      }

      .cls-1, .cls-2, .cls-3, .cls-4 {
        fill: none;
        stroke-miterlimit: 10;
      }

      .cls-5 {
        fill: #f05380;
      }

      .cls-6 {
        fill: #fff;
      }

      .cls-7 {
        fill: #803435;
      }

      .cls-8 {
        fill: #c4e7f6;
      }

      .cls-9 {
        fill: #dcbf97;
      }

      .cls-10 {
        fill: #db7777;
      }

      .cls-11 {
        fill: #231f20;
      }

      .cls-12 {
        fill: #0f3e5d;
      }

      .cls-13 {
        fill: #26130f;
      }

      .cls-2, .cls-3 {
        stroke-width: 2px;
      }

      .cls-3 {
        stroke: #754c29;
      }

      .cls-4 {
        stroke: #be1e2d;
      }
    </style>
  </defs>
  <circle class="cls-8" cx="610.08" cy="648.4" r="610"/>
  <g>
    <path class="cls-9" d="M587.9,644.49s-32.92,148.54-33.11,201.94c0,0-158.04-52.74-299.76-70.3,0,0-5.71-57.15-83.68-62.98,0,0-38.92-39.57-58.44-22.71s55.18,54.85,55.18,54.85c0,0-169.49,28.85-168.06,45.75,1.42,16.9,25.5,6.78,25.5,6.78,0,0,42.28,16.87,59.5,12.34,0,0,49.9,44.88,129.47,24.69,0,0,248.94,137.41,341.39,165.67,0,0,116.57,48.52,154.75-79.58l33.98-212.44"/>
    <path class="cls-9" d="M916.09,297.08s-6.73,78.39,14.98,124.67c0,0,22.29,217.59-154.65,225.57,0,0-132.46-33.73-54.77-205.85,0,0,31.68-12.87,31.93-43.7,.27-32.64-4.2,.61-4.2,.61l166.71-101.31"/>
    <path class="cls-9" d="M917.16,226.96s-20.42-163.74-168.28-163.24c0,0-124.31,12.04-84.09,163.54,0,0,6.1,16.04,3.17,28.96,0,0-13.33,20.55,9,67.04,22.33,46.49,54.04,72.04,54.04,72.04,0,0,19.18,18.15,55.79,15.54,0,0,29.23,1.13,60.18-22.59,0,0,75.97-48.51,67.69-96.76,0,0,38.16,21.05,49.5-37.79,0,0,7.42-80.77-46.99-26.74Z"/>
    <path class="cls-10" d="M806.02,320.1s-37.26-9-52.4,4.74c0,0-10.88-9.38-39.74,4.26,0,0,9.43,42.17,45.02,39.4,50.79-3.95,47.12-48.39,47.12-48.39Z"/>
    <path class="cls-5" d="M931.07,421.75s42.7,10.43,109.86,20.75c146.85,22.57,122.69,217.41,122.69,217.41,0,0-45.76,23.45-156.2,69.71l51.06,331.91s-84.59,100.47-223.65,154c0,0-192.43,8.31-221.81-90.65,0,0-8.58-174.39-9-298.64,0,0-31.4-24.16-30.93-83.71l-18.71-42.46,13.85-121.86s11.81-81.71,98.06-116.56c0,0,32.26-6.92,55.38-20.18,0,0-14.29,89.51-4.75,124.33,0,0,60.44,65.18,175.97-5.02,0,0,40.68-53.63,38.2-139.03Z"/>
    <path class="cls-7" d="M799.47,325.38s-2.43,28.64-37.55,32.15c-35.12,3.51-41.35-24.68-41.35-24.68,0,0,56.86-10.82,78.9-7.46Z"/>
    <path class="cls-13" d="M777.41,185.45s49.67-17.01,73.15-1.23c0,0-17.86-25.75-74.72-10.69,0,0-9.87,7.91,1.57,11.92Z"/>
    <path class="cls-13" d="M656.91,188.66c.75-2.75,25.94-6.62,49.69-4.8,0,0,11.14,5.98,.62,12,0,0-43.71-9.25-48.57,5.13,0,0-3.6-5.54-1.75-12.33Z"/>
    <path class="cls-2" d="M727.84,261.97s-17.81,32.44,18.38,32.81"/>
    <path class="cls-6" d="M790.72,324.76s-7.48,9.28-34.43,12.28c-24.82,2.77-32.76-4.85-32.76-4.85,0,0,36.18-7.98,67.19-7.43Z"/>
    <path class="cls-2" d="M956.16,243.04s-13.05-26.98-30.44,19.89c0,0,16.42-21.48,21.2-4.77"/>
    <path class="cls-13" d="M760.19,408.77s26.83,10.11,70.42-9.32c0,0,21.51-10.52,47.52-35.62,0,0-31.23,42.44-82.87,50.92,0,0-16.19,3.14-35.25-.87,0,0,1.51-.11,.18-5.11Z"/>
    <path class="cls-11" d="M835.69,88.09s50.77,24.78,81.47,138.87c0,0,33.53-35.74,43.42-5.92,9.74,29.36-7.1,60.11-7.1,60.11,0,0-6.73,20.31-38.83,10.34,0,0-41.38,145.56,5.35,232.75,0,0,13.57,49.05-23.94,63.87,0,0,41.61,30.52,102.42-4.68,60.81-35.2,59.03-181.3,44.23-243.95-14.8-62.65-30.04-79.56-40.5-170.02-10.46-90.47-83.73-124.95-114.02-131.35,0,0-106.53-108.93-231.05,41.6,0,0-47.95,68.7-8.61,247.41,0,0-.05,103.84,10.08,160.27,0,0,15.93,76.03,50.74,116.14,0,0,37.71,35.78,63.15,9.86,0,0-20.9-20.87-24.39-51.95-2.4-21.42-5.2-86.44-22.75-107.45,0,0,37.02-16.5,34.83-45.2,0,0-43.28-4.65-84.69-89.23,0,0-18.22-32.77-7.54-63.33,0,0,3.98-15.58-3.17-28.96,0,0-5.7-17.6-6.29-38.34-.59-20.73,9.01-46.32,9.01-46.32,0,0,52.37,7.52,168.19-54.51Z"/>
    <g>
      <path class="cls-6" d="M832.18,212.67s-.05-1.09-.9-1.95c-2.82-2.85-9.27-8.12-18.93-7.61-10.82,.57-16.25,11.05-18.09,14.79-.32,.64-.25,1.19-.25,1.19,0,0,0,.6,.38,1.01,1.83,1.91,7.89,7.2,18.14,6.82,6.1-.23,14.5-3.96,19.36-12.52,.34-.6,.33-1.33,.29-1.72Z"/>
      <circle class="cls-13" cx="809.96" cy="215.77" r="11.21"/>
      <circle class="cls-6" cx="816.54" cy="210.75" r="3.07"/>
      <path class="cls-1" d="M793.6,217.95s11.8-26.53,38.1-7.34"/>
    </g>
    <g>
      <path class="cls-6" d="M706.57,228.52s.11-1.02-.56-1.94c-2.22-3.06-7.46-8.88-16.52-9.79-10.15-1.02-16.69,7.96-18.93,11.16-.39,.55-.41,1.07-.41,1.07,0,0-.09,.56,.21,.99,1.43,2.04,6.31,7.83,15.9,8.94,5.71,.66,14.05-1.61,19.79-8.88,.4-.51,.49-1.19,.52-1.56Z"/>
      <circle class="cls-13" cx="685.46" cy="228.19" r="10.5"/>
      <circle class="cls-6" cx="691.66" cy="223.42" r="2.94"/>
      <path class="cls-1" d="M670.36,228.28s14.14-24.51,35.93-1.26"/>
    </g>
    <path class="cls-4" d="M1007.41,729.62s-13.89-35.04-12.99-76.53"/>
    <path class="cls-4" d="M573.08,742.54s-8.6-49.19,15.72-116.58"/>
    <line class="cls-3" x1="25.51" y1="797.82" x2="94.76" y2="782.45"/>
    <path class="cls-3" d="M85.01,810.16s-3.47-5.12,8.84-8.55c12.31-3.43,61.05,8.29,61.05,8.29"/>
    <path class="cls-3" d="M172.7,757.62s-11.46,15.48,6.63,37.08"/>
    <path class="cls-9" d="M1123.49,977.82s-59.53,98.14-153.22,162.89l41.6-222.12-4.53-189.55,146.03-65.16-3.59,193.2s-2.88,67.75-26.29,120.74Z"/>
    <path class="cls-12" d="M613.01,1124.89s2.15,80.68,8.23,132.93c0,0,107.94,1.5,213.58-42.28,0,0-193.12,7.15-221.81-90.65Z"/>
  </g>
</svg>