<?xml version="1.0" encoding="utf-8"?>
<!-- Generator: Adobe Illustrator 27.9.0, SVG Export Plug-In . SVG Version: 6.00 Build 0)  -->
<svg version="1.1" id="Layer_1" xmlns="http://www.w3.org/2000/svg" xmlns:xlink="http://www.w3.org/1999/xlink" x="0px" y="0px"
	 viewBox="0 0 109.39 114.76" style="enable-background:new 0 0 109.39 114.76;" xml:space="preserve">
<style type="text/css">
	.st0{fill:#0E3A5A;}
	.st1{fill:#00969A;}
	.st2{fill:#E30A7C;}
	.st3{fill:#F15F22;}
</style>
<path class="st0" d="M51.36,34.1c0.05-3.02,0.83-5.65,2.14-7.69c1.14-1.79,2.7-3.12,4.51-3.83c1.81-0.71,3.89-0.83,6.09-0.19
	c2.51,0.73,5.18,2.41,7.84,5.25l0.57,0.61l0.83-0.02l0.46-0.01c-14.08,6.24-2.19,20.25-11.54,32.58c-1.65,2.17-3.88,3.57-6.8,4.06
	c1.23-4.12,0.79-9.45-2.12-16.74c-4.1-10.86-10.33-19.51-18.32-26.34C27.07,15.01,17.4,10.04,6.38,6.51L3.34,5.53l0.63,3.13
	c5.38,26.88,11.66,54.06,44.7,59.81c-2.87,3.11-7.22,5.27-11.84,7.58c-7.06,3.52-14.69,7.33-19.5,14.62
	c0.62-5.43,1.56-10,2.76-13.89c2.02-6.55,4.78-11.1,7.99-14.44l-2.71-2.6c-3.59,3.73-6.66,8.77-8.87,15.94
	c-3.18,10.29-4.91,22.79-2.59,33.38c5.2-16.39,4.92-16.92,24.6-29.63c6.16-3.07,11.89-5.93,15.05-10.56
	c5.13-0.13,8.95-2.17,11.7-5.79c16.28-21.45-15.87-32.87,36.6-35.15c2.13-0.09,4.19-0.18,6.01-0.29L74.1,24.48
	c-2.96-3-6.02-4.84-8.96-5.69c-3.06-0.89-5.97-0.72-8.52,0.29c-2.55,1.01-4.72,2.85-6.29,5.32c-1.66,2.6-2.66,5.9-2.73,9.65
	L51.36,34.1z M32.58,24.66c7.51,6.42,13.38,14.57,17.24,24.81l0.01,0.04c2.79,6.96,2.84,11.81,1.18,15.49
	C22.32,62.16,11.97,35.49,8.2,11.09C17.53,14.38,25.74,18.82,32.58,24.66"/>
<path class="st1" d="M8.2,11.09c24.04,13.39,23.94,51.9,43.82,46.54c-0.25-2.34-0.94-5.02-2.19-8.12l-0.01-0.04
	c-3.86-10.24-9.73-18.38-17.24-24.81C25.74,18.82,17.53,14.38,8.2,11.09"/>
<path class="st2" d="M73.8,28.24c-23.17,4.39-7.68,23.54-18.35,36.64c2.92-0.5,5.16-1.89,6.81-4.06
	C71.62,48.49,59.72,34.48,73.8,28.24"/>
<path class="st3" d="M33.02,69.18c-5.67,0.79-10.9,7.95-15.69,21.49c4.81-7.28,12.44-11.1,19.5-14.62
	c4.62-2.31,8.97-4.48,11.84-7.58C43.09,70.43,37.87,70.67,33.02,69.18"/>
</svg>
