<?xml version="1.0" encoding="UTF-8"?>
<svg id="Layer_1" data-name="Layer 1" xmlns="http://www.w3.org/2000/svg" viewBox="0 0 423.62 419.57">
  <defs>
    <style>
      .cls-1 {
        fill: #fff;
        stroke-width: 0px;
      }
    </style>
  </defs>
  <path class="cls-1" d="M194.61,115.78c.2-12.24,3.36-22.9,8.67-31.16,4.62-7.25,10.94-12.64,18.28-15.52,7.34-2.88,15.76-3.36,24.68-.77,10.17,2.96,20.99,9.77,31.77,21.28l2.31,2.47,3.36-.08,1.86-.04c-57.06,25.29-8.88,82.07-46.77,132.03-6.69,8.79-15.72,14.47-27.56,16.45,4.98-16.7,3.2-38.3-8.59-67.84-16.62-44.01-41.86-79.07-74.24-106.75C96.17,38.42,56.98,18.28,12.32,3.97L0,0l2.55,12.68c21.8,108.93,47.25,219.08,181.15,242.39-11.63,12.6-29.26,21.36-47.98,30.72-28.61,14.27-59.53,29.71-79.03,59.25,2.51-22.01,6.32-40.53,11.19-56.29,8.19-26.54,19.37-44.98,32.38-58.52l-10.98-10.54c-14.55,15.12-26.99,35.54-35.95,64.6-12.89,41.7-19.9,92.36-10.5,135.28,21.07-66.42,19.94-68.57,99.69-120.08,24.96-12.44,48.19-24.03,60.99-42.8,20.79-.53,36.27-8.79,47.42-23.46,65.98-86.93-64.32-133.21,148.33-142.45,8.63-.36,16.98-.73,24.36-1.18l-136.86-12.81c-12-12.16-24.4-19.61-36.31-23.06-12.4-3.61-24.19-2.92-34.53,1.18-10.33,4.09-19.13,11.55-25.49,21.56-6.73,10.54-10.78,23.91-11.06,39.11l15.24.2ZM118.5,76.85c30.44,26.02,54.22,59.05,69.87,100.55l.04.16c11.31,28.21,11.51,47.86,4.78,62.78C76.92,228.82,34.97,120.74,19.7,21.86c37.81,13.33,71.08,31.33,98.8,54.99"/>
  <path class="cls-1" d="M19.7,21.86c97.43,54.26,97.02,210.33,177.59,188.61-1.01-9.48-3.81-20.34-8.88-32.91l-.04-.16c-15.64-41.5-39.43-74.49-69.87-100.55-27.72-23.67-60.99-41.66-98.8-54.99"/>
  <path class="cls-1" d="M285.55,91.36c-93.9,17.79-31.12,95.4-74.37,148.49,11.83-2.03,20.91-7.66,27.6-16.45,37.93-49.97-10.29-106.75,46.77-132.03"/>
  <path class="cls-1" d="M120.28,257.27c-22.98,3.2-44.17,32.22-63.59,87.09,19.49-29.5,50.41-44.98,79.03-59.25,18.72-9.36,36.35-18.16,47.98-30.72-22.61,7.94-43.77,8.92-63.42,2.88"/>
</svg>